{"glyphs":{"0":{"ha":722,"x_min":-26,"x_max":688,"o":"m 621 1068 l 621 1068 l 663 1049 l 667 1056 l 688 1056 l 683 1049 l 683 1012 l 663 385 l 657 379 l 663 379 l 657 373 l 657 366 l 646 116 l 652 116 l 646 110 l 646 28 q 631 -9 646 -4 l 631 -9 l 557 -9 l 552 -3 l 547 -3 l 547 -9 l 531 -3 l -20 22 l -26 28 l -26 22 l 11 981 l 326 1024 l 326 1018 l 426 1031 l 426 1037 l 416 1037 l 416 1043 l 420 1043 l 447 1037 q 621 1068 621 1055 z m 121 404 l 121 404 l 121 393 q 368 125 121 125 l 368 125 q 572 361 572 125 l 572 361 l 572 479 q 357 694 572 644 l 357 694 l 347 683 l 336 683 l 325 694 q 121 404 121 694 z m 357 586 l 357 586 q 411 458 411 586 l 411 458 q 357 232 405 232 l 357 232 l 336 232 q 293 307 293 250 l 293 307 l 293 436 q 357 586 293 586 z "},"1":{"ha":381,"x_min":-259,"x_max":568,"o":"m 458 -145 l 458 -66 l 469 -66 l 469 -145 l 458 -145 z m -199 625 l -159 982 l -140 982 l -140 962 l -179 526 l -199 526 l -199 625 z m 218 922 l 178 962 l 257 962 l 257 922 l 218 922 z m 297 922 l 297 942 l 376 942 l 376 922 l 297 922 z m 300 817 l 300 817 l 296 804 l 226 205 l 254 201 l 245 124 l 275 128 l 256 128 l 3 151 l 12 226 l 43 227 l 95 711 l 55 713 l 58 783 l 79 783 q 300 817 149 802 z m -259 89 l -219 526 l -199 526 l -199 406 l -239 9 l -259 9 l -259 89 z m 557 -57 l 557 9 l 568 9 l 568 -57 l 557 -57 z m -7 -4 l -7 -4 l 15 -4 q 37 -43 15 -43 l 37 -43 l 37 -70 l 26 -57 l -40 -57 l -40 -31 q -7 -4 -7 -31 z m 192 -96 l 203 -4 l 214 -4 q 269 -57 214 -57 l 269 -57 l 269 -31 l 292 -31 l 280 -123 l 292 -136 l 269 -136 l 269 -70 l 258 -70 l 247 -136 l 236 -136 l 236 -70 l 214 -70 l 214 -123 l 192 -123 l 192 -96 z m 81 -70 l 92 -31 l 125 -31 l 125 -57 q 103 -96 103 -57 l 103 -96 l 81 -70 z m 136 -57 l 159 -31 l 180 -57 l 180 -123 q 159 -83 159 -123 l 159 -83 l 125 -109 l 125 -96 q 170 -70 125 -70 l 170 -70 l 170 -57 l 136 -57 z m 302 -136 l 302 -57 l 325 -57 l 325 -109 l 302 -136 z m 402 -96 l 402 -57 l 413 -57 q 446 -96 413 -96 l 446 -96 l 446 -109 q 413 -149 413 -109 l 413 -149 l 391 -149 q 369 -109 391 -109 l 369 -109 l 369 -83 l 380 -96 l 402 -96 z m 490 -109 l 524 -70 l 557 -83 l 557 -109 l 546 -109 l 535 -96 l 524 -96 l 490 -109 z "},"2":{"ha":559,"x_min":76,"x_max":582,"o":"m 83 -157 l 97 -140 l 104 -140 l 117 -157 l 111 -157 l 104 -149 l 97 -149 l 90 -157 l 90 -165 q 124 -192 124 -172 l 124 -192 l 111 -210 l 83 -210 l 83 -192 l 90 -201 l 111 -201 l 111 -183 q 83 -165 83 -183 l 83 -165 l 83 -157 z m 131 -210 l 131 -140 l 138 -140 l 138 -174 l 158 -157 l 165 -157 l 158 -165 l 158 -174 l 165 -201 l 144 -183 l 138 -210 l 131 -210 z m 205 -149 l 205 -140 l 211 -140 q 231 -192 218 -192 l 231 -192 q 252 -149 236 -149 l 252 -149 l 252 -157 q 224 -210 236 -210 l 224 -210 l 218 -210 l 205 -149 z m 313 -174 l 346 -140 l 346 -149 l 333 -192 l 326 -183 l 319 -183 l 313 -210 l 306 -210 l 306 -149 l 313 -149 l 313 -174 z m 407 -165 l 434 -140 l 454 -149 l 454 -165 l 448 -157 l 427 -157 l 414 -174 l 414 -183 l 427 -201 l 441 -201 q 454 -165 454 -201 l 454 -165 l 461 -165 l 461 -201 l 441 -218 l 427 -218 l 407 -192 l 407 -165 z m 185 -210 l 185 -149 l 192 -149 l 192 -210 l 185 -210 z m 258 -165 l 272 -149 l 272 -210 l 258 -210 l 258 -165 z m 286 -210 l 286 -149 l 292 -149 l 292 -210 l 286 -210 z m 353 -210 l 359 -149 l 366 -149 l 366 -174 l 393 -149 l 400 -149 l 387 -192 l 380 -183 l 373 -183 l 366 -210 l 353 -210 z m 494 -165 l 494 -149 l 514 -149 l 528 -165 l 528 -174 l 507 -210 l 528 -210 l 528 -218 l 487 -218 l 521 -165 l 514 -157 l 507 -157 l 500 -165 l 494 -165 z m 77 -254 l 77 -245 l 144 -254 l 568 -254 l 582 -271 l 468 -262 l 111 -262 l 77 -254 z m 83 1226 l 89 1240 l 134 1226 l 304 1226 l 311 1213 l 317 1213 l 317 1226 l 324 1213 l 494 1213 l 572 1198 l 572 1240 l 579 1240 l 579 1226 l 572 869 l 572 762 l 553 762 l 576 762 l 569 762 l 562 747 l 562 679 l 556 283 q 553 200 543 200 l 553 200 l 546 -33 l 546 -87 l 553 -101 l 553 -115 l 83 -115 l 76 336 l 83 1226 z m 132 1021 l 132 1021 l 175 880 l 188 880 l 177 882 l 209 898 q 348 761 336 943 l 348 761 q 314 617 334 640 l 314 617 l 235 435 l 119 124 l 121 -7 l 213 5 q 489 694 418 355 l 489 694 l 492 801 q 315 1094 456 1060 l 315 1094 l 235 1083 q 132 1021 161 1063 z m 122 -6 l 119 -13 l 122 -10 l 346 -22 l 378 -33 l 378 -22 l 385 -33 l 321 -18 l 487 -16 l 493 131 l 288 134 l 323 132 l 286 136 l 214 4 l 122 -6 z "},"3":{"ha":932,"x_min":-92,"x_max":1013,"o":"m 12 1174 l 12 1220 l 96 1220 l 96 1185 l 85 1139 l 96 1104 l 85 1104 l 96 1093 l 96 976 l 85 964 l 96 907 l 106 907 l 159 918 l 149 930 l 149 941 q 222 1127 149 995 l 222 1127 l 233 1116 l 254 1116 q 401 1220 254 1175 l 401 1220 q 570 953 570 1220 l 570 953 q 370 732 570 732 l 370 732 l 370 744 l 307 732 l 307 663 l 349 651 l 359 663 l 391 663 l 412 593 l 433 593 l 433 604 l 422 640 l 433 640 q 581 418 541 640 l 581 418 l 581 291 q 496 94 581 203 l 496 94 l 486 105 q 391 47 486 47 l 391 47 l 370 47 l 212 105 l 212 117 q 328 221 282 117 l 328 221 l 317 233 l 317 279 l 328 291 l 328 302 q 254 372 279 372 l 254 372 l 264 384 l 264 395 q 75 291 75 375 l 75 291 l 85 291 l 75 279 l 75 245 q 338 -11 75 54 l 338 -11 l 338 -34 l 359 -34 l 349 -22 l 349 -11 l 475 -11 l 465 -22 l 465 -34 l 475 -22 l 496 -22 l 496 -34 l 486 -45 l 486 -57 l 507 -57 l 507 -68 l 486 -68 l 507 -92 l 517 -34 l 486 1 l 591 12 l 591 1 l 570 -22 l 570 1 l 559 1 l 559 -34 l 581 -34 l 559 -68 l 559 -80 q 644 -115 606 -80 l 644 -115 l 654 -115 l 654 -104 l 623 -68 l 612 -80 q 581 -34 607 -34 l 581 -34 l 581 -22 l 602 -22 l 602 47 q 781 395 781 155 l 781 395 q 654 628 781 541 l 654 628 l 581 686 q 760 941 760 786 l 760 941 l 760 964 q 644 1220 760 1124 l 644 1220 q 981 1174 981 1204 l 981 1174 q 1013 976 995 976 l 1013 976 l 1002 964 l 1002 941 l 1013 802 l 981 779 l 970 790 l 916 -74 l 905 -121 l 949 -104 q 907 -184 907 -111 l 907 -184 l 876 -184 q 854 -115 876 -115 l 854 -115 l 844 -115 l 823 -138 l 770 -127 l 760 -138 l 749 -127 l 728 -127 l 728 -197 l 696 -197 q 665 -138 689 -138 l 665 -138 l 633 -138 q 602 -197 605 -138 l 602 -197 l 538 -197 q 581 -173 538 -173 l 581 -173 l 570 -138 l 538 -161 l 507 -150 l 507 -197 l 401 -197 l 401 -127 l 433 -127 q 454 -173 433 -173 l 454 -173 l 465 -173 l 465 -138 l 433 -104 l 401 -104 l 370 -138 l 370 -197 l 275 -197 l 275 -173 l 264 -173 l 254 -184 l 243 -184 l 212 -173 l 159 -208 l 149 -208 l 117 -184 l 106 -184 l 85 -208 l 75 -197 l 22 -208 l 12 -197 l 1 -197 l -41 -208 q 14 -156 14 -203 l 14 -156 l -7 -156 q -28 -203 -7 -203 l -28 -203 l -49 -203 l -49 -214 l -92 -203 q -60 -75 -81 -75 l -60 -75 l -70 -63 l -70 -52 l -49 87 l -60 87 l -67 -123 l -22 1080 l -52 640 l -30 640 l -30 651 l -52 651 l -41 663 l -52 674 l -52 686 l -41 697 l -41 709 l -52 709 l -20 825 l -30 837 l -20 837 l -30 848 l -30 860 l -20 871 l -20 883 l -30 883 l -9 976 l -20 976 q 22 1162 8 1162 l 22 1162 l 12 1174 z m 328 1127 l 317 1139 l 317 1127 l 328 1116 l 338 1116 l 349 1127 l 349 1139 l 338 1139 l 328 1127 z m 33 1104 l 12 1081 l 43 1069 l 33 1104 z m 380 1069 l 370 1069 l 349 1034 l 359 1034 l 380 1069 z m 54 1023 l 43 1023 l 33 1011 l 33 988 l 43 988 l 54 1023 z m 370 814 l 359 814 l 349 779 l 359 779 l 370 790 l 370 814 z m 127 779 l 127 779 q 159 732 143 732 l 159 732 q 127 779 143 779 z m 243 779 l 233 779 l 233 755 l 243 744 l 222 721 l 222 697 l 243 674 l 243 697 l 233 732 l 243 721 l 275 721 l 275 732 l 243 732 l 254 744 l 243 779 z m 12 709 l 1 709 l 12 674 l 22 674 l 22 697 l 12 709 z m 444 524 l 433 524 l 444 488 l 454 488 l 454 511 l 444 524 z m 454 454 l 454 454 l 454 442 l 496 407 q 454 454 489 442 z m 507 210 l 486 210 l 486 175 l 507 198 l 507 210 z m 401 140 l 391 140 l 380 105 q 412 59 412 105 l 412 59 l 422 59 l 422 105 q 401 140 401 105 l 401 140 z m 391 -68 l 370 -45 l 370 -57 l 391 -80 l 391 -68 z m 1 -138 l -20 -161 l -9 -173 l 12 -173 l 12 -138 l 1 -138 z m 939 -150 l 853 -132 l 874 -155 l 853 -178 l 939 -173 l 939 -150 z m 812 -161 l 833 -138 l 854 -161 l 854 -184 l 812 -184 l 812 -161 z m 749 -173 l 770 -150 l 791 -150 l 791 -173 l 781 -184 l 781 -197 l 749 -184 l 749 -173 z m 633 -197 l 633 -161 l 665 -161 l 665 -197 l 633 -197 z "},"4":{"ha":950,"x_min":-355,"x_max":940,"o":"m 843 1221 l 858 1240 q 918 1212 858 1217 l 918 1212 l 940 1221 l 940 1212 l 931 850 l 924 850 l 931 840 l 924 794 l 909 203 l 902 193 l 909 193 l 902 184 l 902 175 l 895 -176 l 880 -231 l -49 -185 l -56 -176 l -56 -231 l -64 -231 l -64 -222 l -41 360 l -34 369 l -41 369 l -34 378 l -34 387 l -19 914 l -12 924 l -19 924 l -12 951 l -4 1229 l 18 1238 l 189 1217 l 189 1208 l 249 1227 l 256 1217 l 836 1230 l 843 1221 z m -116 1254 l -191 1254 l -191 1244 l -116 1244 l -116 1254 z m 52 1244 l -4 1244 l -4 1236 l 52 1236 l 52 1244 z m -108 1039 l -110 993 l -100 992 l -98 1038 l -108 1039 z m 640 1217 l 231 1250 l 231 1241 l 640 1208 l 640 1217 z m 818 1208 l 771 1208 l 771 1198 l 818 1198 l 818 1208 z m 901 1198 l 864 1198 l 864 1189 l 901 1189 l 901 1198 z m 378 984 l 316 551 l 645 518 l 656 500 l 627 163 l 754 153 l 831 960 l 819 943 l 711 949 q 666 646 693 644 l 666 646 l 455 659 l 493 964 l 480 977 l 378 984 z m -229 869 l -229 915 l -211 915 l -201 906 l -192 906 l -229 703 l -239 703 l -239 749 l -229 785 l -239 813 l -229 813 l -239 823 l -229 869 z m -345 183 l -336 267 l -326 267 l -326 258 l -336 -1 l -345 -1 l -345 183 z m -355 -158 l -355 -28 l -345 -28 l -345 -158 l -355 -158 z "},"5":{"ha":876,"x_min":-30,"x_max":1616,"o":"m 407 1120 l 196 1120 l 72 1123 l 77 1124 l 283 1124 l 284 979 l 568 980 l 566 1120 q 407 1120 568 1114 l 407 1120 z m 357 1232 l 403 1221 l 538 1221 l 547 1212 l 556 1221 l 610 1221 l 619 1212 l 619 1221 l 628 1221 l 637 1212 l 844 1212 q 871 1135 862 1212 l 871 1135 l 862 1135 l 871 1126 l 880 616 l 889 577 l 880 568 l 889 557 l 889 356 l 880 -134 l 880 -144 l 556 -182 l 547 -182 l 556 -173 l 556 -163 l 547 -154 l 547 -87 l 538 -39 l 547 -28 l 538 28 l 529 28 l 529 -39 l 538 -96 l 529 -96 l 484 -58 l 466 -58 q 403 -144 403 -58 l 403 -144 l 403 -182 l 412 -193 l 403 -193 l 403 -212 l 250 -231 l 258 -173 q 168 -77 258 -99 l 168 -77 q 87 -163 99 -77 l 87 -163 l 87 -182 l 105 -260 l 60 -269 l 42 -269 l 33 -221 l -30 1232 l 304 1232 l 313 1221 l 321 1232 l 349 1232 l 357 1221 l 357 1232 z m 692 491 q 404 809 692 809 l 404 809 l 284 795 l 286 1122 q 60 1130 85 1118 l 60 1130 l 60 838 l 60 826 l 52 814 l 52 625 l 415 625 l 415 342 l 382 296 l 374 296 q 316 342 330 296 l 316 342 l 316 555 l 52 555 l 52 496 q 68 342 52 396 l 68 342 q 366 130 120 130 l 366 130 l 522 154 q 687 425 687 243 l 687 425 l 692 491 z m 466 -67 q 538 -125 502 -67 l 538 -125 l 538 -193 l 420 -202 l 420 -134 l 412 -125 q 466 -67 442 -67 l 466 -67 z m 159 -87 q 241 -193 241 -87 l 241 -193 l 241 -212 q 123 -250 241 -246 l 123 -250 q 96 -182 96 -228 l 96 -182 q 159 -87 96 -87 l 159 -87 z m 382 1247 l 371 1247 l 360 1238 l 360 1220 l 371 1220 l 393 1238 l 382 1247 z m 189 1229 l 167 1211 l 178 1201 l 199 1201 l 199 1229 l 189 1229 z m 478 1192 l 457 1173 l 457 1164 l 478 1164 l 478 1192 z m 1241 1183 l 1219 1164 l 1230 1155 l 1241 1155 l 1251 1164 l 1251 1183 l 1241 1183 z m 285 1173 l 275 1173 l 264 1164 l 264 1145 l 275 1145 l 296 1164 l 285 1173 z m 768 1145 l 747 1127 l 747 1118 l 768 1137 l 768 1145 z m 564 1137 l 543 1118 l 575 1118 l 575 1137 l 564 1137 z m 382 1118 l 360 1118 l 360 1090 l 382 1109 l 382 1118 z m 1337 1118 l 1316 1099 l 1326 1090 l 1337 1090 l 1348 1099 l 1348 1118 l 1337 1118 z m 189 1099 l 167 1099 l 167 1072 l 189 1090 l 189 1099 z m 865 1090 l 854 1090 l 844 1081 l 844 1072 l 854 1062 l 865 1062 l 876 1072 l 876 1081 l 865 1090 z m 661 1081 l 640 1062 l 650 1053 l 661 1053 l 661 1081 z m 1080 1081 l 1048 1081 l 1069 1062 l 1080 1072 l 1080 1081 z m 468 1072 l 446 1053 l 446 1044 l 468 1062 l 468 1072 z m 1251 1072 l 1230 1072 l 1230 1044 l 1251 1044 l 1251 1072 z m 275 1053 l 253 1034 l 253 1025 l 275 1044 l 275 1053 z m 1444 1034 l 1423 1053 l 1413 1044 l 1413 1025 l 1444 1025 l 1444 1034 z m 81 1034 l 60 1016 l 60 1006 l 71 1006 l 92 1025 l 92 1034 l 81 1034 z m 758 1025 l 736 1006 l 747 998 l 758 998 l 758 1025 z m 972 1025 l 940 1025 l 962 1006 l 972 1016 l 972 1025 z m 1166 1025 l 1155 1025 l 1155 1006 l 1187 1006 l 1166 1025 z m 553 1016 l 532 998 l 564 998 l 564 1016 l 553 1016 z m 167 988 l 146 970 l 146 960 l 167 979 l 167 988 z m 1541 979 l 1509 979 l 1509 970 l 1531 951 l 1541 960 l 1541 979 z m 1069 970 l 1048 951 l 1080 951 l 1080 970 l 1069 970 z m 650 960 l 629 942 l 640 932 l 650 932 l 661 942 l 661 960 l 650 960 z m 446 951 l 425 932 l 435 923 l 446 923 l 457 932 l 457 951 l 446 951 z m 253 942 l 242 942 l 231 932 l 231 914 l 242 914 l 264 932 l 253 942 z m 71 923 l 38 923 l 38 905 l 71 905 l 71 923 z m 1434 905 l 1413 923 l 1402 914 l 1402 895 l 1434 895 l 1434 905 z m 1187 895 l 1166 914 l 1166 886 l 1187 886 l 1187 895 z m 758 905 l 736 886 l 736 877 l 758 877 l 758 905 z m 543 895 l 522 877 l 522 867 l 553 867 l 553 895 l 543 895 z m 146 877 l 124 859 l 124 849 l 146 849 l 146 877 z m 650 840 l 640 840 l 629 831 l 629 812 l 640 812 l 661 831 l 650 840 z m 854 840 l 833 821 l 865 821 l 865 840 l 854 840 z m 1305 840 l 1273 840 l 1295 821 l 1305 831 l 1305 840 z m 435 831 l 414 812 l 425 803 l 446 803 l 446 831 l 435 831 z m 242 821 l 210 821 l 210 803 l 242 803 l 242 821 z m 38 812 l 17 793 l 17 785 l 38 803 l 38 812 z m 1198 775 l 1177 793 l 1166 785 l 1166 766 l 1198 766 l 1198 775 z m 983 785 l 951 785 l 951 757 l 962 757 l 983 775 l 983 785 z m 758 775 l 736 775 l 736 747 l 747 747 l 768 766 l 758 775 z m 124 766 l 113 766 l 102 757 l 102 738 l 113 738 l 135 757 l 124 766 z m 553 766 l 522 766 l 522 747 l 553 747 l 553 766 z m 1090 710 l 1069 729 l 1058 720 l 1058 701 l 1090 701 l 1090 710 z m 1316 720 l 1284 720 l 1284 701 l 1316 701 l 1316 720 z m 220 710 l 210 710 l 199 701 l 199 682 l 210 682 l 231 701 l 220 710 z m 425 682 l 414 682 l 425 682 z m 650 710 l 629 710 l 629 682 l 640 682 l 661 701 l 650 710 z m 876 710 l 844 710 l 844 682 l 865 682 l 876 710 z m 1208 646 l 1187 664 l 1177 654 l 1177 646 l 1198 627 l 1208 636 l 1208 646 z m 317 654 l 307 654 l 296 646 l 296 627 l 307 627 l 328 646 l 317 654 z m 543 636 l 522 654 l 511 646 l 511 636 l 522 627 l 543 627 l 543 636 z m 972 654 l 951 636 l 951 627 l 983 627 l 983 654 l 972 654 z m 102 646 l 81 627 l 81 618 l 92 618 l 113 636 l 113 646 l 102 646 z m 768 646 l 736 646 l 736 627 l 747 627 l 768 646 z m 414 599 l 393 581 l 393 571 l 425 571 l 425 599 l 414 599 z m 650 599 l 618 599 l 618 590 l 640 571 l 650 581 l 650 599 z m 865 599 l 833 590 l 854 571 l 876 590 l 865 599 z m 210 590 l 189 590 l 189 571 l 210 553 l 220 581 l 210 590 z m 1101 590 l 1069 590 l 1069 581 l 1090 562 l 1101 571 l 1101 590 z m 1326 590 l 1295 590 l 1295 562 l 1326 562 l 1326 590 z m 522 534 l 511 534 l 511 515 l 532 497 l 543 507 l 543 515 l 522 534 z m 758 534 l 726 534 l 726 525 l 747 507 l 758 507 l 758 534 z m 962 534 l 951 534 l 951 507 l 983 507 l 983 515 l 962 534 z m 328 507 l 307 525 l 296 515 l 296 507 l 317 488 l 328 497 l 328 507 z m 1198 525 l 1177 507 l 1177 497 l 1208 497 l 1208 525 l 1198 525 z m 124 497 l 102 515 l 92 507 l 92 479 l 102 479 l 124 497 z m 854 469 l 844 469 l 844 451 l 865 433 l 876 441 l 876 451 l 854 469 z m 425 460 l 404 441 l 425 423 l 435 423 l 446 451 l 435 460 l 425 460 z m 640 460 l 618 441 l 629 433 l 640 433 l 661 451 l 650 460 l 640 460 z m 1090 460 l 1058 460 l 1058 451 l 1080 433 l 1090 441 l 1090 460 z m 220 451 l 199 433 l 199 423 l 231 423 l 231 451 l 220 451 z m 1316 451 l 1284 451 l 1284 423 l 1295 423 l 1316 441 l 1316 451 z m 27 433 l 6 433 l 6 423 l 27 405 l 27 433 z m 532 395 l 522 395 l 511 368 l 522 358 l 553 368 l 553 377 l 532 395 z m 768 395 l 736 395 l 736 368 l 768 368 l 768 395 z m 983 395 l 951 395 l 951 368 l 983 368 l 983 395 z m 1177 395 l 1166 395 l 1166 358 l 1177 358 l 1198 377 l 1177 395 z m 339 386 l 307 386 l 307 358 l 317 358 l 339 377 l 339 386 z m 135 368 l 113 368 l 113 340 l 135 340 l 135 368 z m 650 330 l 618 321 l 629 294 l 640 294 l 661 312 l 650 321 l 650 330 z m 854 330 l 844 330 l 844 312 l 865 294 l 876 302 l 876 312 l 854 330 z m 425 321 l 404 302 l 414 294 l 435 294 l 435 321 l 425 321 z m 1090 321 l 1058 321 l 1058 294 l 1069 294 l 1090 312 l 1090 321 z m 1295 302 l 1273 321 l 1262 312 l 1262 284 l 1273 284 l 1295 302 z m 242 294 l 220 312 l 210 302 l 210 294 l 231 275 l 242 284 l 242 294 z m 60 294 l 27 294 l 27 266 l 38 266 l 60 284 l 60 294 z m 532 256 l 511 238 l 522 229 l 532 229 l 553 247 l 543 256 l 532 256 z m 768 256 l 736 256 l 736 229 l 768 229 l 768 256 z m 983 256 l 951 256 l 951 229 l 983 229 l 983 256 z m 328 247 l 317 247 l 317 229 l 339 210 l 349 219 l 349 229 l 328 247 z m 1187 247 l 1155 247 l 1155 219 l 1187 219 l 1187 247 z m 156 219 l 135 238 l 124 229 l 124 201 l 135 201 l 156 219 z m 661 173 l 640 191 l 629 182 l 629 155 l 661 155 l 661 173 z m 865 191 l 844 173 l 865 155 l 876 155 l 876 191 l 865 191 z m 435 182 l 414 163 l 425 155 l 446 155 l 446 182 l 435 182 z m 1090 182 l 1058 182 l 1058 173 l 1080 155 l 1090 155 l 1090 182 z m 242 173 l 220 155 l 220 145 l 253 145 l 253 173 l 242 173 z m 1262 173 l 1251 173 l 1251 145 l 1284 145 l 1284 155 l 1262 173 z m 553 99 l 532 117 l 522 108 l 522 99 l 543 80 l 553 80 l 553 99 z m 758 117 l 736 99 l 758 80 l 768 80 l 779 108 l 768 117 l 758 117 z m 972 117 l 951 99 l 962 90 l 994 90 l 994 99 l 972 117 z m 339 108 l 317 90 l 339 71 l 349 80 l 349 108 l 339 108 z m 1187 108 l 1166 108 l 1166 80 l 1198 80 l 1187 108 z m 1370 99 l 1348 99 l 1348 71 l 1370 71 l 1370 99 z m 156 90 l 135 90 l 135 80 l 156 62 l 156 90 z m 27 80 l 6 62 l 6 53 l 27 53 l 27 80 z m 446 43 l 425 25 l 425 6 l 446 6 l 446 43 z m 650 43 l 629 25 l 640 16 l 671 16 l 671 25 l 650 43 z m 865 43 l 844 25 l 854 16 l 886 16 l 886 43 l 865 43 z m 1101 43 l 1069 43 l 1069 16 l 1101 16 l 1101 43 z m 253 16 l 231 34 l 220 25 l 220 16 l 242 -3 l 253 6 l 253 16 z m 1284 34 l 1262 16 l 1273 6 l 1295 6 l 1295 34 l 1284 34 z m 102 16 l 81 -3 l 81 -12 l 102 -12 l 102 16 z m 994 -40 l 972 -21 l 962 -31 l 962 -58 l 994 -58 l 994 -40 z m 349 -49 l 328 -31 l 317 -40 l 317 -68 l 328 -68 l 349 -49 z m 543 -31 l 522 -49 l 532 -58 l 543 -58 l 564 -40 l 553 -31 l 543 -31 z m 758 -31 l 736 -49 l 747 -58 l 779 -58 l 779 -49 l 758 -31 z m 1198 -31 l 1177 -31 l 1177 -49 l 1198 -68 l 1208 -40 l 1198 -31 z m 1391 -40 l 1370 -40 l 1370 -68 l 1391 -68 l 1391 -40 z m 178 -49 l 156 -49 l 156 -77 l 178 -77 l 178 -49 z m 27 -58 l 6 -77 l 6 -86 l 27 -86 l 27 -58 z m 886 -114 l 865 -96 l 854 -104 l 854 -132 l 865 -132 l 886 -114 z m 1101 -114 l 1080 -96 l 1069 -104 l 1069 -114 l 1090 -132 l 1101 -132 l 1101 -114 z m 435 -104 l 414 -123 l 425 -132 l 435 -132 l 457 -114 l 446 -104 l 435 -104 z m 671 -104 l 629 -104 l 629 -114 l 650 -132 l 671 -114 l 671 -104 z m 1305 -123 l 1284 -104 l 1273 -114 l 1273 -123 l 1295 -142 l 1305 -132 l 1305 -123 z m 81 -114 l 60 -132 l 60 -142 l 81 -142 l 81 -114 z m 242 -114 l 220 -132 l 231 -142 l 242 -142 l 253 -132 l 253 -114 l 242 -114 z m 758 -170 l 747 -170 l 736 -197 l 747 -206 l 758 -206 l 779 -188 l 758 -170 z m 994 -188 l 972 -170 l 962 -178 l 962 -206 l 994 -206 l 994 -188 z m 349 -197 l 328 -178 l 317 -188 l 317 -197 l 339 -216 l 349 -206 l 349 -197 z m 564 -178 l 522 -178 l 522 -188 l 543 -206 l 564 -188 l 564 -178 z m 1208 -178 l 1177 -178 l 1177 -206 l 1208 -206 l 1208 -178 z m 1402 -197 l 1380 -178 l 1380 -206 l 1402 -206 l 1402 -197 z m 156 -188 l 135 -188 l 135 -216 l 146 -216 l 167 -197 l 156 -188 z m 650 -243 l 640 -243 l 640 -271 l 671 -271 l 671 -262 l 650 -243 z m 1101 -262 l 1080 -243 l 1069 -253 l 1069 -262 l 1090 -281 l 1101 -271 l 1101 -262 z m 1305 -253 l 1273 -253 l 1273 -281 l 1284 -281 l 1305 -262 l 1305 -253 z m 1576 823 l 1576 827 l 1582 827 l 1582 826 l 1576 823 z m 1615 825 l 1615 824 l 1609 821 l 1606 821 l 1607 825 l 1615 825 z m 1610 774 l 1609 779 l 1616 776 l 1613 774 l 1610 774 z m 189 41 l 184 98 l 263 99 l 286 54 l 267 42 l 189 41 z m 644 679 l 612 670 l 623 642 l 633 642 l 655 661 l 644 670 l 644 679 z m 848 679 l 838 679 l 838 661 l 859 642 l 869 651 l 869 661 l 848 679 z m 418 670 l 397 651 l 408 642 l 429 642 l 429 670 l 418 670 z m 1084 670 l 1052 670 l 1052 642 l 1063 642 l 1084 661 l 1084 670 z m 1289 651 l 1267 670 l 1256 661 l 1256 633 l 1267 633 l 1289 651 z m 236 642 l 214 661 l 204 651 l 204 642 l 225 623 l 236 633 l 236 642 z m 54 642 l 21 642 l 21 614 l 32 614 l 54 633 l 54 642 z m 526 605 l 505 587 l 515 577 l 526 577 l 547 595 l 536 605 l 526 605 z m 762 605 l 730 605 l 730 577 l 762 577 l 762 605 z m 977 605 l 945 605 l 945 577 l 977 577 l 977 605 z m 322 595 l 311 595 l 311 577 l 333 559 l 343 568 l 343 577 l 322 595 z m 1181 595 l 1149 595 l 1149 568 l 1181 568 l 1181 595 z m 150 568 l 129 587 l 118 577 l 118 549 l 129 549 l 150 568 z m 655 522 l 633 540 l 623 531 l 623 503 l 655 503 l 655 522 z m 859 540 l 838 522 l 859 503 l 869 503 l 869 540 l 859 540 z m 429 531 l 408 512 l 418 503 l 440 503 l 440 531 l 429 531 z m 1084 531 l 1052 531 l 1052 522 l 1074 503 l 1084 503 l 1084 531 z m 236 522 l 214 503 l 214 494 l 247 494 l 247 522 l 236 522 z m 1256 522 l 1245 522 l 1245 494 l 1278 494 l 1278 503 l 1256 522 z m 547 448 l 526 466 l 515 457 l 515 448 l 536 429 l 547 429 l 547 448 z m 751 466 l 730 448 l 751 429 l 762 429 l 773 457 l 762 466 l 751 466 z m 966 466 l 945 448 l 956 438 l 987 438 l 987 448 l 966 466 z m 333 457 l 311 438 l 333 420 l 343 429 l 343 457 l 333 457 z m 1181 457 l 1160 457 l 1160 429 l 1192 429 l 1181 457 z m 150 438 l 129 438 l 129 429 l 150 410 l 150 438 z m 21 429 l 0 410 l 0 401 l 21 401 l 21 429 z m 440 392 l 418 374 l 418 355 l 440 355 l 440 392 z m 644 392 l 623 374 l 633 364 l 665 364 l 665 374 l 644 392 z m 859 392 l 838 374 l 848 364 l 880 364 l 880 392 l 859 392 z m 1095 392 l 1063 392 l 1063 364 l 1095 364 l 1095 392 z m 247 364 l 225 382 l 214 374 l 214 364 l 236 346 l 247 355 l 247 364 z m 1278 382 l 1256 364 l 1267 355 l 1289 355 l 1289 382 l 1278 382 z m 96 364 l 75 346 l 75 336 l 96 336 l 96 364 z m 987 309 l 966 327 l 956 318 l 956 290 l 987 290 l 987 309 z m 343 299 l 322 318 l 311 309 l 311 281 l 322 281 l 343 299 z m 536 318 l 515 299 l 526 290 l 536 290 l 558 309 l 547 318 l 536 318 z m 751 318 l 730 299 l 741 290 l 773 290 l 773 299 l 751 318 z m 1192 318 l 1171 318 l 1171 299 l 1192 281 l 1202 309 l 1192 318 z m 172 299 l 150 299 l 150 271 l 172 271 l 172 299 z m 21 290 l 0 271 l 0 262 l 21 262 l 21 290 z m 880 235 l 859 253 l 848 243 l 848 216 l 859 216 l 880 235 z m 1095 235 l 1074 253 l 1063 243 l 1063 235 l 1084 216 l 1095 216 l 1095 235 z m 429 243 l 408 225 l 418 216 l 429 216 l 451 235 l 440 243 l 429 243 z m 665 243 l 623 243 l 623 235 l 644 216 l 665 235 l 665 243 z m 1299 225 l 1278 243 l 1267 235 l 1267 225 l 1289 207 l 1299 216 l 1299 225 z m 75 235 l 54 216 l 54 207 l 75 207 l 75 235 z m 236 235 l 214 216 l 225 207 l 236 207 l 247 216 l 247 235 l 236 235 z m 751 179 l 741 179 l 730 151 l 741 142 l 751 142 l 773 160 l 751 179 z m 987 160 l 966 179 l 956 170 l 956 142 l 987 142 l 987 160 z m 343 151 l 322 170 l 311 160 l 311 151 l 333 132 l 343 142 l 343 151 z m 558 170 l 515 170 l 515 160 l 536 142 l 558 160 l 558 170 z m 1202 170 l 1171 170 l 1171 142 l 1202 142 l 1202 170 z m 150 160 l 129 160 l 129 132 l 140 132 l 161 151 l 150 160 z m 644 104 l 633 104 l 633 77 l 665 77 l 665 86 l 644 104 z m 1095 86 l 1074 104 l 1063 96 l 1063 86 l 1084 68 l 1095 77 l 1095 86 z m 1299 96 l 1267 96 l 1267 68 l 1278 68 l 1299 86 l 1299 96 z m 174 613 l 169 670 l 248 671 l 271 627 l 252 615 l 174 613 z m 629 1252 l 597 1242 l 608 1215 l 618 1215 l 640 1233 l 629 1242 l 629 1252 z m 833 1252 l 822 1252 l 822 1233 l 844 1215 l 854 1224 l 854 1233 l 833 1252 z m 404 1242 l 382 1224 l 393 1215 l 414 1215 l 414 1242 l 404 1242 z m 1069 1242 l 1037 1242 l 1037 1215 l 1048 1215 l 1069 1233 l 1069 1242 z m 1273 1224 l 1252 1242 l 1241 1233 l 1241 1205 l 1252 1205 l 1273 1224 z m 221 1215 l 199 1233 l 189 1224 l 189 1215 l 210 1196 l 221 1205 l 221 1215 z m 38 1215 l 6 1215 l 6 1187 l 17 1187 l 38 1205 l 38 1215 z m 511 1177 l 489 1159 l 500 1149 l 511 1149 l 532 1168 l 522 1177 l 511 1177 z m 747 1177 l 715 1177 l 715 1149 l 747 1149 l 747 1177 z m 962 1177 l 930 1177 l 930 1149 l 962 1149 l 962 1177 z m 307 1168 l 296 1168 l 296 1149 l 317 1131 l 328 1141 l 328 1149 l 307 1168 z m 1166 1168 l 1134 1168 l 1134 1141 l 1166 1141 l 1166 1168 z m 135 1141 l 113 1159 l 102 1149 l 102 1122 l 113 1122 l 135 1141 z m 640 1094 l 618 1113 l 608 1103 l 608 1076 l 640 1076 l 640 1094 z m 844 1113 l 822 1094 l 844 1076 l 854 1076 l 854 1113 l 844 1113 z m 414 1103 l 393 1085 l 404 1076 l 425 1076 l 425 1103 l 414 1103 z m 1069 1103 l 1037 1103 l 1037 1094 l 1059 1076 l 1069 1076 l 1069 1103 z m 221 1094 l 199 1076 l 199 1067 l 231 1067 l 231 1094 l 221 1094 z m 1241 1094 l 1230 1094 l 1230 1067 l 1263 1067 l 1263 1076 l 1241 1094 z m 532 1020 l 511 1039 l 500 1029 l 500 1020 l 522 1002 l 532 1002 l 532 1020 z m 736 1039 l 715 1020 l 736 1002 l 747 1002 l 758 1029 l 747 1039 l 736 1039 z m 951 1039 l 930 1020 l 941 1011 l 972 1011 l 972 1020 l 951 1039 z m 317 1029 l 296 1011 l 317 992 l 328 1002 l 328 1029 l 317 1029 z m 1166 1029 l 1144 1029 l 1144 1002 l 1177 1002 l 1166 1029 z m 135 1011 l 113 1011 l 113 1002 l 135 983 l 135 1011 z m 6 1002 l -15 983 l -15 974 l 6 974 l 6 1002 z m 425 964 l 404 946 l 404 928 l 425 928 l 425 964 z m 629 964 l 608 946 l 618 937 l 650 937 l 650 946 l 629 964 z m 844 964 l 822 946 l 833 937 l 865 937 l 865 964 l 844 964 z m 1080 964 l 1048 964 l 1048 937 l 1080 937 l 1080 964 z m 231 937 l 210 956 l 199 946 l 199 937 l 221 918 l 231 928 l 231 937 z m 1263 956 l 1241 937 l 1252 928 l 1273 928 l 1273 956 l 1263 956 z m 81 937 l 60 918 l 60 909 l 81 909 l 81 937 z m 972 881 l 951 900 l 941 890 l 972 881 z m 522 890 l 500 872 l 511 863 l 522 863 l 543 881 l 532 890 l 522 890 z m 736 890 l 715 872 l 726 863 l 758 863 l 758 872 l 736 890 z m 1177 890 l 1155 890 l 1155 872 l 1177 853 l 1187 881 l 1177 890 z m 157 872 l 135 872 l 135 844 l 157 844 l 157 872 z m 6 863 l -15 844 l -15 835 l 6 835 l 6 863 z m 865 807 l 844 825 l 833 817 l 833 789 l 844 789 l 865 807 z m 1080 807 l 1059 825 l 1048 817 l 1048 807 l 1069 789 l 1080 789 l 1080 807 z m 414 817 l 393 798 l 404 789 l 414 789 l 435 807 l 425 817 l 414 817 z m 650 817 l 608 817 l 608 807 l 629 789 l 650 807 l 650 817 z m 1284 798 l 1263 817 l 1252 807 l 1252 798 l 1273 779 l 1284 789 l 1284 798 z m 60 807 l 38 789 l 38 779 l 60 779 l 60 807 z m 221 807 l 199 789 l 210 779 l 221 779 l 231 789 l 231 807 l 221 807 z m 736 751 l 726 751 l 715 724 l 726 714 l 736 714 l 758 733 l 736 751 z m 972 733 l 951 751 l 941 742 l 941 714 l 972 714 l 972 733 z m 543 742 l 500 742 l 500 733 l 522 714 l 543 733 l 543 742 z m 1187 742 l 1155 742 l 1155 714 l 1187 714 l 1187 742 z m 135 733 l 113 733 l 113 705 l 124 705 l 146 724 l 135 733 z m 629 677 l 618 677 l 618 650 l 650 650 l 650 659 l 629 677 z m 1080 659 l 1059 677 l 1048 668 l 1048 659 l 1069 640 l 1080 650 l 1080 659 z m 1284 668 l 1252 668 l 1252 640 l 1263 640 l 1284 659 l 1284 668 z "},"6":{"ha":772,"x_min":0,"x_max":722,"o":"m 24 1183 l 24 1192 l 32 1183 l 40 1183 l 609 1166 q 722 1115 660 1166 l 722 1115 l 722 1004 l 713 996 l 722 987 l 713 944 l 713 765 l 705 705 l 713 705 l 705 696 l 705 458 l 713 415 l 705 415 l 713 407 l 713 398 l 705 390 l 713 381 l 713 373 l 705 364 l 713 321 l 713 117 l 705 109 l 713 100 l 713 31 l 705 23 l 713 14 l 713 6 l 705 -2 l 713 -11 l 713 -20 l 705 -28 l 705 -37 l 713 -37 l 705 -45 l 705 -164 l 697 -207 l 641 -207 l 633 -216 l 625 -207 l 313 -233 l 296 -216 l 248 -233 l 241 -233 l 241 -224 q 264 -207 241 -207 l 264 -207 l 264 -199 q 160 -147 160 -167 l 160 -147 l 136 -156 l 64 -147 l 8 -156 l 0 -147 l 0 49 l 8 83 l 0 91 l 0 100 l 8 109 l 8 134 l 0 134 l 8 193 l 8 245 l 0 288 l 8 338 l 8 373 l 0 381 l 8 390 l 8 407 l 0 415 l 8 424 l 8 517 l 0 526 l 8 534 l 8 577 l 0 612 q 16 791 16 656 l 16 791 l 16 1063 l 24 1098 l 16 1132 l 16 1175 l 24 1183 z m 112 782 l 112 782 l 120 748 l 120 714 l 112 714 l 112 757 q 72 654 93 757 l 72 654 l 88 654 l 80 586 l 72 586 l 72 603 l 64 603 l 56 526 l 64 500 l 80 500 q 146 524 123 521 l 146 524 l 96 603 l 96 654 l 104 654 l 112 646 l 120 646 l 136 696 l 128 705 l 153 714 l 144 722 l 144 731 l 153 765 l 160 765 l 160 731 q 321 840 216 814 l 321 840 l 321 845 l 336 845 l 336 840 q 563 737 490 857 l 563 737 l 600 789 q 361 919 543 916 l 361 919 q 112 782 185 919 z m 288 629 l 281 629 l 273 561 l 296 561 l 296 569 l 288 629 z m 329 629 l 304 629 l 304 569 l 329 569 l 329 629 z m 353 629 l 336 629 l 336 561 q 473 441 438 568 l 473 441 l 473 185 q 353 -37 473 -5 l 353 -37 l 304 -37 q 200 57 236 -37 l 200 57 l 193 57 q 153 23 193 23 l 153 23 l 153 -2 l 248 -54 l 273 -45 l 304 -54 l 313 -45 l 321 -45 l 361 -54 q 569 100 473 -54 l 569 100 q 609 288 609 216 l 609 288 q 425 612 609 515 l 425 612 l 401 620 l 401 595 l 393 595 q 353 629 393 629 l 353 629 z m 279 631 l 227 612 l 200 603 l 136 543 l 144 534 l 144 526 q 88 458 109 526 l 88 458 l 80 458 l 119 519 l 56 492 l 48 450 l 48 433 l 56 424 l 56 415 l 48 407 l 64 390 l 48 364 l 61 171 l 72 134 l 110 41 l 151 -4 l 144 40 q 153 31 125 85 l 153 31 l 160 31 l 193 83 q 184 202 193 142 l 184 202 l 176 390 l 176 385 l 193 484 l 168 484 l 168 492 q 193 485 184 492 l 193 485 l 191 483 q 268 564 264 562 l 268 564 l 279 631 z m 353 624 l 353 620 l 376 620 l 376 603 l 353 624 z m 153 517 l 168 534 l 168 492 l 153 509 l 153 517 z m 88 -233 l 88 -199 l 112 -199 l 112 -233 l 88 -233 z m 168 -233 l 168 -207 l 184 -207 l 200 -224 l 200 -233 l 168 -233 z "},"7":{"ha":981,"x_min":-235,"x_max":948,"o":"m -47 -186 l 24 1234 l 35 1237 q 816 1196 347 1237 l 816 1196 l 806 798 l 794 785 l 806 772 l 806 734 l 794 721 l 794 708 l 806 708 l 794 695 l 794 425 l 783 412 l 783 399 l 794 399 l 783 386 l 783 -14 l 770 -271 l 851 -257 l 863 -244 l 863 -231 l 851 -231 l 827 -257 l 803 -257 l 791 -244 l 755 -257 l 272 -205 l 272 -218 l 260 -205 l 91 -205 l 79 -193 l 67 -193 l 55 -205 l 43 -193 l 43 -205 l 31 -193 l -5 -193 l -17 -205 l -29 -193 l -222 -193 l -235 -180 l -47 -186 z m 689 1172 l 689 1172 l 689 1159 l 715 1133 l 728 1146 l 857 1120 l 922 1133 l 935 1120 l 948 1120 l 948 1133 q 689 1172 948 1172 z m -7 81 l 15 745 l 2 732 l 15 719 l 2 628 l 2 317 l -10 304 l -10 292 l 2 279 l -10 265 l 2 265 l -10 252 l -1 84 l 292 90 l 539 510 q 520 486 391 -32 l 520 486 q 805 1055 744 897 l 805 1055 l 779 1055 l 816 1050 l 136 1055 l 132 859 q 420 852 131 852 l 420 852 l 140 313 l -1 88 l -7 81 z m 805 848 l 792 848 l 779 796 l 792 783 l 805 783 l 805 796 l 792 796 l 805 810 l 805 848 z m 805 706 l 766 719 l 766 706 l 779 667 q 741 706 741 667 l 741 706 q 792 680 708 706 l 792 680 l 805 693 l 805 706 z "},"8":{"ha":767,"x_min":-11,"x_max":793,"o":"m 65 1224 l 105 1232 l 110 1224 l 163 1232 l 578 1232 l 744 1224 l 753 1174 l 779 1191 l 793 1191 q 722 941 715 1199 l 722 941 l 730 873 l 730 857 q 722 781 722 840 l 722 781 l 717 781 l 722 773 l 708 -94 l 704 -220 l 494 -220 l 489 -211 l 485 -220 l 440 -211 l -1 -211 l -1 -178 l 3 -120 l -1 -69 l -11 665 l -6 673 l -11 673 l -6 698 l -1 1224 l 65 1224 z m 94 856 l 94 856 l 94 805 q 130 686 104 805 l 130 686 q 190 601 197 591 l 190 601 l 552 615 q 652 720 627 661 l 652 720 q 669 810 669 757 l 669 810 l 669 867 q 470 1140 669 1056 l 470 1140 l 412 1145 l 359 1145 q 112 918 186 1145 l 112 918 q 94 856 112 856 z m 391 1024 l 391 1024 q 515 909 515 1010 l 515 909 l 515 801 q 391 633 515 633 l 391 633 l 381 633 q 267 761 263 635 l 267 761 l 267 840 q 292 984 267 945 l 292 984 q 391 1024 337 1024 z m 60 332 l 60 332 l 60 273 q 100 136 71 273 l 100 136 q 382 -45 192 -45 l 382 -45 l 389 -45 q 684 175 604 -45 l 684 175 q 704 279 704 218 l 704 279 l 704 344 q 553 615 682 531 l 553 615 l 195 602 l 194 601 q 80 402 116 552 l 80 402 q 60 332 80 332 z m 392 523 l 392 523 q 531 393 531 507 l 531 393 l 531 268 q 392 76 531 76 l 392 76 l 381 76 q 253 222 253 76 l 253 222 l 253 313 q 281 477 253 433 l 281 477 q 392 523 332 523 z "},"9":{"ha":569,"x_min":-127,"x_max":610,"o":"m 591 835 l 591 947 l 610 947 l 610 835 l 591 835 z m -127 809 l -127 828 l -52 828 l -52 809 l -127 809 z m 608 71 l 608 71 l 591 -24 l 591 -51 l 556 -51 l 556 -9 q 608 71 567 71 z m 562 -134 l 562 -90 l 574 -90 l 574 -134 l 562 -134 z m 154 -161 l 166 -99 l 178 -99 q 240 -134 178 -134 l 240 -134 l 240 -117 l 264 -117 l 253 -178 l 264 -188 l 240 -188 l 240 -143 l 228 -143 l 216 -188 l 203 -188 l 203 -143 l 178 -143 l 178 -178 l 154 -178 l 154 -161 z m 277 -188 l 277 -134 l 302 -134 l 302 -170 l 277 -188 z m 389 -161 l 389 -134 l 401 -134 q 438 -161 401 -161 l 438 -161 l 438 -170 q 401 -197 401 -170 l 401 -197 l 376 -197 q 351 -170 376 -170 l 351 -170 l 351 -153 l 364 -161 l 389 -161 z m 488 -170 l 525 -143 l 562 -153 l 562 -170 l 550 -170 l 537 -161 l 525 -161 l 488 -170 z m -9 514 l -9 514 l -16 513 q 18 399 -7 513 l 18 399 q 298 252 92 243 l 298 252 l 148 99 q 216 35 202 42 l 216 35 q 549 517 545 317 l 549 517 l 549 571 q 353 828 549 749 l 353 828 l 295 833 l 243 833 q 1 619 73 833 l 1 619 q -9 514 -14 569 z m 275 719 l 275 719 q 397 611 397 706 l 397 611 l 397 509 q 275 350 397 350 l 275 350 l 265 350 q 153 471 153 350 l 153 471 l 153 546 q 177 681 153 644 l 177 681 q 275 719 222 719 z "}," ":{"ha":386,"x_min":null,"x_max":null,"o":""}," ":{"ha":386,"x_min":null,"x_max":null,"o":""},"!":{"ha":728,"x_min":9,"x_max":715,"o":"m 76 1173 l 667 1219 l 674 1211 l 666 1204 l 703 938 l 715 907 l 700 893 l 692 894 l 704 840 l 671 782 l 677 774 l 677 759 l 667 729 l 673 699 l 673 691 l 665 684 l 677 638 l 662 639 l 661 624 l 676 623 l 675 601 l 680 570 l 661 511 l 674 473 l 667 473 l 674 465 l 673 457 l 665 450 l 670 397 l 667 352 l 659 345 l 673 321 l 665 315 l 664 307 l 669 254 l 661 254 l 671 171 l 663 164 l 670 156 l 677 155 l 665 73 l 669 13 q 644 -23 656 14 l 644 -23 l 651 -31 l 659 -31 l 651 -39 l 650 -46 l 656 -69 l 649 -68 l 611 -74 l 612 -66 l 604 -73 l 536 -69 l 529 -61 l 521 -68 l 506 -67 l 498 -60 l 491 -66 l 378 -60 l 370 -66 l 363 -59 l 288 -54 l 258 -60 l 228 -51 l 220 -58 l 212 -57 l 213 -50 l 205 -57 l 168 -47 l 160 -47 l 152 -54 l 144 -53 l 145 -45 l 137 -53 l 122 -52 l 115 -44 l 107 -51 l 62 -48 l 55 -40 l 47 -39 l 39 -47 l 25 -31 l 24 -46 l 9 -45 l 24 195 l 28 383 l 35 383 l 28 391 l 31 429 l 39 435 l 39 443 l 32 444 l 39 450 l 43 639 l 47 692 l 68 1180 l 76 1173 z m 335 956 l 222 960 l 232 914 l 220 332 l 404 324 l 451 833 l 466 842 l 467 850 l 453 851 l 468 860 l 475 941 l 449 961 l 378 964 l 363 955 l 349 956 l 350 964 l 335 956 z m 396 252 l 184 251 l 176 169 l 189 159 l 174 151 l 174 142 l 186 132 l 186 123 l 172 123 l 183 96 l 409 87 l 421 214 l 408 224 l 409 233 l 424 241 l 410 251 l 396 252 z m 317 -199 l 317 -192 l 340 -193 l 354 -209 l 339 -208 l 317 -199 z "},"\"":{"ha":381,"x_min":-5,"x_max":417,"o":"m 80 1135 l 111 1126 l 111 1131 l 157 1121 l 152 1116 l 143 962 q 62 859 135 859 l 62 859 l 3 859 l 8 924 l 31 924 q 66 966 66 929 l 66 966 l 66 995 l 13 995 l 22 1135 l 44 1135 l 75 1131 l 80 1135 z m 417 1126 l 417 1103 l 413 1103 l 413 1126 l 417 1126 z m 210 1121 l 350 1116 l 345 1042 q 251 845 345 845 l 251 845 l 197 845 l 201 911 l 201 915 l 215 911 q 264 981 264 911 l 264 981 l 251 981 l 206 985 l 210 1079 l 210 1121 z m 408 981 l 408 958 l 404 958 l 404 981 l 408 981 z m 107 798 l 115 793 l 107 787 l 100 787 l 103 798 l 107 798 z m 197 793 l 197 785 l 182 785 l 182 793 l 197 793 z m 268 787 l 268 779 q 283 774 268 774 l 283 774 l 283 766 l 268 766 l 268 747 l 279 747 l 279 745 l 272 739 l 260 739 q 250 777 252 739 l 250 777 q 257 787 257 777 l 257 787 l 268 787 z m 32 787 l 43 777 l 39 777 l 39 774 l 43 771 l 43 768 l 39 766 l 43 766 l 39 763 l 39 760 l 43 758 l 43 749 l 36 749 l 28 755 l 17 752 l -1 755 l -1 763 l 9 771 l 28 771 l 28 777 l 24 779 l 6 777 l 2 777 l 2 779 q 32 787 5 787 l 32 787 z m 81 785 l 88 779 l 88 774 l 70 777 l 66 777 l 66 774 l 88 763 l 88 755 q 66 747 88 751 l 66 747 q 51 752 66 752 l 51 752 l 51 758 l 70 758 l 73 755 l 73 758 l 54 771 l 54 777 l 66 785 l 81 785 z m 152 782 l 171 768 l 171 763 q 144 745 171 745 l 144 745 l 137 745 q 122 760 122 749 l 122 760 q 152 782 122 782 l 152 782 z m 100 782 l 111 782 l 115 779 l 111 760 l 111 747 l 100 747 l 96 749 l 96 752 l 100 755 l 100 782 z m 189 779 l 197 774 l 197 768 l 193 766 l 197 766 l 193 763 l 197 760 l 197 758 l 193 755 l 193 742 l 186 742 l 178 747 l 178 758 l 182 760 l 178 760 l 182 779 l 186 777 l 189 779 z m 242 777 l 242 768 l 227 771 l 223 771 l 220 768 l 220 766 q 242 755 242 760 l 242 755 l 242 749 l 231 742 l 220 742 l 201 745 l 204 752 l 223 749 l 227 749 l 227 755 q 204 766 208 755 l 204 766 q 227 777 204 777 l 227 777 l 235 777 l 238 774 l 242 777 z m 156 771 l 144 774 l 133 760 l 137 752 l 149 752 l 156 758 l 156 771 z m 321 774 l 332 768 l 328 766 l 328 763 l 332 760 l 332 755 l 324 747 l 324 745 l 332 745 l 332 736 q 287 745 287 739 l 287 745 l 287 755 l 317 760 l 309 766 l 298 766 l 294 763 l 294 766 l 291 768 l 298 774 l 317 774 l 321 771 l 321 774 z m 28 766 l 14 766 l 14 763 l 21 758 l 24 758 l 28 766 z m 313 752 l 306 752 l 298 747 l 298 745 l 306 745 l 313 749 l 313 752 z m 32 709 l 39 704 l 39 699 l 28 699 l 28 709 l 32 709 z m -5 709 l 9 709 l 14 707 l 6 701 l -5 701 l -1 704 l -1 707 l -5 709 z m 62 707 l 62 699 l 47 699 l 47 707 l 62 707 z m 182 701 l 189 696 l 189 693 l 186 690 l 182 693 l 178 693 l 174 690 l 174 701 l 178 699 l 182 701 z m 167 701 l 167 693 l 163 690 l 152 693 l 156 696 l 156 699 l 152 701 l 167 701 z m 122 701 l 125 701 l 130 699 l 130 696 l 125 693 q 141 688 125 688 l 141 688 l 141 685 q 125 680 141 680 l 125 680 l 125 661 l 107 661 l 107 664 l 111 667 l 111 672 l 107 690 q 115 701 115 690 l 115 701 l 118 699 l 122 701 z m 88 701 l 88 696 q 103 690 88 690 l 103 690 l 103 685 q 85 669 88 685 l 85 669 l 88 667 l 73 667 l 73 672 l 70 690 q 77 701 77 690 l 77 701 l 88 701 z m 291 696 l 298 690 l 298 688 l 283 688 l 283 696 l 291 696 z m 9 696 l 9 682 l 6 680 l 9 680 l 2 675 l -5 680 l -5 696 l 2 696 l 6 693 l 9 696 z m 51 693 l 62 682 l 58 682 l 62 680 l 58 669 l 32 672 l 24 672 l 24 677 l 47 680 l 39 685 l 28 685 l 24 682 l 21 685 l 32 693 l 51 693 z m 204 688 l 212 682 l 223 685 l 245 682 l 257 685 q 268 680 268 685 l 268 680 l 268 648 l 257 648 l 253 650 l 257 672 l 257 675 l 242 675 l 242 650 l 227 650 l 227 669 l 231 672 l 227 672 l 227 677 l 223 677 q 212 667 218 677 l 212 667 l 216 667 l 212 650 l 208 653 l 204 650 l 201 650 l 197 653 l 204 688 z m 178 688 l 186 682 l 186 661 l 193 661 l 193 656 l 189 653 l 144 659 l 144 669 l 163 672 l 174 672 l 174 680 l 156 680 l 152 677 l 152 680 l 149 682 l 149 685 l 167 688 l 178 688 z m 339 682 q 351 677 351 682 l 351 677 l 351 675 l 339 667 l 336 667 l 339 669 l 332 675 l 324 675 l 324 650 l 313 648 l 309 650 l 313 653 l 313 656 l 309 659 l 309 682 l 324 680 l 339 682 z m 283 682 l 294 682 l 298 680 l 291 675 l 291 672 l 294 669 l 294 667 l 287 667 l 298 653 l 294 653 l 294 650 l 298 648 l 287 648 l 283 650 l 283 653 l 287 656 l 279 656 l 287 680 l 283 682 z m 171 667 l 163 667 l 156 661 l 167 659 l 167 661 l 171 664 l 171 667 z "},"#":{"ha":772,"x_min":-871,"x_max":877,"o":"m 755 -86 l 748 -124 l 7 -121 q 16 627 -8 236 l 16 627 l 310 651 l -42 624 l 24 643 l 22 656 l 14 656 l 14 768 l 27 1205 l 43 1251 l 71 1236 l 847 1158 l 826 1069 q 844 622 827 621 l 844 622 l 840 548 l 842 533 l 814 695 l 782 231 l 791 225 q 767 186 790 187 l 767 186 l 777 179 l 779 157 l 769 164 l 760 163 l 760 156 l 779 142 l 764 166 l 753 172 l 692 138 l 683 138 l 764 -60 l 663 165 l 770 184 l 755 -111 q 754 -79 673 -85 l 754 -79 l 755 -86 z m -539 686 l -566 686 l -597 688 l -634 692 q -861 699 -762 709 l -861 699 l -871 695 l -860 690 l -850 690 l -840 696 l -819 698 q -616 686 -739 702 l -616 686 l -570 684 l -528 684 l -539 686 z m -552 1135 l -555 1206 l -557 1206 l -574 24 l -570 22 l -555 989 l -552 1135 z m -566 1242 l -576 539 l -585 31 l -589 16 l -587 216 l -582 519 q -566 1242 -570 1225 l -566 1242 z m -583 1101 l -579 1246 l -578 1243 l -577 1084 q -602 4 -595 -14 l -602 4 l -589 739 l -583 1101 z m 870 629 l 877 699 l 57 778 l 55 747 l 47 680 l 337 650 l 315 318 l 218 330 l 224 436 l 5 455 l 14 446 l 3 439 l -5 355 l 30 352 l 85 341 l 87 349 l 98 340 l 110 339 l 814 275 l 819 322 l 831 372 l 460 409 l 320 434 l 336 652 l 531 627 l 845 601 l 856 591 l 870 629 z m -458 374 l -463 381 l -453 380 l -453 374 l -459 340 l -465 340 l -464 354 l -458 374 z m -490 316 l -489 342 l -482 341 l -483 328 l -490 316 z m -542 194 l -545 195 l -545 168 l -543 168 l -542 194 z m -547 148 l -547 148 l -547 141 l -544 140 l -551 81 l -548 75 l -542 74 l -538 94 q -547 148 -540 147 z m -543 68 l -545 68 l -549 28 q -538 -20 -545 -19 l -538 -20 l -538 -6 l -543 68 z m 646 1097 l 642 1181 l 639 1183 l 616 -218 l 621 -220 l 642 926 l 646 1097 z m 627 1224 l 613 391 l 602 -211 l 596 -228 l 599 9 l 606 368 q 627 1224 621 1204 l 627 1224 z m 604 1057 l 609 1229 l 610 1226 l 612 1038 q 578 -242 587 -264 l 578 -242 l 596 627 l 604 1057 z m 343 752 l 354 1008 l 251 1016 l 210 85 l 301 78 l 319 430 l 618 393 l 615 294 l 526 300 l 516 35 l 524 47 l 530 34 l 612 27 l 613 68 l 622 132 l 614 133 l 622 147 l 623 160 l 660 974 l 669 976 l 568 991 l 532 405 l 366 422 l 322 434 l 336 650 l 234 659 l 241 761 l 343 752 z m 797 357 l 791 364 l 804 363 l 804 357 l 795 323 l 789 323 l 790 338 l 797 357 z m 728 127 l 730 158 l 738 157 l 737 141 l 728 127 z m 659 -18 l 654 -17 l 654 -49 l 657 -49 l 659 -18 z m 652 -73 l 652 -73 l 652 -81 l 656 -81 l 646 -151 l 650 -159 l 659 -160 l 663 -136 q 652 -73 661 -73 z m 658 -168 l 654 -168 l 648 -214 q 663 -271 654 -271 l 663 -271 l 664 -256 l 658 -168 z "},"$":{"ha":722,"x_min":-4,"x_max":1276,"o":"m 95 458 l 7 429 l 12 431 l 16 432 l 142 481 l 155 486 l 165 490 l 165 490 l 189 500 l 222 512 l 225 513 l 233 516 l 248 522 l 262 528 l 266 529 l 271 530 l 292 538 l 293 539 l 300 542 l 299 542 l 311 546 l 324 551 l 355 563 l 373 570 l 374 570 l 377 572 l 380 573 l 385 574 l 411 585 l 433 593 l 437 595 l 447 598 l 452 600 l 455 602 l 481 612 l 481 612 l 522 627 l 526 629 l 529 630 l 528 630 l 569 646 l 599 657 q 619 665 600 657 l 619 665 l 623 666 l 622 666 l 626 667 l 630 669 l 641 673 l 641 673 l 648 675 l 644 674 l 648 675 l 654 677 l 650 675 l 655 677 l 656 677 l 653 676 l 657 677 l 666 680 l 670 682 l 667 681 l 673 682 l 679 684 l 678 684 l 682 685 l 683 686 l 680 684 l 683 686 l 683 685 l 684 685 l 688 687 l 688 686 l 684 686 l 688 687 l 690 687 l 687 686 l 691 688 l 694 688 l 692 688 l 692 688 l 696 689 l 690 686 l 697 689 l 699 690 l 580 644 l 487 608 l 486 608 l 483 607 l 464 600 l 460 598 l 456 597 l 457 597 l 452 595 l 359 559 l 334 550 l 92 456 l 95 458 z m 1251 23 l 1239 5 l 1248 -1 l 1276 3 l 1272 27 l 1251 23 z m 1128 -72 l 1176 -55 l 1183 -54 q 1154 -92 1183 -71 l 1154 -92 l 1152 -84 l 1146 -93 l 1132 -96 l 1128 -72 z m 1013 -132 l 1006 -93 l 1035 -88 l 1048 -119 l 1042 -127 l 1013 -132 z m 712 -296 l 708 -282 l 707 1209 l 711 1190 l 712 -296 z m 959 1143 l 947 1124 l 954 1116 l 959 1116 l 964 1124 l 964 1143 l 959 1143 z m 705 1106 l 694 1088 l 694 1079 l 705 1097 l 705 1106 z m 1010 1079 l 999 1061 l 1004 1051 l 1010 1051 l 1016 1061 l 1016 1079 l 1010 1079 z m 758 1051 l 751 1051 l 746 1043 l 746 1034 l 751 1025 l 758 1025 l 763 1034 l 763 1043 l 758 1051 z m 872 1043 l 855 1043 l 867 1025 l 872 1034 l 872 1043 z m 964 1034 l 954 1034 l 954 1006 l 964 1006 l 964 1034 z m 1068 998 l 1057 1016 l 1051 1006 l 1051 988 l 1068 988 l 1068 998 z m 699 988 l 688 970 l 694 961 l 699 961 l 699 988 z m 814 988 l 798 988 l 809 970 l 814 979 l 814 988 z m 918 988 l 912 988 l 912 970 l 930 970 l 918 988 z m 1120 943 l 1103 943 l 1103 934 l 1114 916 l 1120 925 l 1120 943 z m 867 934 l 855 916 l 872 916 l 872 934 l 867 934 z m 1063 870 l 1051 888 l 1044 879 l 1044 861 l 1063 861 l 1063 870 z m 930 861 l 918 879 l 918 852 l 930 852 l 930 861 z m 699 870 l 688 852 l 688 843 l 699 843 l 699 870 z m 751 806 l 740 788 l 758 788 l 758 806 l 751 806 z m 994 806 l 976 806 l 987 788 l 994 798 l 994 806 z m 935 743 l 924 761 l 918 751 l 918 734 l 935 734 l 935 743 z m 820 751 l 803 751 l 803 725 l 809 725 l 820 743 l 820 751 z m 699 743 l 688 743 l 688 716 l 694 716 l 705 734 l 699 743 z m 878 680 l 867 698 l 861 688 l 861 670 l 878 670 l 878 680 z m 999 688 l 982 688 l 982 670 l 999 670 l 999 688 z m 763 680 l 746 680 l 746 652 l 758 652 l 763 680 z m 941 616 l 930 634 l 924 625 l 924 616 l 935 597 l 941 607 l 941 616 z m 814 625 l 803 607 l 803 597 l 820 597 l 820 625 l 814 625 z m 705 616 l 688 616 l 688 597 l 694 597 l 705 616 z m 758 570 l 740 561 l 751 543 l 763 561 l 758 570 z m 884 561 l 867 561 l 867 552 l 878 534 l 884 543 l 884 561 z m 1004 561 l 987 561 l 987 534 l 1004 534 l 1004 561 z m 699 507 l 682 507 l 682 498 l 694 479 l 699 479 l 699 507 z m 809 507 l 803 507 l 803 479 l 820 479 l 820 488 l 809 507 z m 935 498 l 924 479 l 924 470 l 941 470 l 941 498 l 935 498 z m 751 443 l 746 443 l 746 425 l 758 407 l 763 416 l 763 425 l 751 443 z m 878 434 l 861 434 l 861 425 l 872 407 l 878 416 l 878 434 z m 999 425 l 982 425 l 982 397 l 987 397 l 999 416 l 999 425 z m 705 370 l 688 370 l 688 343 l 705 343 l 705 370 z m 820 370 l 803 370 l 803 343 l 820 343 l 820 370 z m 924 370 l 918 370 l 918 334 l 924 334 l 935 352 l 924 370 z m 751 307 l 746 307 l 746 289 l 758 271 l 763 279 l 763 289 l 751 307 z m 878 298 l 861 298 l 861 271 l 867 271 l 878 289 l 878 298 z m 987 279 l 976 298 l 970 289 l 970 261 l 976 261 l 987 279 z m 705 235 l 688 235 l 688 207 l 705 207 l 705 235 z m 820 235 l 803 235 l 803 207 l 820 207 l 820 235 z m 930 225 l 912 225 l 912 198 l 930 198 l 930 225 z m 758 170 l 746 152 l 758 134 l 763 134 l 763 170 l 758 170 z m 878 161 l 861 161 l 861 152 l 872 134 l 878 134 l 878 161 z m 970 152 l 964 152 l 964 125 l 982 125 l 982 134 l 970 152 z m 699 98 l 688 79 l 699 61 l 705 61 l 711 89 l 705 98 l 699 98 z m 814 98 l 803 79 l 809 71 l 826 71 l 826 79 l 814 98 z m 930 89 l 918 89 l 918 61 l 935 61 l 930 89 z m 1027 79 l 1016 79 l 1016 52 l 1027 52 l 1027 79 z m 758 26 l 746 7 l 751 -1 l 769 -1 l 769 26 l 758 26 z m 884 26 l 867 26 l 867 -1 l 884 -1 l 884 26 z m 982 16 l 970 -1 l 976 -11 l 987 -11 l 987 16 l 982 16 z m 826 -56 l 814 -37 l 809 -47 l 809 -74 l 826 -74 l 826 -56 z m 699 -47 l 688 -65 l 694 -74 l 711 -74 l 711 -65 l 699 -47 z m 935 -47 l 924 -47 l 924 -65 l 935 -83 l 941 -56 l 935 -47 z m 1039 -56 l 1027 -56 l 1027 -83 l 1039 -83 l 1039 -56 z m 769 -128 l 758 -111 l 751 -120 l 751 -146 l 758 -146 l 769 -128 z m 884 -128 l 872 -111 l 867 -120 l 867 -128 l 878 -146 l 884 -146 l 884 -128 z m 994 -138 l 982 -120 l 976 -128 l 976 -138 l 987 -156 l 994 -146 l 994 -138 z m 699 -183 l 694 -183 l 688 -211 l 694 -220 l 699 -220 l 711 -201 l 699 -183 z m 826 -201 l 814 -183 l 809 -193 l 809 -220 l 826 -220 l 826 -201 z m 941 -193 l 924 -193 l 924 -220 l 941 -220 l 941 -193 z m 1044 -211 l 1034 -193 l 1034 -220 l 1044 -220 l 1044 -211 z m 884 -274 l 872 -256 l 867 -265 l 867 -274 l 878 -292 l 884 -283 l 884 -274 z m 994 -265 l 976 -265 l 976 -292 l 982 -292 l 994 -274 l 994 -265 z m 1168 983 l 1169 983 l 1169 979 l 1166 982 l 1168 983 z m 690 -294 l 680 -294 l 679 -281 q 662 -269 662 -281 l 662 -269 q 642 -289 641 -273 l 642 -289 l 616 -290 l 594 -285 l 589 -291 l 558 -286 l 295 -290 l 295 -283 l 290 -290 l 32 -281 l 28 -202 l 31 -302 l 36 -275 l 31 -269 l 34 -236 l 32 -177 l 26 -151 l 31 -124 l 28 -65 l 20 -19 l 26 -18 l 20 -13 l 20 -5 l 25 1 l 24 7 l 19 27 l 24 27 l 18 47 l 20 133 l 9 291 l 6 364 l 9 423 l 4 429 l 5 541 l -1 694 l 9 707 l 14 707 l 14 701 l 9 694 q 127 514 12 602 l 127 514 l 191 484 l 191 496 l 195 496 l 201 490 l 216 498 l 258 506 l 258 499 l 248 486 l 259 486 l 248 465 l 307 444 l 337 503 l 338 489 l 333 489 l 327 496 l 312 439 l 289 475 l 367 397 q 322 350 354 351 l 322 350 l 301 349 q 144 441 248 347 l 144 441 l 31 273 q 282 143 125 153 l 282 143 l 282 35 l 369 26 l 380 37 l 380 140 q 455 184 428 149 l 455 184 l 471 178 l 470 191 l 454 190 l 454 197 l 480 198 l 486 191 q 591 460 600 259 l 591 460 q 552 512 589 513 l 552 512 l 520 536 l 530 537 l 557 532 q 496 615 556 545 l 496 615 l 465 608 l 470 601 l 466 593 l 477 655 l 437 632 q 261 718 406 657 l 261 718 q 227 782 232 751 l 227 782 q 304 838 224 825 l 304 838 q 513 728 387 838 l 513 728 l 518 728 l 627 898 q 524 980 559 981 l 524 980 l 525 966 l 498 965 l 498 985 l 503 979 l 513 979 l 513 986 q 486 1004 513 1001 l 486 1004 l 487 998 l 493 979 l 488 979 l 476 991 l 481 1010 l 381 1039 l 381 1163 l 281 1167 q 280 1042 279 1072 l 280 1042 q 14 840 80 1034 l 14 840 l 8 733 l -2 732 l -3 747 l 1 753 l -3 760 l -4 766 l -3 1228 l 1 1229 q 675 1200 468 1204 l 675 1200 l 681 1213 q 684 621 692 623 l 684 621 l 690 615 l 690 608 q 669 443 688 444 l 669 443 l 688 405 l 646 403 l 625 408 l 609 401 l 609 395 l 606 335 l 618 302 l 608 302 l 608 296 l 609 138 l 614 131 l 619 131 q 605 414 606 167 l 605 414 l 614 122 l 607 412 l 673 445 l 677 252 l 683 231 l 679 199 l 682 119 l 684 -79 l 679 -79 l 685 -85 l 681 -119 l 682 -242 q 629 -264 682 -257 l 629 -264 l 629 -252 q 694 -287 694 -267 l 694 -287 l 690 -294 z m 1169 833 l 1172 829 l 1168 826 l 1166 830 l 1169 833 z m 1176 820 l 1174 825 l 1175 825 l 1184 823 l 1184 820 l 1176 820 z m 1139 789 l 1139 794 l 1142 794 l 1142 793 l 1139 789 z m 1159 793 l 1159 791 l 1156 787 l 1155 788 l 1155 793 l 1159 793 z m 1157 742 l 1156 747 l 1160 744 l 1158 743 l 1157 742 z m 748 649 l 743 649 l 743 631 l 753 612 l 760 621 l 760 631 l 748 649 z m 875 640 l 857 640 l 857 612 l 863 612 l 875 631 l 875 640 z m 984 621 l 972 640 l 967 631 l 967 603 l 972 603 l 984 621 z m 703 576 l 684 576 l 684 549 l 703 549 l 703 576 z m 817 576 l 800 576 l 800 549 l 817 549 l 817 576 z m 927 567 l 909 567 l 909 540 l 927 540 l 927 567 z m 753 513 l 743 494 l 753 476 l 760 476 l 760 513 l 753 513 z m 875 503 l 857 503 l 857 494 l 869 476 l 875 476 l 875 503 z m 967 494 l 961 494 l 961 467 l 978 467 l 978 476 l 967 494 z m 696 440 l 684 422 l 696 404 l 703 404 l 708 431 l 703 440 l 696 440 z m 812 440 l 800 422 l 806 412 l 823 412 l 823 422 l 812 440 z m 927 431 l 916 431 l 916 404 l 932 404 l 927 431 z m 753 367 l 743 349 l 748 340 l 765 340 l 765 367 l 753 367 z m 880 367 l 863 367 l 863 340 l 880 340 l 880 367 z m 978 358 l 967 340 l 972 331 l 984 331 l 984 358 l 978 358 z m 823 285 l 812 303 l 806 294 l 806 267 l 823 267 l 823 285 z m 696 294 l 684 276 l 691 267 l 708 267 l 708 276 l 696 294 z m 932 294 l 921 294 l 921 276 l 932 258 l 938 285 l 932 294 z m 765 213 l 753 231 l 748 222 l 748 195 l 753 195 l 765 213 z m 880 213 l 869 231 l 863 222 l 863 213 l 875 195 l 880 195 l 880 213 z m 989 203 l 978 222 l 972 213 l 972 203 l 984 185 l 989 195 l 989 203 z m 696 158 l 691 158 l 684 131 l 691 122 l 696 122 l 708 140 l 696 158 z m 823 140 l 812 158 l 806 149 l 806 122 l 823 122 l 823 140 z m 938 149 l 921 149 l 921 122 l 938 122 l 938 149 z m 880 67 l 869 85 l 863 76 l 863 67 l 875 50 l 880 58 l 880 67 z m 989 76 l 972 76 l 972 50 l 978 50 l 989 67 l 989 76 z m 740 1211 l 734 1211 l 734 1192 l 746 1174 l 751 1183 l 751 1192 l 740 1211 z m 867 1202 l 850 1202 l 850 1174 l 855 1174 l 867 1192 l 867 1202 z m 976 1183 l 964 1202 l 959 1192 l 959 1165 l 964 1165 l 976 1183 z m 694 1138 l 677 1138 l 677 1111 l 694 1111 l 694 1138 z m 809 1138 l 791 1138 l 791 1111 l 809 1111 l 809 1138 z m 918 1129 l 901 1129 l 901 1101 l 918 1101 l 918 1129 z m 746 1074 l 734 1056 l 746 1038 l 751 1038 l 751 1074 l 746 1074 z m 867 1065 l 850 1065 l 850 1056 l 861 1038 l 867 1038 l 867 1065 z m 959 1056 l 954 1056 l 954 1029 l 970 1029 l 970 1038 l 959 1056 z m 688 1002 l 677 983 l 688 965 l 694 965 l 699 992 l 694 1002 l 688 1002 z m 803 1002 l 791 983 l 798 974 l 814 974 l 814 983 l 803 1002 z m 918 992 l 907 992 l 907 965 l 924 965 l 918 992 z m 746 929 l 734 911 l 740 901 l 758 901 l 758 929 l 746 929 z m 872 929 l 855 929 l 855 901 l 872 901 l 872 929 z m 970 920 l 959 901 l 964 892 l 976 892 l 976 920 l 970 920 z m 814 847 l 803 865 l 798 856 l 814 847 z m 688 856 l 677 838 l 682 829 l 699 829 l 699 838 l 688 856 z m 924 856 l 912 856 l 912 838 l 924 820 l 930 847 l 924 856 z m 758 774 l 746 793 l 740 783 l 740 756 l 746 756 l 758 774 z m 872 774 l 861 793 l 855 783 l 855 774 l 867 756 l 872 756 l 872 774 z m 982 765 l 970 783 l 964 774 l 964 765 l 976 747 l 982 756 l 982 765 z m 688 720 l 682 720 l 677 692 l 682 684 l 688 684 l 699 702 l 688 720 z m 814 702 l 803 720 l 798 711 l 798 684 l 814 684 l 814 702 z m 930 711 l 912 711 l 912 684 l 930 684 l 930 711 z m 872 629 l 861 647 l 855 637 l 855 629 l 867 611 l 872 620 l 872 629 z m 982 637 l 964 637 l 964 611 l 970 611 l 982 629 l 982 637 z "},"%":{"ha":1062,"x_min":-25,"x_max":1082,"o":"m 865 1200 l 920 1189 l 1013 1184 l 994 652 l 999 627 l 992 628 l 998 618 l 950 -123 l 942 -173 l 945 -232 l 944 -267 l 338 -234 l 275 -239 l 269 -231 l 263 -239 l -25 -224 l -25 -98 l -1 779 l 4 788 l -1 788 q -9 865 2 848 l -9 865 l -9 882 l 5 948 q 2 1221 26 1210 l 2 1221 l 90 1230 l 52 1213 l -12 1237 l 216 1233 l 785 1205 l 859 1192 l 865 1200 z m 517 570 q 539 636 505 578 l 539 636 q 492 956 614 881 l 492 956 l 455 979 l 410 999 q 117 830 222 1006 l 117 830 l 85 777 q 46 684 55 727 l 46 684 q 125 390 -10 472 l 125 390 l 130 387 q 397 427 250 313 l 397 427 q 488 523 481 527 l 488 523 l 517 570 z m 405 862 q 453 782 443 838 l 453 782 q 391 636 448 733 l 391 636 l 346 562 q 193 491 274 441 l 193 491 l 186 495 q 192 707 98 550 l 192 707 l 253 809 q 405 862 309 903 l 405 862 z m 224 106 l 264 84 l 259 63 l 267 77 l 271 73 l 279 73 l 301 64 l 304 68 l 347 122 l 352 142 l 355 134 l 363 150 l 366 167 l 849 982 l 777 1037 l 278 195 l 224 106 z m 984 277 q 1006 343 972 284 l 1006 343 q 960 663 1082 587 l 960 663 l 922 685 l 878 705 q 585 536 690 713 l 585 536 l 553 484 q 514 391 522 433 l 514 391 q 593 96 457 178 l 593 96 l 597 93 q 864 133 717 19 l 864 133 q 955 229 949 233 l 955 229 l 984 277 z m 872 568 q 920 488 910 545 l 920 488 q 858 342 916 439 l 858 342 l 814 269 q 661 197 741 148 l 661 197 l 654 201 q 659 413 566 256 l 659 413 l 720 515 q 872 568 777 609 l 872 568 z "},"&":{"ha":781,"x_min":-29,"x_max":755,"o":"m 0 1145 l 39 1152 l 44 1145 l 97 1152 l 505 1152 l 668 1145 l 677 1097 l 703 1114 l 716 1114 q 646 879 640 1121 l 646 879 l 655 817 l 655 800 q 646 730 646 785 l 646 730 l 642 730 l 682 1149 l 755 1142 l 744 -190 l 422 -208 l 417 -199 l 413 -208 l 369 -199 l -29 -196 l -29 1142 l 0 1145 z m 28 800 l 28 800 l 28 752 q 64 640 38 752 l 64 640 q 123 561 130 551 l 123 561 l 479 574 q 578 672 553 617 l 578 672 q 595 758 595 707 l 595 758 l 595 810 q 399 1066 595 987 l 399 1066 l 341 1071 l 289 1071 q 46 858 119 1071 l 46 858 q 28 800 46 800 z m 321 958 l 321 958 q 444 850 444 944 l 444 850 l 444 748 q 321 591 444 591 l 321 591 l 311 591 q 198 711 195 593 l 198 711 l 198 785 q 223 920 198 883 l 223 920 q 321 958 268 958 z m -4 309 l -4 309 l -4 254 q 34 126 5 254 l 34 126 q 313 -43 125 -43 l 313 -43 l 319 -43 q 587 132 530 -43 l 587 132 q 720 31 631 -33 l 720 31 l 656 260 q 481 574 607 496 l 481 574 l 128 562 l 127 561 q 15 375 50 515 l 15 375 q -4 309 15 309 z m 322 488 l 322 488 q 458 366 458 473 l 458 366 l 458 249 q 322 69 458 69 l 322 69 l 311 69 q 185 207 185 69 l 185 207 l 185 292 q 212 446 185 404 l 212 446 q 322 488 263 488 z m 568 490 l 568 490 q 629 359 613 408 l 629 359 l 668 217 l 629 360 q 680 524 646 419 l 680 524 l 724 668 q 643 696 691 677 l 643 696 q 568 490 622 642 z "},"'":{"ha":355,"x_min":0,"x_max":412,"o":"m 412 -254 l 412 -274 l 0 -265 l 1 -246 l 73 -248 l 73 -220 q 22 -244 50 -227 l 22 -244 l 62 254 l 81 291 l 81 300 l 53 301 l 54 357 l 49 405 l 59 669 q 37 803 60 710 l 37 803 l 39 1244 l 37 1254 l 368 1242 l 372 1232 l 372 986 l 376 976 l 372 948 l 359 210 l 361 -254 l 412 -254 z m 177 1111 l 83 1112 l 92 1085 l 104 734 l 258 732 l 278 1038 l 290 1044 l 291 1049 l 279 1050 l 291 1055 l 294 1104 l 271 1115 l 212 1116 l 200 1111 l 189 1111 l 189 1116 l 177 1111 z "},"(":{"ha":463,"x_min":0,"x_max":522,"o":"m 35 -230 l 35 -230 l 77 -221 q 97 -140 77 -181 l 97 -140 l 57 1208 l 64 1219 l 57 1232 l 56 1256 l 0 1249 l 7 1261 l 14 1248 l 62 1254 l 138 1245 l 144 1255 l 151 1243 l 159 1242 l 165 1253 l 172 1252 l 179 1240 l 186 1239 l 411 1225 l 411 1213 l 418 1224 l 425 1223 l 473 1194 l 457 1118 l 484 50 l 491 48 l 485 37 l 492 -256 l 492 -262 l 485 -263 q 35 -230 240 -255 z m 399 -215 l 522 -218 l 522 -195 l 501 -192 l 481 -177 l 371 -200 l 371 -212 l 399 -215 z m 109 529 l 113 557 l 164 340 l 164 352 l 127 504 q 300 -95 235 108 l 300 -95 l 446 -113 q 301 408 445 -76 l 301 408 l 294 456 l 429 1122 l 313 1136 l 305 1124 l 298 1125 l 272 1141 q 245 1025 199 848 l 245 1025 q 130 518 220 941 l 130 518 l 109 529 z m 328 411 l 335 410 l 334 446 q 342 414 342 466 l 342 414 l 400 216 l 320 496 l 328 411 z "},")":{"ha":468,"x_min":-35,"x_max":538,"o":"m 522 1217 l 522 1217 l 473 1203 q 449 1121 473 1164 l 449 1121 l 474 -204 l 466 -216 l 474 -228 l 474 -252 l 538 -238 l 530 -250 l 523 -238 l 468 -250 l 382 -250 l 374 -262 l 366 -250 l 358 -250 l 350 -262 l 342 -262 l 334 -250 l 327 -250 l 71 -264 l 71 -252 l 62 -264 l 55 -264 l 0 -241 l 20 -164 l 4 886 l -3 886 l 4 898 l 0 1187 l 0 1192 l 8 1195 q 522 1217 287 1217 z m 106 1158 l -35 1146 l -35 1122 l -12 1122 l 12 1110 l 137 1146 l 137 1158 l 106 1158 z m 425 459 l 420 431 l 365 638 l 365 627 l 404 481 q 216 1051 287 859 l 216 1051 l 51 1051 q 208 555 51 1015 l 208 555 l 216 509 l 51 -164 l 184 -164 l 192 -152 l 200 -152 l 231 -164 q 262 -46 317 133 l 262 -46 q 402 467 292 39 l 402 467 l 425 459 z m 177 549 l 169 549 l 169 513 q 161 544 161 493 l 161 544 l 98 732 l 185 466 l 177 549 z "},"*":{"ha":7147,"x_min":-8,"x_max":7237,"o":"m -4 520 l -8 520 l 176 773 l -1 1035 l 6 1044 l 150 1003 l 158 1012 l 172 1013 l 180 1004 l 177 999 l 172 998 l 154 1004 q 292 952 154 994 l 292 952 l 301 953 q 483 1178 340 988 l 483 1178 l 500 1192 l 505 1188 l 507 1091 l 503 1072 l 507 1069 l 503 1037 l 505 935 l 502 918 l 507 912 l 502 890 l 503 877 q 650 819 513 863 l 650 819 q 803 755 777 773 l 803 755 q 559 675 803 737 l 559 675 q 508 656 533 656 l 508 656 l 506 490 l 508 407 l 506 318 l 502 317 l 290 593 l 5 516 l 0 516 l -4 520 z m 170 683 l 173 684 l 236 648 l 237 644 l 227 645 l 231 641 l 230 638 l 203 615 q 213 600 208 600 l 213 600 l 219 601 q 274 623 275 613 l 274 623 l 213 709 l 216 713 l 219 713 l 236 694 l 235 697 q 222 723 223 711 l 222 723 l 229 723 l 232 719 l 235 719 l 238 732 l 235 735 l 238 750 l 237 782 l 199 797 l 199 791 l 205 781 l 206 768 q 191 756 200 755 l 191 756 q 203 731 191 747 l 203 731 q 170 683 170 695 l 170 683 z m 298 882 l 330 882 q 363 949 346 883 l 363 949 l 376 977 l 372 977 l 345 949 l 323 953 l 307 935 q 280 917 307 917 l 280 917 l 298 882 z m 385 694 l 385 694 q 438 623 423 652 l 438 623 l 433 620 l 414 618 l 401 627 l 398 623 l 397 618 l 406 611 l 406 607 l 390 606 l 414 586 l 426 587 l 461 644 q 441 660 457 660 l 441 660 l 441 663 l 504 749 l 498 772 l 498 781 l 526 814 l 526 823 q 506 829 506 821 l 506 829 l 505 854 l 500 854 l 450 820 l 450 816 l 458 804 l 458 796 l 415 751 q 394 774 395 762 l 394 774 q 385 694 382 775 z m 378 906 l 378 902 l 423 858 l 406 897 l 405 902 l 401 897 l 393 897 l 378 906 z m 410 588 l 420 578 l 425 578 l 425 587 l 410 588 z m 680 727 l 680 727 l 685 731 l 686 736 l 675 789 l 661 793 l 661 789 q 680 727 671 726 z m 2186 1219 l 2369 1225 l 2405 1225 l 2557 1219 l 2557 1201 l 2569 1213 q 2793 1171 2581 1201 l 2793 1171 l 2787 1084 l 2793 918 l 2799 918 l 2812 1195 l 3152 1219 l 3146 1158 l 3152 1109 l 3146 1072 l 3158 1072 l 3158 1065 l 3140 1041 l 3146 1023 l 3128 702 l 3128 677 l 3134 677 l 3146 745 l 3140 739 l 3134 739 l 3134 745 q 3152 770 3137 770 l 3152 770 l 3146 794 l 3158 819 l 3152 825 q 3194 1183 3182 1183 l 3194 1183 l 3188 1189 l 3188 1207 l 3194 1207 l 3425 1189 l 3425 1145 l 3432 948 l 3438 948 l 3444 1213 l 3455 1213 l 3455 1201 l 3449 1195 q 3467 1177 3449 1177 l 3467 1177 l 3461 1103 l 3455 616 l 3449 616 l 3449 764 l 3444 764 l 3444 578 l 3432 536 l 3425 542 l 3212 548 l 3206 548 l 3146 554 l 3140 530 l 3134 530 q 3122 572 3134 558 l 3122 572 l 3128 578 l 3122 585 l 3116 585 l 3116 572 l 3109 572 q 2854 604 2854 572 l 2854 604 l 2848 604 l 2848 591 l 2842 591 q 2830 610 2830 591 l 2830 610 l 2824 610 l 2824 591 l 2799 597 l 2776 591 l 2776 597 l 2782 684 l 2782 714 l 2776 714 l 2770 560 l 2557 560 l 2557 591 l 2551 616 l 2557 634 l 2551 640 l 2557 671 l 2557 887 l 2563 924 l 2557 930 l 2557 936 l 2563 1115 l 2563 1195 l 2557 1195 l 2557 1183 l 2551 1183 l 2557 1177 l 2551 1115 l 2544 634 l 2532 572 l 2277 578 l 2186 578 l 2180 936 l 2186 1219 z m 4026 1225 l 4026 1225 l 4160 1201 l 4160 1225 l 4172 1213 l 4166 1207 l 4166 1201 l 4342 1171 l 4342 1164 q 4312 985 4342 1084 l 4312 985 l 4306 720 l 4257 585 q 4287 640 4270 585 l 4287 640 l 4300 640 l 4300 604 l 4293 597 l 4300 591 l 4300 548 l 4287 536 q 4135 548 4135 536 l 4135 548 l 4117 542 l 4069 554 l 4063 548 q 3996 732 3996 628 l 3996 732 l 4008 1164 l 3996 1164 l 3996 1183 l 4008 1183 q 4026 1225 4012 1225 z m 4427 1219 l 4433 1225 l 4439 1219 l 4500 1225 l 4603 1225 l 4755 1219 l 4761 1195 q 4743 1115 4743 1160 l 4743 1115 l 4749 1065 l 4743 973 l 4737 973 q 4616 1109 4737 1061 l 4616 1109 l 4567 1115 q 4397 905 4432 1115 l 4397 905 q 4548 720 4437 720 l 4548 720 l 4597 720 q 4737 856 4695 720 l 4737 856 l 4743 856 l 4743 844 l 4737 578 l 4731 572 l 4488 578 l 4384 578 l 4384 893 l 4378 948 l 4384 1010 l 4384 1219 l 4427 1219 z m 2162 1213 l 2168 1219 l 2174 1213 l 2174 690 l 1895 671 q 1870 1201 1870 989 l 1870 1201 l 1870 1213 l 1876 1213 l 1876 1201 l 1913 1207 l 2162 1213 z m 3474 1183 l 3480 1213 q 3668 1177 3493 1201 l 3668 1177 l 3674 1183 q 3741 1164 3674 1164 l 3741 1164 l 3784 1164 l 3777 1171 l 3777 1183 l 3790 1183 l 3790 1164 l 3808 1164 l 3808 1183 l 3814 1183 l 3814 1158 l 3990 1158 q 3972 868 3980 1126 l 3972 868 l 3984 548 l 3729 536 q 3716 714 3716 595 l 3716 714 l 3716 720 l 3832 806 l 3711 831 l 3711 942 l 3705 942 l 3705 881 l 3699 881 l 3699 899 l 3693 899 l 3693 788 l 3687 732 l 3693 726 q 3680 560 3680 664 l 3680 560 l 3467 560 l 3467 591 l 3461 616 l 3467 634 l 3461 640 l 3467 671 l 3467 868 l 3474 924 l 3467 930 l 3467 936 l 3474 1097 l 3474 1183 z m 1179 1189 l 1185 1207 l 1191 1201 l 1367 1207 l 1525 1201 l 1531 1195 l 1531 1072 l 1537 758 l 1537 751 l 1543 751 l 1591 1183 l 1597 1189 l 1586 1189 l 1597 1207 q 1828 1177 1828 1197 l 1828 1177 l 1828 1115 q 1847 825 1828 976 l 1847 825 l 1841 825 l 1847 819 l 1841 745 l 1841 566 l 1834 536 l 1828 542 l 1615 548 l 1603 548 l 1543 554 l 1543 530 l 1537 530 q 1512 610 1527 610 l 1512 610 l 1191 610 l 1179 1183 l 1185 1189 l 1179 1189 z m 3656 1201 l 3687 1207 l 3729 1201 l 3729 1195 l 3656 1195 l 3656 1201 z m 3856 1195 l 3856 1201 l 3935 1201 l 3935 1195 l 3856 1195 z m 1609 1183 l 1603 1183 l 1609 1164 l 1615 1164 l 1615 1177 l 1609 1183 z m 1658 1183 l 1646 1171 l 1646 1090 l 1652 1090 q 1689 1177 1652 1177 l 1689 1177 l 1695 1177 l 1695 1183 l 1670 1183 l 1658 1171 l 1658 1183 z m 3212 1183 l 3200 1183 l 3212 1164 l 3212 1152 l 3200 1133 l 3212 1133 l 3212 1121 l 3200 1084 l 3212 1084 l 3219 1115 l 3219 1152 l 3212 1183 z m 3255 1183 l 3249 1183 l 3243 1109 l 3243 1072 l 3249 1072 q 3267 1177 3249 1156 l 3267 1177 l 3261 1177 l 3255 1171 l 3255 1183 z m 3820 1164 l 3820 1189 l 3826 1189 l 3826 1164 l 3820 1164 z m 3984 1177 l 3984 1189 l 3990 1189 l 3990 1164 l 3972 1164 l 3972 1183 l 3977 1177 l 3984 1177 z m 1725 1177 l 1719 1177 l 1713 1133 l 1713 1065 l 1719 1065 l 1725 1171 l 1725 1177 z m 3322 1177 l 3316 1177 l 3316 1127 l 3322 1127 l 3322 1177 z m 1166 1171 l 1173 1171 l 1173 1059 l 1039 1059 l 1039 1047 l 1075 1047 l 1075 782 q 1021 677 1075 696 l 1021 677 q 972 739 1021 739 l 972 739 l 954 739 q 905 708 921 739 l 905 708 l 905 696 q 978 634 905 654 l 978 634 q 1142 758 1142 657 l 1142 758 l 1148 794 l 1148 1029 l 1166 1047 l 1166 1053 l 1173 1053 l 1173 554 l 863 542 l 863 548 l 850 684 l 857 758 l 850 776 l 857 776 l 850 782 l 863 924 l 863 1103 l 850 1152 l 1021 1164 l 1160 1164 l 1166 1171 z m 1251 1164 l 1221 1158 l 1221 806 q 1360 696 1221 712 l 1360 696 q 1494 794 1494 712 l 1494 794 l 1494 1158 l 1457 1158 l 1452 1164 l 1446 1164 l 1440 1158 l 1434 1164 l 1434 1158 l 1428 1164 l 1421 1164 l 1415 1158 l 1409 1158 l 1409 1164 l 1403 1158 l 1391 1158 l 1385 1164 l 1379 1164 l 1379 806 l 1373 776 l 1342 776 l 1336 819 l 1336 1158 l 1318 1164 l 1288 1158 l 1251 1164 z m 2010 1158 l 1907 1158 l 1907 1145 l 1931 1145 l 1931 874 l 1907 874 l 1907 856 l 2010 856 l 2010 862 q 1986 874 2010 874 l 1986 874 l 1986 991 l 2053 887 l 2053 874 l 2041 874 l 2041 856 l 2150 856 l 2150 874 q 2059 998 2112 874 l 2059 998 q 2022 1053 2047 998 l 2022 1053 q 2083 1133 2051 1114 l 2083 1133 q 2102 1109 2092 1109 l 2102 1109 l 2131 1109 l 2131 1145 l 2120 1158 l 2077 1158 q 1992 1041 2046 1145 l 1992 1041 l 1986 1041 l 1986 1145 q 2010 1158 2010 1145 l 2010 1158 z m 2642 1152 l 2612 1152 l 2593 936 l 2599 936 l 2593 930 l 2593 918 l 2624 918 l 2630 948 l 2630 1016 l 2654 1016 l 2715 1010 l 2715 942 l 2709 911 l 2715 905 l 2745 905 l 2764 1139 l 2727 1139 l 2727 1109 l 2721 1035 l 2636 1047 l 2642 1078 l 2642 1152 z m 3553 1152 l 3522 1152 l 3504 936 l 3510 936 l 3504 930 l 3504 918 l 3535 918 l 3541 948 l 3541 1016 l 3565 1016 l 3625 1010 l 3625 942 l 3619 911 l 3625 905 l 3656 905 l 3674 1139 l 3638 1139 l 3638 1109 l 3632 1035 l 3547 1047 l 3553 1078 l 3553 1152 z m 1615 1145 l 1597 1139 l 1597 1133 l 1615 1127 l 1615 1145 z m 2211 973 l 2199 911 q 2296 739 2231 739 l 2296 739 q 2338 720 2310 720 l 2338 720 l 2399 720 q 2520 844 2520 745 l 2520 844 l 2526 930 l 2526 942 l 2466 942 l 2466 948 l 2526 948 l 2526 1016 q 2363 1115 2472 1115 l 2363 1115 q 2211 973 2256 1115 l 2211 973 z m 1615 1109 l 1609 1109 l 1603 1090 l 1609 1072 l 1615 1072 l 1615 1109 z m 3316 1103 l 3310 1103 l 3310 1065 l 3316 1065 l 3316 1103 z m 3874 1103 l 3802 1103 l 3814 905 l 3808 874 l 3850 874 l 3862 887 l 3868 881 l 3942 881 l 3942 893 l 3880 893 l 3874 887 q 3826 948 3826 887 l 3826 948 l 3826 991 l 3838 1004 l 3905 1004 l 3905 1016 l 3826 1016 l 3826 1078 l 3820 1084 l 3820 1090 l 3838 1097 l 3905 1090 l 3929 1090 l 3929 1103 l 3887 1103 l 3880 1097 l 3874 1103 z m 3705 1065 l 3699 1065 l 3699 1004 l 3705 1004 l 3705 1065 z m 3455 1047 l 3449 1047 l 3449 874 l 3455 874 l 3455 1047 z m 2375 1035 l 2375 1035 q 2454 955 2454 1035 l 2454 955 l 2454 899 q 2381 782 2454 782 l 2381 782 l 2375 782 q 2302 844 2302 788 l 2302 844 l 2302 942 q 2375 1035 2302 1035 z m 4567 1035 l 4567 1035 l 4585 1035 q 4652 973 4652 1023 l 4652 973 l 4652 887 q 4573 782 4652 782 l 4573 782 q 4500 862 4500 782 l 4500 862 l 4500 930 q 4567 1035 4500 1035 z m 4737 881 l 4743 948 l 4749 948 l 4749 905 l 4743 862 l 4737 862 l 4737 881 z m 2824 720 l 2824 720 l 2830 714 l 2861 714 q 2885 758 2873 758 l 2885 758 l 3025 745 q 3085 690 3025 698 l 3085 690 q 2976 924 3031 828 l 2976 924 l 2939 924 q 2824 720 2904 883 z m 4129 911 l 4117 899 l 4117 862 l 4123 856 l 4123 850 l 4111 850 l 4111 844 l 4093 597 l 4106 597 l 4117 745 l 4129 745 q 4178 659 4144 745 l 4178 659 l 4184 659 l 4184 677 l 4154 745 l 4178 745 l 4178 758 l 4135 758 l 4111 782 l 4123 782 q 4148 899 4127 899 l 4148 899 l 4160 899 l 4148 911 l 4129 911 z m 4172 905 l 4172 905 l 4172 893 q 4239 819 4231 893 l 4239 819 q 4184 745 4233 791 l 4184 745 l 4190 745 l 4209 758 l 4215 751 q 4251 825 4251 786 l 4251 825 l 4251 831 q 4172 905 4251 894 z m 2787 899 l 2782 899 l 2782 764 l 2787 764 l 2793 850 l 2787 899 z m 2957 887 l 2957 887 l 2964 887 l 3006 776 l 3000 776 q 2903 794 2903 776 l 2903 794 q 2957 887 2945 883 z m 1640 862 l 1597 862 l 1586 622 l 1634 622 l 1731 751 l 1731 616 l 1773 616 l 1780 856 l 1773 856 l 1743 862 l 1640 702 l 1634 702 l 1634 720 l 1640 862 z m 3237 862 l 3194 862 l 3188 622 l 3243 622 q 3334 758 3272 682 l 3334 758 l 3328 652 l 3328 616 l 3370 616 l 3377 739 l 3377 844 l 3383 850 l 3383 856 l 3340 862 l 3243 708 l 3237 708 l 3237 862 z m 2782 758 l 2776 758 l 2776 726 l 2782 726 l 2782 758 z m 1549 745 l 1543 745 l 1537 739 l 1537 720 l 1543 720 l 1549 745 z m 4239 585 l 4190 665 q 4227 585 4190 628 l 4227 585 l 4239 585 z m 1901 622 l 1901 665 l 1907 665 l 1907 622 l 1901 622 z m 3140 634 l 3134 634 l 3128 610 l 3140 610 l 3140 634 z m 2114 610 l 2114 634 l 2138 634 l 2138 622 l 2125 610 l 2114 610 z m 2156 634 l 2162 634 l 2174 622 l 2174 610 l 2168 610 l 2150 628 l 2156 634 z m 1980 610 l 1980 628 l 2041 628 l 2041 610 l 1980 610 z m 2053 616 l 2065 628 l 2077 616 l 2077 610 l 2053 610 l 2053 616 z m 3140 597 l 3134 597 l 3134 566 l 3140 566 l 3140 597 z m 1543 591 l 1531 591 l 1531 585 l 1537 566 l 1543 566 l 1543 591 z m 1002 542 l 1348 548 l 1348 536 l 1002 536 l 1002 542 z m 4644 545 l 4644 1229 l 4650 1229 l 4650 545 l 4644 545 z m 4753 1149 l 4753 1223 l 4759 1223 l 4972 1211 l 4972 1112 l 5240 1149 l 5269 1143 l 5251 668 l 5246 662 l 4960 674 l 4960 631 l 4966 625 l 4966 618 l 4960 612 l 4753 612 l 4753 618 l 4747 816 l 4753 1149 z m 5585 625 l 5610 1223 l 5664 1223 l 5962 1211 l 5968 1192 l 5992 1192 l 6023 1185 l 6023 1167 l 6017 1173 l 5962 1173 l 5962 1044 l 5950 1044 l 5950 1025 l 5956 1031 l 5962 1031 l 5962 1001 q 5943 989 5962 989 l 5943 989 l 5943 976 l 5956 976 l 5950 668 l 5950 588 l 5943 557 l 5968 557 l 5986 570 l 5986 564 q 5950 545 5986 553 l 5950 545 q 5725 576 5923 557 l 5725 576 l 5725 570 l 5719 576 l 5646 576 l 5640 582 l 5634 576 l 5628 576 l 5598 582 l 5598 576 l 5579 582 l 5501 582 l 5501 588 l 5579 594 l 5585 625 z m 5962 1192 l 5908 1192 l 5919 1179 l 5925 1185 l 5931 1185 l 5956 1179 l 5962 1179 l 5962 1192 z m 4778 1131 l 4778 1131 l 4796 1069 l 4827 1075 l 4845 1075 q 4875 1013 4861 1075 l 4875 1013 l 4772 724 l 4772 668 l 4814 662 l 4930 662 l 4936 724 l 4845 730 l 4845 736 q 4936 1019 4936 922 l 4936 1019 q 4862 1161 4936 1109 l 4862 1161 q 4778 1131 4807 1155 z m 5288 1112 l 5561 1149 l 5585 1143 l 5585 1137 l 5573 686 l 5567 662 l 5275 674 l 5269 680 l 5288 1112 z m 5713 1143 l 5664 1143 l 5664 1057 l 5670 1057 q 5785 1044 5785 1053 l 5785 1044 q 5610 718 5672 812 l 5610 718 l 5610 711 l 5725 711 q 5956 1137 5811 821 l 5956 1137 l 5713 1143 z m 5020 878 l 5020 878 l 5020 828 q 5124 724 5032 724 l 5124 724 q 5215 804 5202 724 l 5215 804 l 5215 896 q 5117 976 5197 976 l 5117 976 l 5094 976 q 5020 878 5020 962 z m 5337 853 l 5337 847 q 5446 724 5337 724 l 5446 724 q 5537 841 5537 724 l 5537 841 l 5537 878 q 5446 976 5522 976 l 5446 976 l 5409 976 q 5337 853 5337 962 l 5337 853 z m 5117 933 l 5117 933 l 5136 933 l 5148 890 l 5148 865 q 5124 773 5148 773 l 5124 773 l 5112 773 q 5094 810 5094 779 l 5094 810 l 5094 878 q 5117 933 5094 925 z m 5440 933 l 5440 933 l 5446 933 q 5470 878 5463 933 l 5470 878 l 5452 773 l 5433 773 l 5415 791 l 5415 890 q 5440 933 5415 923 z m 4772 594 l 4772 606 l 4778 606 l 4778 594 l 4784 600 l 4790 600 l 4790 582 l 4759 576 l 4753 576 l 4753 582 l 4765 582 l 4765 588 l 4753 588 l 4753 600 l 4759 594 l 4772 594 z m 4808 594 l 4808 606 l 4814 606 l 4814 588 l 4820 588 l 4820 600 l 4839 600 l 4839 576 l 4833 576 l 4833 594 l 4827 594 q 4814 576 4827 576 l 4814 576 l 4808 594 z m 4899 594 l 4911 606 l 4917 606 l 4917 594 l 4905 594 l 4905 582 l 4917 582 l 4917 594 l 4924 594 l 4924 576 l 4917 570 l 4911 570 l 4893 582 l 4887 582 l 4881 576 l 4875 576 l 4875 600 l 4881 594 l 4887 594 l 4893 600 l 4899 594 z m 4942 588 l 4936 606 l 4954 594 l 4948 588 l 4948 582 l 4954 576 l 4954 570 l 4936 570 l 4936 576 l 4942 582 l 4942 588 z m 4796 576 l 4796 600 l 4802 600 l 4802 576 l 4796 576 z m 4845 576 l 4845 600 l 4851 600 l 4856 594 l 4862 594 l 4869 600 l 4869 582 l 4845 576 z m 4753 551 l 4753 557 l 4972 557 l 4972 545 l 4924 551 l 4753 551 z m 2112 436 l 2112 436 l 2131 436 l 2131 -241 l 1803 -254 l 1790 -45 l 1790 -26 l 1796 -20 l 1790 -14 l 1803 337 l 1803 368 l 1790 417 q 2112 436 1893 436 z m 3169 423 l 3193 430 l 3200 423 l 3242 430 l 3412 430 q 3527 399 3527 430 l 3527 399 q 3539 368 3527 368 l 3539 368 l 3552 368 l 3558 374 l 3618 362 l 3618 374 l 3600 374 l 3600 387 l 3630 387 l 3667 405 l 3685 387 q 3697 411 3685 411 l 3697 411 l 3703 417 l 3703 423 l 3782 423 l 3782 411 l 3752 417 l 3752 251 l 3764 239 l 3770 245 l 3770 201 l 3782 201 l 3776 195 l 3776 189 l 3782 189 l 3788 195 l 3794 171 l 3800 171 l 3800 183 l 3794 233 l 3800 233 l 3788 275 l 3800 319 q 3776 337 3800 337 l 3776 337 q 3807 430 3807 356 l 3807 430 l 4092 405 l 4098 411 l 4123 411 l 4140 399 l 4146 405 l 4146 411 q 4256 393 4256 405 l 4256 393 l 4262 399 l 4268 399 l 4407 387 l 4426 393 l 4420 387 l 4420 380 l 4456 380 l 4487 387 q 4499 362 4487 362 l 4499 362 l 4499 343 l 4493 337 q 4511 294 4511 315 l 4511 294 l 4529 294 l 4529 374 l 4541 387 l 4541 331 l 4547 331 l 4547 387 l 4541 411 l 4541 417 l 4547 417 l 4553 387 l 4553 368 l 4578 368 l 4584 374 l 4645 362 q 4620 374 4645 374 l 4620 374 l 4620 387 l 4662 387 q 4693 405 4662 405 l 4693 405 l 4699 387 l 4705 387 q 4717 411 4705 411 l 4717 411 l 4730 423 l 4802 423 l 4802 411 l 4796 417 l 4784 417 l 4772 405 l 4778 257 l 4778 239 l 4791 239 l 4791 325 l 4827 331 l 4833 325 l 4833 331 l 4839 325 l 4845 325 l 4851 331 l 4857 331 l 4875 325 l 4875 331 l 4881 325 l 4912 325 l 4936 331 l 4960 325 l 4978 325 q 4997 399 4982 399 l 4997 399 l 4997 393 l 4985 325 l 4997 325 l 4997 331 q 5027 399 4997 399 l 5027 399 l 5027 374 l 5033 380 l 5039 380 l 5039 368 l 5046 368 q 5058 387 5058 368 l 5058 387 l 5063 380 l 5069 380 q 5082 417 5069 417 l 5082 417 l 5136 417 l 5155 405 l 5215 411 l 5416 399 l 5416 423 l 5458 423 l 5464 430 l 5470 423 l 5513 430 l 5695 430 l 5798 417 l 5804 423 l 5811 423 l 5835 417 l 5877 423 l 5883 417 l 5889 417 l 5920 423 l 5944 423 l 5944 417 l 5908 417 l 5908 411 l 5975 411 l 5986 195 l 5969 177 l 5969 171 l 5986 171 l 5981 -7 q 5998 -168 5998 -42 l 5998 -168 l 5998 -205 l 5768 -205 l 5768 -217 l 5501 -217 l 5501 -223 l 5531 -223 l 5531 -235 l 5525 -235 q 5470 -217 5470 -235 l 5470 -217 l 5428 -217 l 5416 -205 l 5398 -211 l 5379 -205 l 5373 -211 l 5367 -205 l 5367 -217 l 5337 -211 l 5288 -211 l 5282 -205 l 5276 -211 l 5270 -211 l 5197 -199 l 5197 -211 l 5179 -199 l 5173 -199 l 5173 -211 l 5167 -211 q 5143 -193 5143 -201 l 5143 -193 l 5136 -199 l 5112 -199 l 5106 -193 l 5100 -193 l 5112 -267 l 5088 -267 l 5088 -260 l 5094 -229 l 5088 -125 l 5082 -125 l 5075 -168 l 5075 -211 l 5046 -217 l 5039 -217 l 5009 -211 l 5009 -217 l 5003 -211 l 4960 -211 l 4857 -205 l 4857 -217 l 4851 -217 l 4851 -205 l 4827 -205 l 4827 -211 l 4839 -211 l 4839 -217 q 4778 -248 4784 -229 l 4778 -248 l 4717 -241 l 4553 -241 q 4541 -180 4541 -241 l 4541 -180 q 4523 -69 4523 -180 l 4523 -69 l 4523 73 l 4529 146 l 4487 146 l 4499 -254 q 4080 -217 4248 -254 l 4080 -217 l 4080 -223 l 4043 -211 l 3849 -254 q 3813 -235 3813 -248 l 3813 -235 l 3825 60 l 3831 66 l 3813 73 l 3819 41 l 3819 35 q 3794 134 3809 35 l 3794 134 q 3776 183 3776 158 l 3776 183 l 3770 183 l 3770 171 l 3764 -199 l 3764 -235 l 3758 -241 l 3758 -248 l 3685 -241 l 3545 -241 l 3515 -235 l 3521 -229 l 3515 -81 l 3509 -81 l 3509 -174 l 3503 -168 l 3497 -168 l 3497 -174 l 3503 -180 l 3497 -217 l 3157 -217 l 3145 -205 l 3145 79 l 3139 79 l 3132 35 l 3139 35 l 3132 29 l 3132 -106 l 2865 -119 l 2859 -125 q 2829 417 2829 158 l 2829 417 l 2829 423 l 2835 423 l 2835 411 l 2841 411 l 3096 417 l 3126 423 l 3132 417 l 3132 91 l 3139 91 l 3145 319 l 3145 423 l 3169 423 z m 6387 423 l 6411 430 l 6418 423 l 6460 430 l 6630 430 l 6734 423 l 6740 405 q 6721 325 6721 375 l 6721 325 l 6721 319 l 6727 269 l 6721 177 l 6715 177 q 6576 319 6715 273 l 6576 319 l 6539 319 q 6399 208 6446 319 l 6399 208 q 6442 -39 6399 -39 l 6442 -39 q 6527 -75 6485 -75 l 6527 -75 l 6576 -75 q 6715 60 6666 -75 l 6715 60 l 6721 60 l 6715 -75 l 6715 -217 l 6430 -217 l 6424 -223 l 6418 -217 l 6363 -217 l 6363 -63 l 6047 -75 l 6023 417 l 6059 423 l 6363 387 l 6363 423 l 6387 423 z m 6752 29 l 6764 430 l 6782 430 l 6782 337 l 6794 337 l 6794 349 l 6806 349 l 6806 337 l 6904 337 q 6940 183 6923 337 l 6940 183 l 6946 183 q 6976 337 6953 337 l 6976 337 l 7092 337 l 7104 325 l 7104 -39 l 7007 -39 l 7007 159 l 7001 159 l 6976 -39 l 6915 -39 q 6879 165 6899 -39 l 6879 165 l 6873 165 l 6873 -39 l 6776 -39 l 6776 245 l 6770 245 l 6764 35 l 6758 17 l 6752 17 l 6752 29 z m 1572 417 l 1609 423 l 1626 417 l 1669 423 l 1718 411 l 1766 411 l 1772 307 l 1772 195 l 1760 177 l 1760 171 l 1778 171 l 1772 -7 q 1790 -205 1784 -28 l 1790 -205 l 1572 -205 l 1572 -248 l 1566 -254 l 1566 -260 l 1523 -254 l 1475 -254 l 1469 -248 l 1463 -254 l 1451 -254 l 1444 -248 l 1438 -254 l 1353 -241 l 1329 -241 l 1329 -235 l 1335 127 l 1335 165 l 1329 165 l 1329 115 l 1323 115 l 1323 189 l 1293 195 l 1286 195 l 1274 41 q 1238 201 1262 41 l 1238 201 l 1190 201 l 1177 35 l 1171 35 q 1135 195 1148 195 l 1135 195 l 1098 183 l 1153 -106 l 1190 -106 q 1213 35 1205 -106 l 1213 35 l 1225 35 l 1250 -106 l 1293 -106 l 1311 41 l 1317 41 l 1323 -20 l 1323 -137 l 1317 -174 l 1323 -205 l 1323 -248 l 1317 -254 l 1317 -260 l 1274 -254 l 1225 -254 l 1219 -248 l 1213 -254 l 1202 -254 l 1196 -248 l 1190 -254 l 1086 -241 l 1080 -241 l 1080 -235 l 1086 134 l 1086 165 l 1080 165 l 1080 121 l 1074 121 l 1074 189 l 1086 189 l 1086 368 l 1323 380 l 1323 374 l 1329 189 l 1335 189 l 1335 368 l 1548 380 q 1572 417 1548 417 l 1572 417 z m 1693 417 l 1693 423 l 1736 423 l 1736 417 l 1693 417 z m 4808 411 l 4820 423 l 4827 423 l 4827 387 l 4808 387 l 4808 411 z m 4851 423 l 4857 423 l 4869 387 l 4863 380 l 4857 380 l 4845 417 l 4851 423 z m 6806 423 l 6806 423 l 6824 417 l 6831 423 l 6831 417 l 6837 423 l 6843 423 l 6849 417 l 6855 417 l 6873 423 l 6873 417 l 6879 423 l 6892 423 l 6898 417 l 6904 423 l 7092 423 l 7122 417 l 7122 387 l 6794 387 l 6794 393 q 6806 423 6796 423 z m 5052 405 l 5039 417 l 5046 417 l 5058 405 l 5052 405 z m 2148 -186 l 2142 411 l 2148 411 l 2155 405 l 2288 411 l 2306 411 l 2489 405 l 2495 269 l 2495 -26 l 2501 -51 l 2495 -69 l 2495 -81 l 2501 -81 l 2507 -51 l 2501 -45 l 2507 -26 l 2513 -20 l 2507 5 l 2519 23 l 2513 29 q 2543 275 2534 275 l 2543 275 l 2538 294 q 2549 337 2538 337 l 2549 337 l 2543 343 l 2543 356 l 2549 387 l 2555 387 l 2574 368 l 2574 356 q 2555 343 2574 343 l 2555 343 l 2555 337 l 2574 337 l 2574 325 l 2561 288 l 2574 288 l 2580 319 l 2580 356 q 2549 393 2580 393 l 2549 393 l 2549 411 l 2555 411 l 2787 393 l 2787 368 l 2804 -26 l 2804 -211 l 2799 -254 l 2726 -254 l 2719 -248 l 2713 -248 l 2713 -254 l 2707 -248 l 2610 -248 l 2507 -241 q 2495 -267 2507 -267 l 2495 -267 l 2495 -229 l 2483 -229 l 2489 -223 q 2471 -186 2481 -186 l 2471 -186 l 2148 -186 z m 4869 399 l 4894 411 l 4894 393 l 4900 399 l 4906 399 l 4912 380 l 4924 380 l 4930 387 l 4936 387 l 4948 368 l 4948 356 q 4936 374 4936 356 l 4936 374 l 4930 368 l 4924 368 q 4869 399 4894 368 l 4869 399 z m 2088 399 l 1967 399 l 1967 380 l 1997 380 l 1997 -1 q 1948 -94 1997 -60 l 1948 -94 q 1912 -14 1948 -33 l 1912 -14 l 1900 -14 q 1839 -75 1839 -22 l 1839 -75 q 1918 -149 1864 -149 l 1918 -149 q 2064 -1 2064 -108 l 2064 -1 l 2064 368 q 2088 399 2088 368 l 2088 399 z m 2616 387 l 2610 387 l 2604 313 l 2604 275 l 2610 275 q 2647 380 2610 380 l 2647 380 l 2653 380 l 2653 387 l 2629 387 l 2616 374 l 2616 387 z m 2683 380 l 2677 380 l 2677 325 l 2683 325 l 2683 380 z m 837 368 l 1074 380 l 1074 307 l 1080 208 l 1074 189 l 1044 195 l 1038 195 l 1025 47 l 1013 47 l 1013 54 l 989 201 l 941 201 l 928 41 l 922 41 q 886 195 897 195 l 886 195 l 849 183 l 904 -106 l 941 -106 q 964 41 957 -106 l 964 41 q 1001 -106 977 41 l 1001 -106 l 1044 -106 l 1062 47 l 1068 47 l 1074 -45 l 1074 -137 l 1068 -174 l 1074 -205 l 1074 -248 l 1068 -254 l 1068 -260 l 1025 -254 l 977 -254 l 970 -248 l 964 -254 l 958 -254 l 952 -248 l 947 -248 l 941 -254 l 837 -241 l 831 -241 l 837 263 l 837 368 z m 5027 368 l 5009 374 l 5003 331 l 5009 325 l 5027 325 l 5027 343 l 5021 349 l 5027 356 l 5027 368 z m 2185 362 l 2179 368 l 2179 17 q 2300 -94 2179 -81 l 2300 -94 l 2349 -94 q 2452 5 2452 -79 l 2452 5 l 2458 79 l 2458 362 l 2416 362 l 2410 368 l 2404 368 l 2398 362 l 2392 368 l 2386 362 l 2386 368 l 2380 362 l 2374 362 l 2367 368 l 2361 362 l 2349 362 l 2343 368 l 2337 368 l 2337 11 l 2331 -20 l 2313 -20 q 2294 60 2294 -20 l 2294 60 l 2294 362 l 2276 368 l 2271 362 l 2258 362 l 2203 368 l 2185 362 z m 2968 368 l 2865 368 l 2865 349 l 2890 349 l 2890 79 l 2865 79 l 2865 60 l 2968 60 l 2968 79 l 2944 79 l 2944 195 q 3017 85 2955 193 l 3017 85 l 3005 73 l 3005 60 l 3108 60 l 3108 73 q 3029 183 3066 94 l 3029 183 l 2981 251 q 3042 337 3004 310 l 3042 337 l 3048 337 q 3066 313 3050 313 l 3066 313 l 3090 313 l 3090 337 l 3084 368 l 3071 368 q 2956 245 3003 368 l 2956 245 l 2944 245 l 2944 349 l 2968 349 l 2968 368 z m 7189 239 l 7207 374 l 7213 374 l 7213 368 q 7189 233 7205 233 l 7189 233 l 7189 239 z m 5052 362 l 5039 362 l 5027 313 l 5033 319 l 5046 319 l 5046 313 l 5039 275 l 5039 269 l 5046 269 l 5052 300 l 5046 343 l 5052 362 z m 3509 356 l 3503 356 l 3503 288 l 3509 288 l 3509 356 z m 4875 356 l 4924 362 l 4924 343 l 4894 349 l 4894 331 l 4888 331 l 4875 356 z m 3606 349 l 3576 349 l 3558 79 l 3582 79 l 3594 91 l 3594 159 l 3600 189 l 3661 189 l 3691 183 l 3685 177 l 3685 66 l 3710 66 q 3733 269 3725 66 l 3733 269 l 3716 313 l 3728 313 l 3728 300 l 3733 300 l 3739 331 l 3733 331 l 3703 337 l 3691 214 l 3630 220 l 3606 220 l 3606 281 l 3612 343 l 3606 349 z m 4626 349 l 4596 349 l 4578 79 l 4614 79 l 4614 85 l 4620 189 l 4681 189 l 4711 183 l 4705 66 l 4742 66 l 4760 331 l 4723 337 l 4723 331 l 4717 214 l 4711 214 l 4645 220 l 4626 220 l 4633 343 l 4626 349 z m 4796 343 l 4820 356 l 4839 356 l 4839 343 l 4833 343 l 4827 349 l 4820 349 l 4802 331 l 4796 337 l 4796 343 z m 4954 343 l 4954 356 l 4972 356 l 4960 343 l 4954 343 z m 6072 227 l 6072 153 q 6187 35 6092 35 l 6187 35 l 6224 35 q 6296 73 6275 35 l 6296 73 l 6272 91 q 6224 66 6272 75 l 6224 66 l 6193 66 q 6108 189 6108 85 l 6108 189 q 6217 300 6123 300 l 6217 300 l 6278 288 l 6284 319 l 6278 319 q 6211 331 6254 331 l 6211 331 l 6193 331 q 6072 227 6112 331 l 6072 227 z m 3169 159 l 3157 127 l 3157 115 q 3309 -75 3193 -75 l 3309 -75 l 3357 -75 q 3503 60 3444 -75 l 3503 60 l 3497 66 l 3497 146 l 3467 146 l 3467 153 q 3503 171 3503 153 l 3503 171 q 3321 319 3464 319 l 3321 319 q 3169 159 3204 319 l 3169 159 z m 4547 319 l 4541 319 l 4541 269 l 4547 201 l 4553 201 l 4553 220 l 4547 319 z m 5063 319 l 5058 319 l 5058 294 l 5063 294 l 5063 319 z m 5428 134 l 5428 115 q 5580 -75 5466 -75 l 5580 -75 l 5628 -75 q 5762 47 5720 -75 l 5762 47 l 5756 220 l 5756 227 q 5591 319 5705 319 l 5591 319 q 5434 140 5473 319 l 5434 140 l 5428 134 z m 4183 307 l 4177 313 l 4171 307 l 4171 214 l 4183 214 l 4171 195 l 4171 171 l 4177 165 l 4177 159 l 4165 146 l 4165 115 l 4177 115 l 4177 103 l 4165 103 l 4165 60 q 4152 -39 4165 -12 l 4152 -39 l 4159 -69 l 4171 -69 l 4189 -57 l 4189 -75 l 4232 -75 q 4286 11 4267 -42 l 4286 11 q 4304 35 4304 11 l 4304 35 l 4310 29 l 4317 29 l 4317 35 l 4310 35 q 4365 140 4365 123 l 4365 140 l 4365 146 l 4359 153 l 4359 159 l 4444 159 l 4444 239 l 4450 300 l 4426 300 l 4420 294 l 4395 307 l 4280 127 l 4286 121 l 4286 115 q 4256 91 4264 115 l 4256 91 l 4262 85 l 4226 47 l 4232 79 l 4232 109 l 4220 109 l 4220 121 l 4226 115 l 4232 115 l 4232 159 l 4220 159 l 4232 177 l 4232 189 l 4226 220 l 4238 220 l 4238 307 l 4195 313 l 4189 307 l 4183 307 z m 2677 307 l 2671 307 l 2671 275 l 2677 275 l 2677 307 z m 4098 307 l 4092 307 l 4086 245 l 4086 127 l 4092 127 l 4104 227 l 4098 245 l 4104 281 l 4098 307 z m 3533 294 l 3527 294 l 3527 201 l 3533 201 l 3533 294 z m 4493 214 l 4487 208 l 4493 201 l 4487 195 l 4487 153 l 4529 153 l 4529 281 l 4493 214 z m 5106 153 l 5106 153 q 5167 66 5135 66 l 5167 66 l 5106 -100 l 5185 -100 q 5240 47 5208 -81 l 5240 47 l 5307 47 l 5307 -100 l 5385 -100 l 5385 281 l 5227 281 q 5106 153 5106 281 z m 3333 239 l 3333 239 l 3345 239 q 3418 159 3402 239 l 3418 159 l 3448 159 l 3448 153 l 3412 153 l 3412 79 q 3321 -14 3412 -14 l 3321 -14 q 3260 66 3267 -14 l 3260 66 l 3260 140 q 3333 239 3260 239 z m 5598 239 l 5598 239 l 5610 239 q 5683 177 5683 233 l 5683 177 l 5683 91 q 5610 -14 5683 -14 l 5610 -14 q 5531 66 5531 -14 l 5531 66 l 5531 127 q 5598 239 5531 239 z m 6539 239 l 6539 239 l 6563 239 q 6630 165 6624 239 l 6630 165 l 6630 97 q 6539 -14 6630 -14 l 6539 -14 q 6479 54 6491 -14 l 6479 54 l 6479 140 q 6539 239 6479 239 z m 3521 227 l 3515 227 l 3515 159 l 3521 159 l 3521 227 z m 5246 214 l 5246 214 l 5307 214 l 5307 121 l 5294 109 q 5191 159 5191 109 l 5191 159 l 5191 171 q 5246 214 5191 214 z m 7165 183 l 7165 214 l 7177 214 l 7177 195 l 7165 183 z m 1487 201 l 1438 201 l 1426 41 l 1420 41 q 1383 195 1397 195 l 1383 195 l 1347 183 l 1402 -106 l 1451 -106 l 1451 -100 q 1475 41 1460 41 l 1475 41 l 1499 -106 l 1535 -106 l 1548 -94 l 1548 195 l 1535 195 l 1523 41 l 1517 41 l 1487 201 z m 7116 153 l 7116 183 l 7128 171 l 7122 153 l 7116 153 z m 6715 66 l 6715 171 l 6721 171 l 6721 66 l 6715 66 z m 4420 153 l 4371 153 l 4378 121 l 4378 85 l 4371 85 l 4371 97 l 4365 97 l 4371 66 l 4371 41 l 4365 35 l 4371 29 l 4371 -20 l 4365 -26 l 4378 -81 l 4432 -81 l 4444 153 l 4426 153 l 4432 146 l 4432 140 l 4420 140 l 4420 153 z m 3521 146 l 3515 146 l 3515 103 l 3521 -20 l 3527 -20 l 3533 79 l 3521 79 l 3521 146 z m 4553 146 l 4547 146 l 4547 109 l 4553 109 l 4553 146 z m 5033 127 l 4845 140 l 4845 134 l 4839 -155 l 4845 -155 l 5021 -161 l 5021 -113 l 4930 -113 l 4900 -106 l 4900 -63 q 4912 -32 4901 -32 l 4912 -32 l 5021 -39 l 5021 -7 l 5027 -1 l 5027 5 l 5021 11 l 4948 11 l 4906 17 l 4906 85 l 4912 85 l 5033 79 l 5033 127 z m 3843 97 l 3843 97 l 3891 91 q 3922 109 3891 109 l 3922 109 l 3928 109 q 3965 85 3958 109 l 3965 85 l 3946 73 l 3879 73 l 3837 60 l 3837 5 l 3879 -7 l 3916 -7 l 3958 5 l 3971 -7 l 4007 -7 l 4007 103 q 3952 127 3998 127 l 3952 127 l 3885 127 q 3843 97 3851 127 z m 4092 109 l 4080 97 l 4080 -1 l 4086 -1 l 4092 60 l 4092 109 z m 4553 103 l 4547 103 l 4547 11 l 4553 11 l 4553 103 z m 1068 60 l 1068 97 l 1074 97 l 1074 60 l 1068 60 z m 1317 60 l 1317 91 l 1323 91 l 1323 60 l 1317 60 z m 4541 79 l 4535 79 l 4535 -94 l 4541 -94 l 4541 79 z m 2586 73 l 2555 73 l 2549 -174 l 2604 -174 q 2695 -39 2656 -78 l 2695 -39 l 2695 -45 l 2689 -161 l 2689 -168 l 2701 -180 l 2732 -180 l 2738 -75 l 2738 23 l 2744 66 l 2701 66 l 2604 -87 l 2598 -87 l 2598 60 l 2586 73 z m 7189 73 l 7219 73 l 7225 41 l 7219 35 l 7225 29 q 7207 11 7207 29 l 7207 11 l 7182 11 l 7182 35 q 7207 47 7182 47 l 7207 47 l 7207 60 l 7201 60 l 7195 54 l 7189 54 l 7182 60 l 7182 66 l 7189 73 z m 3965 60 l 3965 60 q 3922 17 3965 17 l 3922 17 l 3897 17 l 3879 35 q 3965 60 3879 54 z m 4195 29 l 4195 35 l 4207 35 l 4207 17 l 4195 29 z m 1730 -14 l 1638 -20 l 1596 -20 l 1596 -94 l 1603 -100 l 1596 -106 l 1596 -113 l 1603 -137 l 1596 -161 l 1603 -168 l 1724 -168 l 1730 -174 l 1736 -174 l 1736 -63 l 1730 -39 l 1736 -20 l 1730 -14 z m 5944 -14 l 5841 -20 l 5804 -20 l 5804 -81 l 5811 -106 l 5804 -113 l 5804 -119 l 5811 -137 l 5804 -143 l 5804 -149 l 5811 -168 l 5932 -168 l 5938 -174 l 5944 -174 l 5950 -81 l 5950 -69 l 5938 -32 l 5950 -20 l 5944 -14 z m 4086 -20 l 4074 -20 l 4074 -39 l 4086 -51 l 4092 -51 l 4092 -45 l 4086 -20 z m 6752 -57 l 6770 -51 l 6776 -57 l 6806 -57 l 6812 -51 l 6818 -57 l 6831 -57 l 6837 -51 l 6843 -57 l 6849 -57 l 7007 -51 l 7019 -51 l 7025 -57 l 7031 -57 l 7037 -51 l 7043 -57 l 7043 -51 l 7049 -57 l 7104 -57 l 7104 -94 q 7086 -248 7104 -171 l 7086 -248 l 6921 -211 l 6921 -217 q 6904 -199 6904 -217 l 6904 -199 l 6898 -205 q 6752 -168 6752 -183 l 6752 -168 l 6752 -119 l 6758 -113 l 6752 -106 l 6752 -57 z m 7171 -81 l 7171 -81 l 7182 -81 l 7195 -113 l 7201 -113 q 7225 -87 7201 -98 l 7225 -87 l 7231 -94 l 7231 -106 l 7213 -106 q 7231 -168 7222 -168 l 7231 -168 l 7225 -174 l 7225 -180 l 7231 -199 l 7225 -199 l 7201 -193 l 7195 -217 l 7182 -217 l 7182 -205 l 7177 -205 l 7177 -217 l 7189 -229 l 7189 -235 l 7165 -235 l 7165 -186 l 7171 -149 l 7159 -131 q 7171 -81 7171 -113 z m 4086 -94 l 4074 -94 l 4074 -125 l 4080 -125 l 4086 -94 z m 6788 -106 l 6776 -106 l 6776 -125 l 6782 -125 l 6788 -106 z m 6849 -106 l 6837 -119 l 6837 -131 l 6843 -131 l 6843 -113 l 6855 -113 l 6855 -125 l 6861 -125 l 6861 -113 l 6855 -106 l 6849 -106 z m 6904 -106 l 6898 -106 l 6898 -125 l 6879 -113 l 6879 -119 q 6904 -137 6879 -127 l 6904 -137 l 6904 -106 z m 6940 -106 l 6934 -106 l 6934 -131 l 6940 -131 l 6940 -106 z m 7037 -106 l 7031 -106 l 7025 -113 l 7025 -119 l 7031 -125 l 7031 -119 l 7037 -113 l 7037 -106 z m 7079 -106 l 7073 -106 l 7073 -131 l 7079 -131 l 7079 -106 z m 6818 -113 l 6800 -113 l 6800 -137 l 6806 -137 l 6806 -125 l 6812 -131 l 6818 -131 l 6818 -125 l 6812 -119 l 6818 -113 z m 7007 -125 l 6989 -119 l 6989 -125 l 6995 -131 l 7007 -131 l 7007 -125 z m 7231 -143 l 7231 -119 l 7237 -119 l 7237 -143 l 7231 -143 z m 2859 -174 l 2859 -131 l 2865 -131 l 2865 -174 l 2859 -174 z m 4080 -137 l 4074 -137 l 4074 -180 l 4080 -186 l 4080 -193 l 4074 -193 l 4080 -211 l 4086 -211 l 4086 -180 l 4080 -137 z m 2501 -161 l 2495 -161 l 2495 -186 l 2501 -186 l 2501 -161 z m 3011 -180 l 3029 -161 l 3035 -168 l 3035 -186 l 3011 -186 l 3011 -180 z m 3071 -174 l 3084 -161 l 3102 -161 l 3102 -168 l 3084 -186 l 3071 -174 z m 3114 -174 l 3114 -161 l 3132 -161 l 3132 -186 l 3126 -186 l 3114 -174 z m 4559 -168 l 4553 -168 l 4553 -193 l 4559 -193 l 4559 -168 z m 2938 -186 l 2938 -168 l 2993 -168 l 3005 -180 l 2999 -186 l 2938 -186 z m 2501 -193 l 2495 -193 l 2495 -223 l 2501 -223 l 2501 -193 z m 6685 -248 l 6685 -223 l 6697 -223 l 6697 -248 l 6685 -248 z m 5046 -235 l 5069 -229 l 5069 -241 l 5058 -254 l 5046 -241 l 5046 -235 z m 7122 -260 l 7122 -229 l 7128 -229 l 7134 -260 l 7122 -260 z m 5470 -248 l 5470 -235 l 5476 -235 l 5519 -241 l 5519 -248 l 5495 -254 l 5470 -248 z m 5063 -254 l 5075 -241 l 5082 -241 l 5069 -254 l 5063 -254 z m 1900 -254 l 2319 -248 l 2319 -260 l 1900 -260 l 1900 -254 z "},"+":{"ha":675,"x_min":-37,"x_max":658,"o":"m 580 987 l 621 998 l 621 987 q 651 -77 652 431 l 651 -77 q 9 -109 392 -109 l 9 -109 l 5 160 l 46 160 l 46 214 l 60 224 l 60 234 l 46 245 l 33 245 l 19 234 l 5 234 q -37 887 -37 791 l -37 887 l -37 909 q 580 987 389 952 l 580 987 z m 428 -163 l 461 -155 l 487 -178 q 504 -155 487 -155 l 504 -155 l 522 -155 l 538 -170 l 538 -201 l 522 -216 l 504 -216 q 487 -193 487 -216 l 487 -193 l 478 -186 l 469 -186 l 454 -209 l 478 -209 l 461 -224 l 428 -224 l 428 -216 l 461 -178 l 461 -170 l 445 -170 l 436 -178 l 428 -178 l 428 -163 z m 513 -163 l 496 -178 l 496 -193 l 513 -209 l 530 -193 l 530 -178 l 513 -163 z m 547 -186 l 573 -155 l 590 -155 l 616 -186 l 590 -216 l 573 -216 l 547 -186 z m 582 -163 l 564 -178 l 564 -193 l 582 -209 l 599 -193 l 599 -178 l 582 -163 z m 616 -163 l 616 -155 l 649 -155 l 649 -163 l 616 -163 z m 231 -178 l 248 -163 l 274 -163 l 274 -178 l 283 -178 l 256 -216 l 283 -216 l 283 -224 l 231 -224 l 231 -216 q 256 -201 231 -201 l 256 -201 l 265 -193 l 265 -170 l 256 -170 l 231 -178 z m 283 -178 l 283 -163 l 307 -163 l 307 -224 l 298 -224 l 298 -178 l 283 -178 z m 350 -170 l 350 -163 l 393 -163 l 376 -186 l 393 -201 l 393 -209 l 376 -224 l 350 -224 l 350 -209 l 385 -209 q 359 -193 385 -193 l 359 -193 l 368 -186 l 368 -170 l 350 -170 z m 623 -209 l 641 -170 l 649 -170 l 649 -186 l 641 -209 l 623 -209 z m 274 -255 l 599 -248 l 658 -248 l 658 -255 l 385 -263 l 283 -263 l 274 -271 l 248 -263 l 248 -255 l 274 -255 z m 305 755 l 278 727 l 278 577 l 155 577 l 86 563 l 100 494 l 100 425 l 183 425 l 278 439 l 292 425 l 292 248 l 416 248 l 444 275 l 430 342 l 444 342 l 430 356 l 430 439 l 526 453 l 607 453 l 607 577 l 593 589 l 593 603 l 526 589 l 430 589 l 416 686 l 416 755 l 305 755 z "},",":{"ha":355,"x_min":-3,"x_max":290,"o":"m 130 279 l 130 297 l 139 297 l 139 279 l 290 271 q 201 -199 290 -143 l 201 -199 q 130 -234 163 -234 l 130 -234 l -3 -234 l -3 -110 l 41 -110 q 121 22 121 -110 l 121 22 l 24 22 l 15 31 l 6 31 l 24 288 l 86 288 l 130 279 z m 163 1177 l 163 1195 l 167 1195 l 178 1181 l 175 1177 l 163 1177 z m 60 1168 l 79 1177 l 83 1172 l 87 1177 l 91 1172 l 94 1177 l 102 1163 l 102 1149 l 98 1145 l 98 1141 l 102 1136 l 98 1132 l 106 1122 l 102 1118 l 102 1114 l 83 1118 l 60 1118 l 56 1141 l 68 1149 l 68 1145 l 87 1149 l 87 1163 l 83 1163 l 64 1158 l 60 1163 l 60 1168 z m 136 1172 l 136 1172 l 152 1168 l 148 1154 l 129 1158 l 129 1154 q 148 1141 129 1146 l 148 1141 l 148 1132 l 152 1132 q 133 1114 152 1114 l 133 1114 l 133 1109 l 110 1118 l 117 1127 l 136 1122 l 136 1132 q 113 1149 121 1132 l 113 1149 l 117 1154 l 113 1154 q 136 1172 117 1172 z m 159 1114 l 163 1168 l 175 1168 l 175 1136 l 171 1132 l 175 1127 l 175 1109 l 159 1109 l 159 1114 z m 79 1141 l 71 1132 l 75 1127 l 79 1127 l 87 1136 l 87 1141 l 79 1141 z m 79 1014 l 87 1023 l 94 1023 l 94 1010 l 79 1010 l 79 1014 z m 167 1000 l 175 1010 l 182 951 l 178 947 l 175 947 l 171 951 l 167 947 l 167 987 l 152 991 l 148 987 l 152 964 l 152 947 l 140 947 l 136 964 l 140 969 l 136 973 l 140 973 l 136 987 l 121 987 l 125 983 l 125 978 l 121 978 l 125 973 l 125 942 l 121 947 l 117 942 l 110 942 l 113 947 l 110 951 l 110 996 q 121 1005 110 1005 l 121 1005 l 133 1000 l 155 1005 l 167 1000 z m 26 987 l 29 1000 l 37 1000 l 52 996 l 68 1000 l 68 973 l 71 969 l 64 942 l 52 947 l 52 987 l 37 987 l 37 983 l 41 978 l 41 973 l 37 973 l 26 987 z m 83 1000 l 94 1000 l 91 996 l 91 991 l 98 991 l 98 983 l 94 978 l 94 973 l 98 969 l 94 969 l 98 964 l 98 960 l 94 942 l 79 942 l 83 947 l 79 951 l 79 964 l 83 964 l 87 960 l 91 960 l 91 964 l 87 969 l 91 973 q 79 996 81 973 l 79 996 l 83 1000 z "},"-":{"ha":569,"x_min":-77,"x_max":594,"o":"m 536 1208 l -77 1227 l 524 1212 l 212 1200 l 538 1189 l 538 1160 q 555 684 561 846 l 555 684 l 547 684 l 513 647 l 513 638 l 563 637 l 561 579 l 568 532 l 543 266 q 579 131 542 225 l 579 131 l 594 -240 l 586 -240 l 13 -236 l 5 -227 l 13 21 l 5 31 l 14 59 l 9 739 l 15 1205 l 536 1208 z m 450 564 l 68 559 l 62 456 l 87 444 l 61 434 l 61 422 l 85 411 l 85 399 l 60 399 l 83 365 l 490 357 l 497 517 l 473 529 l 474 541 l 501 552 l 475 563 l 450 564 z "},"­":{"ha":569,"x_min":-77,"x_max":594,"o":"m 536 1208 l -77 1227 l 524 1212 l 212 1200 l 538 1189 l 538 1160 q 555 684 561 846 l 555 684 l 547 684 l 513 647 l 513 638 l 563 637 l 561 579 l 568 532 l 543 266 q 579 131 542 225 l 579 131 l 594 -240 l 586 -240 l 13 -236 l 5 -227 l 13 21 l 5 31 l 14 59 l 9 739 l 15 1205 l 536 1208 z m 450 564 l 68 559 l 62 456 l 87 444 l 61 434 l 61 422 l 85 411 l 85 399 l 60 399 l 83 365 l 490 357 l 497 517 l 473 529 l 474 541 l 501 552 l 475 563 l 450 564 z "},".":{"ha":534,"x_min":-145,"x_max":474,"o":"m 421 1224 l -145 1242 l 410 1228 l 122 1217 l 423 1206 l 422 1179 q 439 724 444 878 l 439 724 l 431 724 l 399 688 l 399 680 l 446 678 l 444 624 l 450 578 l 427 324 q 460 195 426 286 l 460 195 l 474 -159 l 467 -159 l -62 -155 l -70 -146 l -62 90 l -70 100 l -62 126 l -66 777 l -60 1222 l 421 1224 z m 328 264 l 35 256 l 30 80 l 49 60 l 29 42 l 29 22 l 48 2 l 47 -18 l 28 -17 l 45 -77 l 359 -89 l 365 184 l 347 204 l 347 224 l 368 243 l 348 262 l 328 264 z "},"/":{"ha":610,"x_min":-93,"x_max":634,"o":"m 634 -197 l 634 -216 l -93 -195 l -92 -176 l 36 -180 l 36 -153 q 4 296 4 144 l 4 296 l 12 296 l 45 331 l 45 339 l -4 341 l -3 395 l -12 439 l 18 528 q -20 513 19 566 l -20 513 l -10 1195 l -12 1208 l 484 1188 l 530 1193 l 535 955 l 543 945 l 536 919 l 537 245 l 545 -195 l 634 -197 z m 146 -135 l 189 -136 l 442 1093 l 431 1093 l 303 1110 l 104 109 l 90 92 l 87 75 l 96 73 l 83 58 l 52 -104 l 64 -141 l 113 -149 l 127 -132 l 136 -134 l 133 -151 l 146 -135 z "},":":{"ha":477,"x_min":-35,"x_max":469,"o":"m -10 1253 l 469 1246 l 469 1219 l 422 -233 l 369 -243 l -22 -229 l -30 -220 l -28 24 l -35 33 l -27 61 l -6 793 l -10 1253 z m 241 946 l 114 946 l 130 932 l 130 738 l 372 742 l 381 907 l 397 910 l 397 913 l 381 913 l 397 916 l 368 949 l 288 949 l 272 946 l 256 946 l 256 949 l 241 946 z m 328 593 l 132 585 l 130 500 l 143 490 l 130 481 l 130 472 l 143 463 l 143 453 l 130 453 l 142 425 l 352 423 l 353 555 l 340 564 l 340 574 l 354 583 l 340 592 l 328 593 z "},";":{"ha":544,"x_min":-60,"x_max":529,"o":"m 478 1233 l -60 1253 l 468 1237 l 194 1225 l 480 1214 l 479 1185 q 496 699 500 863 l 496 699 l 488 699 l 458 661 l 458 651 l 502 650 l 500 591 l 506 543 l 485 271 q 516 134 483 230 l 516 134 l 529 -246 l 522 -246 l 19 -242 l 12 -232 l 18 20 l 12 31 l 20 59 l 15 754 l 20 1231 l 478 1233 z m 248 330 l 144 357 l 149 322 l 90 -90 l 258 -134 l 344 219 l 359 222 l 360 228 l 347 232 l 361 234 l 375 292 l 353 310 l 288 327 l 273 324 l 260 328 l 262 333 l 248 330 z m 359 798 l 159 791 l 155 656 l 168 641 l 155 627 l 155 612 l 168 597 l 168 581 l 155 582 l 166 536 l 380 527 l 384 736 l 372 752 l 372 767 l 386 782 l 372 796 l 359 798 z "},";":{"ha":544,"x_min":-60,"x_max":529,"o":"m 478 1233 l -60 1253 l 468 1237 l 194 1225 l 480 1214 l 479 1185 q 496 699 500 863 l 496 699 l 488 699 l 458 661 l 458 651 l 502 650 l 500 591 l 506 543 l 485 271 q 516 134 483 230 l 516 134 l 529 -246 l 522 -246 l 19 -242 l 12 -232 l 18 20 l 12 31 l 20 59 l 15 754 l 20 1231 l 478 1233 z m 248 330 l 144 357 l 149 322 l 90 -90 l 258 -134 l 344 219 l 359 222 l 360 228 l 347 232 l 361 234 l 375 292 l 353 310 l 288 327 l 273 324 l 260 328 l 262 333 l 248 330 z m 359 798 l 159 791 l 155 656 l 168 641 l 155 627 l 155 612 l 168 597 l 168 581 l 155 582 l 166 536 l 380 527 l 384 736 l 372 752 l 372 767 l 386 782 l 372 796 l 359 798 z "},"<":{"ha":762,"x_min":-874,"x_max":882,"o":"m 1 1240 l 1 1240 l 289 1240 q 756 1221 252 1249 l 756 1221 l 744 1198 l 751 866 l 737 854 l 751 843 l 751 810 l 737 798 l 737 787 l 751 787 l 737 776 l 737 538 l 724 528 l 724 516 l 737 516 l 724 505 l 724 155 l 718 145 l 736 -286 l 676 -268 l 749 -263 l 736 -263 l 710 -286 l 684 -286 l 671 -275 l 631 -286 l 174 -251 l 174 -262 l 161 -251 l -22 -251 l -35 -239 l -48 -239 l -62 -251 l -75 -239 l -75 -251 l 289 -250 l 250 -250 l 236 -261 l 223 -250 l 14 -250 l 1 -238 l -12 -238 l 1 -227 l 40 1127 l 40 1138 l 79 1138 l 79 1149 l 40 1149 l 53 1161 l 53 1172 q 1 1240 1 1194 z m 724 1148 l 554 1193 l 554 1182 l 580 1159 l 593 1171 l 724 1148 z m -677 1103 l -677 1159 l -664 1159 l -664 1103 l -677 1103 z m 161 753 l 92 571 l 174 336 l 97 552 q 345 -59 252 144 l 345 -59 l 410 -71 l 410 -59 l 423 -71 l 659 -71 l 384 595 q 672 1091 610 954 l 672 1091 l 646 1091 l 633 1080 l 619 1091 l 370 1091 q 85 569 221 780 l 85 569 l 148 742 l 161 753 z m 672 911 l 659 911 l 646 866 l 659 854 l 672 854 l 672 866 l 659 866 l 672 877 l 672 911 z m 672 787 l 633 798 l 633 787 l 646 753 q 606 787 606 753 l 606 787 q 475 572 573 787 l 475 572 l 633 222 l 646 222 l 646 392 l 659 448 l 646 448 l 659 460 l 659 764 l 672 776 l 672 787 z m 855 606 l 855 719 l 869 719 l 869 606 l 855 606 z m 869 290 l 869 380 l 882 380 l 882 290 l 869 290 z m -861 256 l -782 268 l -717 256 l -717 178 l -743 178 l -743 166 l -730 132 l -717 144 l -703 144 l -703 110 l -743 110 l -769 132 l -821 110 l -835 121 l -848 110 l -874 155 l -861 166 l -874 178 l -769 200 l -769 212 q -808 234 -769 234 l -808 234 l -848 222 l -861 234 l -861 256 z "},"=":{"ha":1087,"x_min":-198,"x_max":1258,"o":"m -157 -227 l -197 -241 l -198 -176 l -180 -252 l 28 58 l 28 111 q -7 -106 -6 -132 l -7 -106 l -7 -93 l 28 149 l 24 513 q 25 493 23 547 q 26 479 26 440 l 26 479 l 21 907 l 37 934 l 956 961 l 959 637 l 20 612 l 23 484 l 25 367 l 425 395 l 960 411 l 963 87 l 125 62 l 125 49 l 24 54 l 1141 -73 l 836 -33 l 28 62 l -157 -227 z m -126 -135 l -102 -134 l -111 -135 l -119 -122 l -126 -135 z m 468 985 l 404 997 l 404 1010 l 435 1023 l 467 1012 l 468 985 z m 1065 -229 l 1057 -178 l 1064 -178 l 1056 -165 l 1056 -125 l 1063 -113 l 1055 -100 l 1055 -87 l 1063 -74 l 1055 -61 l 1055 -48 l 1063 -35 l 1055 -22 l 1054 17 l 1062 30 l 1054 43 l 1054 56 l 1061 68 l 1053 81 l 1053 94 l 1061 108 l 1053 121 l 1053 134 l 1061 146 l 1052 212 l 1059 263 l 1050 315 l 1059 328 l 1050 341 l 1222 989 l 1162 1032 l 1162 1045 l 1227 999 l 1185 517 l 1177 517 l 1129 555 l 1129 542 l 1161 530 l 1162 504 l 1145 503 l 1145 490 l 1154 491 l 1185 505 l 1179 427 l 1171 427 l 1122 438 l 1114 437 l 1114 425 l 1154 413 l 1179 414 l 1179 388 l 1131 386 l 1147 361 l 1155 361 l 1163 374 l 1171 374 l 1171 336 l 1156 335 q 1140 296 1156 296 l 1140 296 l 1132 309 l 1132 282 l 1156 283 l 1156 309 l 1164 309 l 1164 257 q 1133 231 1133 256 l 1133 231 l 1141 243 l 1156 244 l 1157 205 l 1133 205 l 1133 191 l 1149 192 l 1149 140 l 1122 -185 l 1114 -198 l 1122 -211 l 1193 -225 l 1200 -212 l 1200 -199 l 1193 -212 l 1160 -214 l 1152 -201 l 1145 -201 l 1145 -227 l 1065 -229 z m 1129 434 l 1138 370 l 1186 371 q 1138 395 1185 397 l 1138 395 l 1137 435 l 1185 436 l 1185 462 l 1145 460 l 1129 434 z m 1128 577 l 1128 564 q 1152 513 1148 565 l 1152 513 l 1160 500 l 1177 500 l 1184 566 l 1183 578 l 1135 590 l 1128 577 z m 1126 707 l 1159 630 l 1167 630 l 1183 656 l 1182 709 l 1126 707 z m 1125 810 l 1149 747 q 1181 786 1181 767 l 1181 786 l 1181 825 l 1156 863 l 1148 863 l 1125 810 z m 1124 914 l 1124 901 l 1132 902 l 1132 928 l 1179 929 l 1179 955 l 1131 954 l 1124 914 z m 1143 -97 l 1144 -149 q 1200 -109 1200 -134 l 1200 -109 l 1199 -96 l 1192 -96 l 1192 -121 l 1143 -97 z m 1143 -33 l 1159 -58 l 1199 -56 l 1198 -31 l 1183 -31 l 1183 -18 l 1198 21 l 1198 34 l 1174 7 l 1166 7 l 1142 33 l 1142 19 l 1158 -19 l 1158 -32 l 1143 -33 z m 1141 110 l 1165 72 l 1190 73 l 1196 138 l 1172 176 l 1164 176 l 1141 136 l 1141 110 z m 1171 293 l 1139 227 l 1196 216 l 1196 241 l 1171 241 l 1195 294 l 1194 319 l 1139 318 l 1139 292 l 1171 293 z m 1149 785 l 1133 811 l 1133 824 l 1173 825 l 1173 786 l 1149 785 z m 1165 98 l 1149 123 l 1164 150 l 1173 150 l 1189 125 l 1189 98 l 1165 98 z m 1152 538 l 1152 565 l 1176 566 l 1176 553 l 1160 526 l 1152 538 z m 1175 656 l 1151 656 l 1150 682 l 1175 682 l 1175 656 z m 1128 607 l 1128 581 l 1153 581 l 1152 595 l 1128 607 z m 1126 762 l 1126 749 l 1151 750 l 1151 763 l 1159 751 l 1183 751 l 1182 803 l 1174 803 l 1175 764 l 1158 764 l 1158 789 l 1126 762 z m 1133 905 l 1134 840 l 1141 841 l 1141 880 q 1158 841 1157 880 l 1158 841 l 1181 842 l 1181 894 l 1173 894 l 1173 854 l 1133 905 z m 1242 1129 l 1194 1128 l 1194 1141 l 1234 1155 l 1258 1156 l 1242 1129 z "},">":{"ha":742,"x_min":0,"x_max":864,"o":"m 838 1217 l 838 1217 l 765 1203 q 729 1121 765 1164 l 729 1121 l 767 -204 l 755 -216 l 767 -228 l 767 -252 l 864 -238 l 852 -250 l 840 -238 l 758 -250 l 628 -250 l 616 -262 l 604 -250 l 592 -250 l 581 -262 l 568 -262 l 557 -250 l 545 -250 l 159 -264 l 159 -252 l 147 -264 l 136 -264 l 53 -241 l 83 -164 l 59 886 l 47 886 l 59 898 l 54 1187 l 52 1192 l 66 1195 q 838 1217 486 1217 z m 212 1158 l 0 1146 l 0 1122 l 35 1122 l 71 1110 l 260 1146 l 260 1158 l 212 1158 z m 693 459 l 686 431 l 602 638 l 602 627 l 661 481 q 378 1051 486 859 l 378 1051 l 130 1051 q 366 555 130 1015 l 366 555 l 378 509 l 130 -164 l 330 -164 l 342 -152 l 354 -152 l 400 -164 q 448 -46 531 133 l 448 -46 q 659 467 492 39 l 659 467 l 693 459 z m 320 549 l 308 549 l 308 513 q 295 544 295 493 l 295 544 l 201 732 l 332 466 l 320 549 z "},"?":{"ha":538,"x_min":0,"x_max":475,"o":"m 228 1232 l 248 1252 l 258 1252 l 238 1232 l 228 1232 z m 50 1193 l 50 1203 l 109 1203 l 109 1193 l 50 1193 z m 119 1193 l 119 1203 q 465 1154 465 1177 l 465 1154 l 129 1183 l 119 1193 z m 0 860 l 30 1066 l 465 1036 l 465 772 l 475 547 l 465 478 l 475 331 q 436 -12 436 199 l 436 -12 l 436 -168 q 89 -246 436 -191 l 89 -246 l 79 -237 l 79 -168 q 30 458 79 148 l 30 458 l 39 635 l 20 654 l 20 821 l 0 860 z m 89 606 l 89 606 l 89 517 l 99 517 l 159 537 l 188 537 q 277 458 249 537 l 277 458 q 168 331 243 331 l 168 331 l 178 165 l 198 145 l 267 145 l 267 273 q 396 449 396 326 l 396 449 l 396 469 q 238 645 366 645 l 238 645 l 168 645 q 89 606 94 633 z m 267 47 l 159 47 l 159 -90 l 307 -90 l 297 57 l 288 47 l 277 47 l 277 57 l 267 47 z "},"@":{"ha":1209,"x_min":-342,"x_max":1172,"o":"m -161 665 l -161 770 l -134 770 l -134 665 l -161 665 z m -134 480 l -134 638 l -106 638 l -106 480 l -134 480 z m -342 -164 l 980 -33 q -260 -190 980 -106 l -260 -190 l -342 -217 l -342 -164 z m 612 -217 l 612 -190 l 708 -190 l 708 -217 l 612 -217 z m 418 -235 l 418 -199 l 490 -199 l 563 -225 l 418 -235 z m 297 -235 l 297 -208 l 345 -208 l 393 -225 l 393 -235 l 297 -235 z m 273 -217 l 273 -217 l 273 -243 l 7 -252 l 7 -235 l -18 -235 q -260 -261 -18 -261 l -260 -261 l -260 -243 q 273 -217 -260 -217 z m 1128 1236 l 1094 1244 l 1105 1236 l 1160 1244 l 1157 1244 l 1172 1229 l 1160 3 l 1120 11 l 1040 11 l 1007 3 l 966 11 l 981 37 l 956 162 q 638 113 797 113 l 638 113 q 229 408 336 113 l 229 408 l 214 525 l 214 555 q 572 1009 214 907 l 572 1009 l 653 1017 q 1040 676 1040 971 l 1040 676 l 1040 623 q 900 382 1004 382 l 900 382 l 892 382 q 867 431 867 389 l 867 431 q 941 824 867 488 l 941 824 l 933 836 l 793 836 q 768 774 789 774 l 768 774 q 620 850 768 817 l 620 850 q 336 582 428 850 l 336 582 l 336 498 q 532 245 336 298 l 532 245 l 591 245 q 753 340 753 287 l 753 340 l 779 340 q 874 264 812 264 l 874 264 l 915 264 q 1169 608 1099 264 l 1169 608 l 1169 642 q 779 1138 1169 1017 l 779 1138 l 661 1145 l 638 1145 q 81 692 233 1145 l 81 692 l 74 601 l 74 498 q 402 22 74 212 l 402 22 l 425 22 l 425 3 l 255 3 l 222 -4 l 196 3 l 189 -4 l 148 3 l 130 3 l 96 -4 l 89 3 l 81 3 l 48 -4 l 15 3 l -33 -4 l -33 3 l -40 -4 l 52 -4 l 44 3 l 37 -4 l 26 -4 l 3 3 l -3 -4 l -15 -4 l -37 3 l 7 -4 l -3 -4 l -11 3 l 51 -4 l 25 -4 q 0 30 3 -4 l 0 30 q 5 684 0 317 l 5 684 l 16 684 l 5 692 l 20 918 l 13 960 l 20 960 l 13 968 l 13 987 l 20 994 l 13 1002 l 13 1210 l 31 1229 l -52 1229 l 107 1229 l 277 1221 l 484 1229 l 694 1221 l 694 1236 l 1128 1236 z m 638 692 l 638 692 q 745 574 734 692 l 745 574 l 745 555 q 620 397 745 438 l 620 397 l 591 397 q 498 514 513 397 l 498 514 q 638 692 528 692 z m 498 -31 l 498 -12 l 524 -12 l 524 -31 l 498 -31 z m -15 -31 l 18 -23 l 26 -31 l 26 -38 l -15 -38 l -15 -31 z m 262 -38 l 262 -23 l 284 -23 l 269 -38 l 262 -38 z m 546 -45 l 546 -23 l 564 -23 l 564 -45 l 546 -45 z m 25 -31 l 25 -31 l 58 -31 l -235 -106 q 25 -31 -258 -106 z m 44 -45 l 59 -31 l -47 -31 l 52 -45 l 44 -45 z "},"A":{"ha":823,"x_min":-33,"x_max":835,"o":"m 56 1177 l 805 1237 l 815 1227 l 815 1217 l 795 1107 l 815 987 l 795 938 l 805 928 l 785 907 l 795 907 l 835 918 l 835 907 l 785 848 l 795 808 l 735 -190 l 725 -200 l 625 -190 l 526 -190 l 526 -160 l 515 -160 l 515 -190 l 506 -180 l 486 -180 l 475 -190 l 466 -180 l 326 -180 l 336 -170 l 336 -150 l 326 -150 l 326 -170 l 316 -170 l 136 -160 l 146 -150 l 146 -120 l 136 -120 l 117 -160 q 87 -110 87 -160 l 87 -110 l 77 -110 l 77 -150 l 26 -150 l 17 -140 l 7 -150 l -33 -150 l -13 199 l -23 209 l -3 229 l 47 1187 l 56 1177 z m 316 589 l 316 578 l 56 119 l 96 119 l 146 109 l 196 209 l 526 179 q 615 69 553 69 l 615 69 l 665 60 l 665 69 q 426 578 460 537 l 426 578 l 316 589 z m 246 279 l 366 498 l 386 498 l 486 249 l 246 279 z "},"B":{"ha":1016,"x_min":-102,"x_max":1008,"o":"m 570 1237 l 812 1237 l 704 1237 l 704 1228 l 883 1228 q 946 1237 910 1237 l 946 1237 q 972 968 946 1112 l 972 968 l 936 -219 l 982 -204 l 955 -222 l 292 -222 l 203 -231 l 203 -222 l 176 -240 l 167 -231 l 86 -231 l 86 -249 l 68 -249 l 77 -240 l 77 -231 l 5 -231 l -3 -142 l -3 -25 l -12 243 l 15 431 q -12 592 15 518 l -12 592 l -3 646 l -3 709 l -12 709 l -66 691 l -66 718 q -30 753 -30 718 l -30 753 l -21 745 l -12 745 l -12 762 l -30 1058 l -56 1040 q -75 1067 -75 1040 l -75 1067 l -66 1094 l -56 1094 q -39 1067 -39 1094 l -39 1067 l -30 1067 l -30 1094 l -39 1103 l -30 1103 l -47 1219 l -39 1228 l 77 1228 l 86 1237 l 95 1237 l 113 1219 l 140 1237 l 140 1228 l 212 1219 l 212 1228 l 220 1219 l 239 1219 l 248 1228 l 275 1219 l 283 1228 l 292 1228 l 301 1219 l 346 1228 l 552 1228 l 561 1219 l 570 1228 l 695 1228 l 695 1237 l 606 1237 l 588 1237 l 578 1237 l 570 1237 z m 955 1219 l 955 1237 l 991 1237 l 1008 1219 l 955 1219 z m 972 1201 l 1008 1210 q 972 1165 997 1168 l 972 1165 l 972 1183 l 991 1183 l 991 1192 l 972 1192 l 972 1201 z m 972 1103 l 972 1139 l 982 1139 l 982 1103 l 972 1103 z m 373 1103 l 131 1103 l 140 1094 l 140 1067 l 131 1058 l 140 1049 l 140 888 l 131 879 l 140 870 l 140 816 l 131 807 l 140 798 l 131 172 l 131 28 l 140 19 l 131 10 l 140 -16 l 131 -97 l 507 -97 q 848 118 773 -97 l 848 118 l 865 189 l 865 368 q 650 619 865 552 l 650 619 l 507 646 l 463 637 l 382 637 l 364 655 l 364 968 l 373 1103 z m 552 1094 l 543 1094 l 525 1049 q 552 1094 541 1049 l 552 1094 z m 534 905 l 507 905 l 507 879 l 534 879 l 534 905 z m -102 816 l -83 834 q -47 798 -83 814 l -47 798 l -47 807 l -56 816 l -47 816 l -21 781 l -30 753 q -83 798 -83 753 l -83 798 l -102 798 l -102 816 z m 391 592 l 391 592 q 614 413 614 592 l 614 413 l 614 118 q 454 -43 594 -43 l 454 -43 l 364 -43 l 364 574 q 391 592 364 592 z m -102 -97 l -102 -88 l -75 -88 l -12 -97 l -12 -106 l -56 -106 l -102 -97 z "},"C":{"ha":752,"x_min":0,"x_max":900,"o":"m 32 1218 l 77 1237 q 302 1205 77 1220 l 302 1205 l 328 1211 l 321 1205 l 321 1198 q 501 1179 501 1189 l 501 1179 l 508 1186 l 771 1154 l 771 1160 l 778 1154 l 823 1154 l 874 164 l 874 119 l 867 119 l 867 164 l 52 132 l 52 138 l 0 1166 l 6 1166 l 0 1173 l 0 1224 l 13 1224 l 19 1218 l 26 1218 l 32 1224 l 32 1218 z m 109 806 l 96 697 q 270 395 96 475 l 270 395 q 386 370 315 370 l 386 370 l 431 370 q 617 447 545 370 l 617 447 q 566 505 602 478 l 566 505 q 411 440 499 440 l 411 440 q 212 595 277 440 l 212 595 l 193 691 q 334 948 193 874 l 334 948 l 411 961 q 566 935 487 961 l 566 935 l 591 1006 l 585 1006 q 411 1038 509 1038 l 411 1038 q 109 806 187 1038 l 109 806 z m 874 3 l 874 100 l 880 100 l 893 -189 l 893 -202 l 887 -202 l 874 3 z m 893 -286 l 893 -254 l 900 -254 l 900 -286 l 893 -286 z "},"D":{"ha":736,"x_min":0,"x_max":726,"o":"m 134 1217 l 564 1244 l 686 1244 l 712 1055 q 672 625 690 625 l 672 625 l 726 477 q 659 397 689 477 l 659 397 l 686 370 l 686 357 l 672 343 l 672 330 l 670 -273 q 618 -235 604 -282 l 618 -235 l 591 -235 l 564 -261 l 578 -275 l 578 -302 l 14 -288 l 0 827 q 3 1205 10 1230 l 3 1205 l 54 1217 l 67 1230 l 134 1217 z m 349 1042 l 54 1029 l 108 222 q 605 397 625 233 l 605 397 q 659 585 641 397 l 659 585 l 659 625 q 404 1042 659 969 l 404 1042 l 349 1042 z m 215 907 l 336 907 q 511 639 511 907 l 511 639 l 511 612 q 256 370 511 370 l 256 370 l 242 370 l 201 894 l 215 907 z "},"E":{"ha":676,"x_min":-111,"x_max":1152,"o":"m -111 1200 l -70 1207 l 2 1207 l 58 1200 l 58 1192 l -111 1192 l -111 1200 z m 975 1165 l 988 1200 l 1015 1200 l 1015 1179 l 988 1165 l 975 1165 z m 338 1183 l 338 1192 l 523 1192 l 523 1183 l 338 1183 z m 1033 1186 l 1033 1252 l 1061 1239 l 1047 1206 l 1047 1192 l 1061 1192 l 1047 1047 l 1047 849 q 1019 776 1019 838 l 1019 776 l 1005 776 l 1005 789 l 1033 1133 l 1019 1139 l 1019 1146 l 1033 1186 z m 635 1131 l 644 1179 l 652 1179 l 652 1123 l 604 1123 l 612 1131 l 604 1139 l 604 1156 q 628 1131 628 1156 l 628 1131 l 635 1131 z m 259 1123 l 267 1171 l 283 1171 l 283 1164 l 275 1156 l 275 1147 l 283 1147 l 275 1123 l 259 1123 z m -85 1123 l -78 1164 l -70 1164 l -62 1116 l -62 1107 l -70 1107 l -85 1123 z m 66 1139 l 66 1164 l 82 1164 l 82 1139 l 66 1139 z m 178 1123 l 178 1164 l 195 1147 l 186 1147 l 195 1139 l 195 1123 l 178 1123 z m 668 1147 l 668 1164 l 684 1164 l 684 1123 l 660 1123 l 676 1139 l 668 1147 z m 844 1148 l 844 1183 l 858 1183 l 858 1148 l 844 1148 z m 1085 1148 l 1072 1183 l 1112 1183 l 1099 1148 l 1085 1148 z m 34 1156 l 42 1156 l 50 1123 l 26 1147 l 34 1156 z m 235 1139 l 235 1156 l 251 1156 l 251 1123 l 235 1123 l 243 1131 l 235 1139 z m 700 1123 l 700 1156 l 708 1156 l 716 1123 l 700 1123 z m 938 1148 l 924 1176 l 951 1176 l 964 1148 l 938 1148 z m 1125 1155 l 1152 1169 l 1152 1148 l 1125 1148 l 1125 1155 z m -5 1076 l 2 1116 l 66 1116 l 75 1107 l 82 1116 l 259 1107 l 635 1107 l 644 1099 l 652 1099 q 612 410 612 1099 l 612 410 l 620 -39 l 628 -47 l 620 -47 l 628 -55 l 628 -87 l 635 -248 l 459 -256 l 451 -264 l 444 -264 l 444 -256 l 435 -264 l 427 -264 l 58 -279 q 34 105 34 -70 l 34 105 l 34 137 l 307 313 q 26 378 181 353 l 26 378 l -5 1051 l 2 1059 l -5 1067 l -5 1076 z m 19 982 l 33 994 l 33 988 l 19 977 l 19 982 z m 387 964 l 387 964 l 401 985 l 215 985 l 229 916 l 229 892 l 243 536 l 246 536 l 229 476 l 358 476 l 379 515 q 286 607 286 512 l 286 607 l 272 607 l 286 619 l 286 755 l 372 755 l 461 756 l 459 768 l 459 780 l 458 779 l 458 791 l 286 791 l 286 958 l 272 940 l 272 952 l 329 964 l 387 952 l 415 952 l 429 952 l 515 952 l 515 988 l 458 988 q 387 964 387 985 z m 258 488 l 288 485 l 272 607 l 286 488 l 258 488 l 272 500 l 258 488 z m 1018 693 l 1018 755 l 1031 755 l 1099 197 l 1085 191 l 1099 156 q 1152 -271 1099 -60 l 1152 -271 l 1125 -271 l 1018 693 z m 544 524 l 429 524 l 444 512 l 386 518 l 357 518 l 401 512 l 387 512 l 357 479 l 544 479 l 544 524 z "},"F":{"ha":722,"x_min":-13,"x_max":875,"o":"m -13 1231 l -13 1231 l 36 1244 l 146 1238 l 709 1232 l 716 1223 l 712 1027 l 705 1018 l 712 1007 l 705 718 l 703 627 l 699 700 l 711 680 l 705 652 l 710 624 l 704 624 l 710 615 l 709 522 l 702 513 l 709 503 l 704 306 l 698 298 l 718 591 l 726 -45 l 684 -65 l 573 -59 l 547 -67 l 541 -57 l 4 -45 l 148 -68 l 14 -119 l 1 -117 q -13 1231 -7 321 z m 564 -3 l 564 -3 l 578 -4 l 578 -13 l 572 -16 l 572 -21 l 585 -31 l 610 -29 l 609 -33 l 603 -46 l 608 -46 q 633 -35 631 -46 l 633 -35 l 637 -35 l 668 -60 l 667 -69 l 654 -68 q 646 -54 644 -66 l 646 -54 l 641 -49 l 636 -49 l 625 -61 l 621 -56 l 612 -56 l 606 -59 l 602 -59 l 556 -33 l 552 -28 l 547 -32 l 543 -31 l 543 -18 q 564 -3 563 -20 z m 586 -26 l 587 -18 l 600 -23 l 600 -28 l 586 -26 z m 647 -81 l 648 -76 l 657 -77 l 661 -90 l 656 -90 l 647 -81 z m 728 -127 l 765 -100 l 770 -100 l 769 -104 q 728 -132 753 -134 l 728 -132 l 726 -158 l 712 -148 l 718 -144 l 718 -140 q 694 -129 718 -131 l 694 -129 l 696 -120 l 728 -127 z m 559 -90 l 560 -86 l 574 -92 l 573 -100 l 568 -100 l 559 -90 z m 648 -116 l 649 -107 l 654 -107 l 663 -117 l 662 -121 l 648 -116 z m 761 -139 l 761 -135 l 784 -146 q 763 -161 777 -163 l 763 -161 l 749 -156 l 749 -151 l 760 -152 l 760 -148 l 764 -153 l 774 -153 l 774 -149 q 761 -139 760 -148 l 761 -139 z m 784 -146 l 785 -137 l 799 -138 l 798 -147 l 784 -146 z m 693 -142 l 694 -133 l 704 -134 l 702 -151 l 693 -142 z m 641 -142 l 642 -133 l 654 -143 l 648 -160 l 639 -159 l 640 -151 l 645 -146 l 641 -142 z m 675 -176 l 669 -149 q 680 -172 680 -149 l 680 -172 l 680 -176 l 675 -176 z m 856 -187 l 857 -183 l 875 -189 l 865 -197 l 861 -193 l 856 -192 l 856 -22 l 835 -208 l 830 -208 l 841 -20 l 836 -20 l 813 -188 l 818 -184 l 822 -189 l 827 -189 l 832 -185 l 838 -186 l 851 -191 l 856 -187 z m 718 -188 l 713 -174 l 723 -176 l 736 -11 l 726 -19 l 722 -14 l 718 -188 z m 783 -203 l 798 -199 l 797 -204 l 806 -31 l 797 -29 l 783 -203 z m 751 -17 l 745 -199 l 760 -26 l 751 -17 z m 848 -39 l 850 -30 l 858 -39 l 857 -48 l 848 -39 z m 763 -35 l 764 -26 q 777 -45 771 -27 l 777 -45 l 772 -45 l 763 -35 z m 571 -40 l 572 -27 l 581 -37 l 581 -41 l 571 -40 z m 799 -60 l 786 -46 l 791 -46 l 804 -61 l 799 -60 z m 836 -68 l 829 -50 l 833 -51 l 852 -56 l 851 -65 l 836 -68 z m 825 -81 l 827 -68 l 836 -68 l 836 -73 l 825 -81 z m 798 -74 l 812 -71 l 812 -75 l 801 -83 l 796 -83 l 798 -74 z m 834 -86 l 844 -78 l 850 -79 l 839 -86 l 834 -86 z m 682 -81 l 688 -68 l 696 -78 l 686 -86 l 682 -85 l 682 -81 z m 836 -113 l 833 -99 l 847 -100 l 846 -113 l 836 -113 z m 777 -130 l 779 -112 l 784 -112 l 782 -130 l 777 -130 z m 574 -106 l 574 -102 l 583 -103 l 582 -116 l 574 -106 z m 640 -117 l 640 -113 l 648 -122 l 648 -127 l 640 -117 z m 552 -131 l 553 -118 l 563 -119 q 571 -133 561 -132 l 571 -133 l 570 -137 l 556 -136 l 552 -131 z m 728 -146 l 728 -142 l 736 -152 l 736 -156 l 728 -146 z m 646 -153 l 650 -153 l 649 -166 l 640 -157 l 646 -153 z m 281 73 l 292 78 q 280 59 292 66 l 280 59 l 281 73 z m 309 52 l 311 51 l 319 26 l 316 20 l 316 12 l 321 -11 l 318 -10 q 306 45 313 -9 l 306 45 l 309 52 z m 328 -58 l 329 -20 l 339 -60 l 328 -58 z m 313 -62 l 288 -47 l 287 -62 l 313 -68 l 313 -62 z m 600 922 l 77 945 q 73 115 61 946 l 73 115 l 77 109 l 77 42 l 257 31 l 266 43 l 257 -12 l 255 374 l 271 399 l 580 393 l 581 408 l 581 547 l 337 553 l 289 545 l 249 563 l 252 764 l 247 774 l 387 775 q 599 762 594 765 l 599 762 l 600 922 z m 292 -117 l 293 -88 l 301 -90 q 309 -115 300 -112 l 309 -115 l 306 -121 l 306 -128 l 311 -159 l 313 -153 l 319 -155 l 319 -170 l 313 -168 l 317 -191 l 315 -198 q 323 -214 323 -199 l 323 -214 l 319 -236 l 299 -231 q 312 -197 303 -195 l 312 -197 q 298 -171 313 -177 l 298 -171 l 302 -135 l 296 -134 l 296 -141 l 299 -149 l 289 -184 l 281 -182 l 281 -174 l 290 -155 l 288 -132 l 291 -132 l 297 -119 l 300 -119 l 300 -112 l 295 -111 l 292 -117 z m 309 -130 l 320 -124 q 311 -137 319 -139 l 311 -137 l 309 -137 l 309 -130 z m 84 -87 l 79 -71 l 82 -73 l 87 -89 l 84 -87 z m 96 -76 l 99 -76 l 98 -99 l 94 -83 l 96 -76 z m 279 -159 l 279 -122 l 285 -138 l 282 -144 l 285 -153 l 281 -159 l 279 -159 z m 121 -112 l 122 -90 l 125 -91 l 127 -113 l 121 -112 z m 222 -123 l 222 -115 l 228 -117 l 227 -139 l 222 -123 z m 123 -135 l 113 -110 l 115 -111 l 126 -136 l 123 -135 z m 200 -169 l 198 -146 l 215 -151 l 214 -165 l 212 -157 l 203 -155 l 203 -170 l 200 -169 z m 290 -221 l 295 -171 l 303 -195 l 303 -202 q 296 -231 297 -201 l 296 -231 l 290 -229 l 290 -221 z m 256 -220 l 269 -186 l 292 -192 l 292 -199 q 281 -227 283 -197 l 281 -227 l 256 -220 z m 191 -189 l 191 -174 l 211 -179 q 228 -205 220 -203 l 228 -205 l 221 -219 l 198 -213 l 191 -189 z m 116 -178 l 122 -165 l 179 -178 l 184 -195 l 178 -208 l 115 -193 l 116 -178 z m -4 -64 l 10 -60 l 16 -62 l 21 -78 l 18 -84 l -5 -79 l -4 -64 z "},"G":{"ha":1080,"x_min":0,"x_max":1100,"o":"m 858 1222 l 878 1242 l 888 1232 l 898 1232 l 908 1242 l 959 1212 l 968 1222 l 979 1222 q 999 1192 979 1192 l 999 1192 l 1059 1192 q 1100 1152 1059 1169 l 1100 1152 q 1059 264 1074 1107 l 1059 264 l 1019 213 l 1059 213 l 1059 -241 l 1040 -271 l 989 -261 l 979 -261 l 0 -241 l 20 1071 l 91 1071 l 121 1050 l 121 1071 l 141 1071 l 131 1061 l 131 1050 q 161 1031 161 1050 l 161 1031 q 252 1071 252 1047 l 252 1071 l 283 1061 l 293 1071 l 302 1071 l 333 1061 q 393 1091 333 1091 l 393 1091 l 494 1172 l 494 1162 l 555 1182 l 575 1182 l 585 1172 l 656 1202 l 707 1192 l 716 1202 l 736 1182 q 767 1202 736 1202 l 767 1202 l 798 1192 l 827 1222 l 827 1232 l 838 1222 l 858 1222 z m 143 519 l 143 519 l 143 291 q 519 160 143 176 l 519 160 l 764 160 q 1026 356 1026 160 l 1026 356 l 1026 438 l 1010 438 l 552 454 l 552 372 l 879 372 l 879 340 q 781 241 879 241 l 781 241 l 437 241 q 274 340 274 254 l 274 340 q 355 634 274 634 l 355 634 l 437 650 l 503 650 q 879 569 879 650 l 879 569 q 961 536 879 536 l 961 536 l 961 519 l 977 536 l 994 536 l 1010 519 l 1026 519 l 1026 618 q 405 732 1026 732 l 405 732 q 143 519 143 732 z "},"H":{"ha":530,"x_min":-497,"x_max":536,"o":"m 477 -190 l 473 -231 l 4 -227 q 10 564 -5 151 l 10 564 l 16 572 l 9 571 l 15 581 l 14 595 l 9 595 l 9 713 l 17 1175 l 27 1223 l 45 1208 l 536 1125 l 522 1031 q 534 558 524 557 l 534 558 l 532 480 l 532 465 l 515 635 l 494 146 l 500 139 q 486 98 500 99 l 486 98 l 491 90 l 492 67 l 486 75 l 480 73 l 481 66 l 493 52 l 483 77 l 476 83 l 437 47 l 432 46 l 484 -163 l 419 76 l 487 96 l 477 -216 q 477 -182 425 -189 l 477 -182 l 477 -190 z m 10 626 l -31 626 l -78 627 l -136 632 q -481 639 -331 650 l -481 639 l -497 635 l -480 630 l -465 629 l -450 637 l -416 638 q -107 625 -296 643 l -107 625 l -38 623 l 27 623 l 10 626 z m -9 1124 l -14 1203 l -17 1204 l -43 -111 l -37 -113 l -14 963 l -9 1124 z m -31 1243 l -47 462 l -60 -103 l -66 -119 l -63 103 l -55 440 q -31 1243 -37 1224 l -31 1243 z m -57 1086 l -52 1248 l -50 1245 l -48 1068 q -86 -133 -76 -153 l -86 -133 l -66 684 l -57 1086 z m 176 1094 l 119 1097 l 77 572 l 102 570 l 158 567 l 174 788 l 359 774 l 353 703 l 355 718 l 344 543 l 351 550 l 356 543 l 427 538 l 427 561 l 435 597 l 429 597 l 435 605 l 436 612 l 468 1064 l 429 1065 l 389 1073 l 368 836 l 245 848 l 182 851 l 187 877 l 200 1078 l 208 1085 l 176 1094 z m 125 638 l 120 644 l 132 644 l 132 638 l 124 613 l 119 613 l 119 624 l 125 638 z m 88 595 l 90 614 l 97 614 l 96 604 l 88 595 z m 5 78 l 1 79 l 0 49 l 4 49 l 5 78 z m -1 26 l -1 26 l -1 19 l 3 18 l -9 -47 l -4 -55 l 5 -56 l 11 -33 q -1 26 9 26 z m 5 -62 l 0 -62 l -6 -106 q 11 -160 0 -159 l 11 -160 l 12 -145 l 5 -62 z "},"I":{"ha":574,"x_min":0,"x_max":686,"o":"m 686 -241 l 686 -260 l 0 -252 l 1 -233 l 122 -235 l 122 -207 q 96 262 94 103 l 96 262 l 103 262 l 134 300 l 134 309 l 88 309 l 89 366 l 81 412 l 98 675 q 62 807 99 715 l 62 807 l 41 1173 l 49 1173 l 613 1242 l 621 1232 l 618 988 l 626 979 l 618 951 l 597 219 l 602 -241 l 686 -241 z m 356 6 l 461 5 l 448 52 l 418 653 l 248 654 l 240 129 l 227 119 l 227 111 l 240 110 l 227 101 l 226 16 l 251 -2 l 317 -3 l 330 6 l 343 6 l 343 -3 l 356 6 z m 248 729 l 444 737 l 446 822 l 433 831 l 446 840 l 446 850 l 433 859 l 433 869 l 446 869 l 433 897 l 224 899 l 223 767 l 235 758 l 235 748 l 222 739 l 235 730 l 248 729 z "},"J":{"ha":762,"x_min":0,"x_max":1143,"o":"m 743 1116 l 743 -239 l 736 -239 l 0 -271 l 44 -281 l 44 -264 l 51 -256 l 51 -248 l 22 28 q 24 -11 46 647 l 24 -11 q 38 1033 66 1168 l 38 1033 l 24 1091 l 18 1080 l 169 1100 l 206 1108 l 206 1100 l 228 1108 l 670 1116 l 670 1125 l 677 1116 l 729 1116 l 736 1125 l 743 1116 z m 433 892 l 433 892 l 433 855 l 514 855 l 514 212 q 407 39 514 101 l 407 39 l 393 52 l 395 83 q 286 176 367 176 l 286 176 q 132 87 152 176 l 132 87 l 128 70 q 292 -60 140 -20 l 292 -60 l 342 -58 q 673 175 644 -5 l 673 175 l 568 855 l 538 855 l 565 856 l 683 117 l 686 18 l 677 139 l 739 855 l 747 889 q 433 892 423 889 z m 42 293 l 42 378 l 66 350 l 66 293 l 54 222 l 18 222 l 18 250 l 31 264 l 18 279 l 18 307 l 31 293 l 42 293 z m 243 -277 l 918 -264 l 1143 -264 l 1143 -277 l 243 -277 z m 728 888 q 689 46 745 144 l 689 46 l 692 835 q 741 840 741 845 l 741 840 l 728 888 z m 689 23 l 725 254 l 727 256 q 689 23 758 123 l 689 23 z "},"K":{"ha":701,"x_min":0,"x_max":708,"o":"m 0 1217 l 0 1232 l 14 1232 l 14 1202 l 680 1232 l 680 610 l 694 448 l 680 374 l 694 374 l 680 359 l 680 63 l 83 33 l 69 18 q 0 1217 28 308 l 0 1217 z m 319 1114 l 83 1114 l 83 1069 l 139 1069 l 139 477 l 83 477 l 83 433 l 319 433 l 319 448 q 264 477 319 477 l 264 477 l 264 744 l 416 492 l 416 477 l 389 477 l 389 433 l 638 433 l 638 477 q 486 655 545 477 l 486 655 l 347 862 q 486 1055 427 1023 l 486 1055 q 528 996 493 996 l 528 996 l 597 996 l 597 1084 l 569 1114 l 500 1114 q 292 862 406 1114 l 292 862 l 277 847 l 264 847 l 264 1069 q 319 1099 319 1069 l 319 1099 l 319 1114 z m 69 -85 l 69 3 l 83 3 l 83 -85 l 69 -85 z m 416 -100 l 444 -70 l 472 -100 l 472 -115 l 416 -115 l 416 -100 z m 555 -115 l 555 -70 l 611 -70 l 611 -85 l 583 -115 l 555 -115 z m 652 -70 l 680 -70 l 680 -115 l 666 -115 l 638 -85 l 652 -70 z m 250 -115 l 250 -85 l 389 -85 l 389 -115 l 250 -115 z m 680 -470 l 708 -440 l 708 -455 l 680 -485 l 680 -470 z "},"L":{"ha":772,"x_min":-181,"x_max":1142,"o":"m 52 -192 l 52 -192 l 52 -175 l 53 -166 l 54 -159 l 45 -157 q 35 -121 47 -123 l 35 -121 l 39 -114 l 36 -88 q 26 -120 28 -87 l 26 -120 l 22 -119 l 76 -127 l 3 -82 l 0 -81 q 52 -114 60 -116 l 52 -114 q -17 -78 -9 -80 l -17 -78 l -25 -77 l 35 -120 l 31 -119 l -29 -75 l -37 -74 l 26 -126 l 26 -118 l 18 -116 l 19 -109 l 23 -100 l 23 -92 l 16 -91 l -50 -72 l -54 -71 l 3 -89 l -9 -102 l -13 -94 l -12 -77 l -3 -54 l -20 -51 l -20 -42 l -14 -35 l -14 -27 l -19 -34 l -23 -33 l -31 -16 l -14 -10 l -12 31 l -33 26 l -35 68 l -22 66 l -26 75 l -26 84 q -7 138 -9 102 l -7 138 q 7 178 5 136 l 7 178 l 12 177 q 19 1155 -3 665 l 19 1155 l 22 1230 l 766 1165 l 766 1156 l 770 1164 l 787 1160 l 794 1142 l 777 928 l 783 910 l 772 677 q 758 622 759 650 l 758 622 l 753 531 l 754 456 l 753 448 l 750 448 l 751 473 l 747 473 l 748 415 l 745 349 l 737 350 l 736 333 l 744 332 l 742 190 l 746 189 l 751 305 l 749 356 l 754 363 l 754 372 l 753 431 l 753 448 l 758 446 l 759 388 l 752 230 l 722 -203 q 52 -192 490 -208 z m 50 -61 l 46 -103 l 39 -102 l 34 -59 l 50 -61 z m -54 -52 l -65 -92 l -73 -92 l -69 -49 l -54 -52 z m -93 -47 l -96 -80 l -104 -79 l -101 -46 l -93 -47 z m -165 -41 l -167 -65 l -174 -64 l -181 -38 l -165 -41 z m 345 26 l 448 17 l 449 24 l 426 36 l 402 29 l 348 52 l 345 26 z m 1046 -169 l 1046 -180 l 995 -175 l 1015 61 l 1035 59 l 1034 36 q 1069 -24 1060 29 l 1069 -24 l 1100 -27 l 1099 -50 l 1088 -48 l 1079 -37 l 1058 -35 l 1057 -45 q 1122 -119 1112 -52 l 1122 -119 l 1113 -119 l 1072 -104 l 1048 -146 l 1048 -158 l 1038 -157 l 1040 -123 l 1061 -125 l 1062 -114 l 1031 -111 l 1017 -154 l 1046 -169 z m 342 1123 l 107 1122 l 102 146 q 113 -47 100 -99 l 113 -47 q 202 -46 21 -121 l 202 -46 l 644 -45 l 630 151 l 353 146 l 330 167 l 333 443 l 333 627 l 335 905 l 342 1123 z m 1142 1 l 1139 -33 l 1131 -31 l 1125 -6 l 1134 2 l 1142 1 z m -71 285 l -74 260 l -90 262 l -87 286 l -71 285 z m 960 749 l 970 748 l 960 749 z m 993 780 l 1015 801 l 1041 1105 l 1031 1106 l 993 780 z m 84 1132 l 82 1107 l 58 1109 l 60 1134 l 84 1132 z "},"M":{"ha":770,"x_min":-207,"x_max":862,"o":"m 528 1231 l 453 1221 l 453 1215 l 471 1211 l 488 1219 l 529 1211 l 528 1231 z m 606 -48 l 606 -37 l 606 -48 z m 568 -10 l 570 1 l 600 9 l 593 54 l 564 58 l 562 47 l 582 45 l 580 10 l 570 11 l 571 23 l 555 70 l 514 63 l 505 64 q 578 123 525 129 l 578 123 l 578 134 l 559 137 l 549 127 l 538 128 l 540 151 l 570 147 q 612 199 587 198 l 612 199 l 614 222 l 634 220 l 617 -16 l 568 -10 z m 503 153 l 505 187 l 513 186 l 519 176 l 510 153 l 503 153 z m 651 403 l 644 403 l 644 349 l 651 349 l 651 403 z m 628 224 l 612 203 l 609 -64 l 617 -63 l 628 224 z m 844 420 l 844 439 l 860 441 l 862 422 l 844 420 z m 626 1263 l 592 788 l 527 -60 l 522 -60 l 542 212 l 622 1263 l 626 1263 z m 486 -59 l 582 1274 l 583 1274 l 486 -58 l 486 -59 z m -81 158 q -105 155 -90 158 l -105 155 l -105 159 l -100 165 q -130 335 -112 165 l -130 335 l -126 347 l -123 344 q -89 372 -98 343 l -89 372 q -50 383 -50 372 l -50 383 l -47 379 l -13 393 l -2 387 l -4 317 l 302 302 l 136 220 l 142 418 l 176 440 l 179 440 l 241 430 l 183 440 l 186 444 l 171 444 l 152 440 l 149 445 l 145 440 l 142 440 q 152 811 153 741 l 152 811 l 161 811 q 247 462 199 638 l 247 462 l 248 458 l 244 454 q 281 300 224 562 l 281 300 l 272 243 l 431 233 l 353 564 l 252 1131 l 14 1131 l 0 621 l 3 602 l 0 602 l -6 428 l -3 427 l -9 419 l -13 419 l -16 423 l -22 419 l -40 419 q -90 412 -73 420 l -90 412 l -90 416 q -124 398 -110 398 l -124 398 q -138 435 -138 398 l -138 435 l -139 501 l -104 1232 l -94 1242 l 706 1263 l -74 1248 l 442 1240 q 351 569 434 1196 l 351 569 l 423 264 l 524 230 l 515 230 l 511 256 l 474 249 l 474 245 l 477 239 l 493 249 q 509 227 500 227 l 509 227 l 509 222 l 496 216 l 493 230 l 481 230 l 481 227 l 484 222 l 485 216 l 474 212 l 469 212 l 466 216 l 463 212 l 456 222 l 455 249 l 428 245 l 409 245 l 406 212 l 406 205 l 398 205 l 395 209 q 364 195 395 201 l 364 195 l 357 205 l 351 195 q 307 183 307 191 l 307 183 q 276 210 277 192 l 276 210 l 273 210 l 270 192 l 258 202 l 248 192 l 243 192 l 242 195 l 251 205 l 248 218 q 111 203 111 211 l 111 203 l 107 203 l 102 207 l 214 176 l -75 163 l -78 163 l -81 158 z m 199 199 l 202 212 l 210 212 l 210 208 l 203 199 l 199 199 z m 367 208 q 389 238 378 208 l 389 238 l 372 238 l 380 230 l 367 212 l 367 208 z m 332 222 l 335 222 l 347 234 l 326 234 l 332 222 z m -27 411 l -36 419 l -37 423 l -20 429 l -10 419 l -27 419 l -27 415 l -23 411 l -27 411 z m 72 415 l 68 415 l 64 419 l 68 441 l 75 441 l 72 429 l 72 424 l 75 419 l 72 415 z m 160 437 l 242 435 l 174 448 l 163 452 l 163 448 l 160 441 l 160 437 z m 163 263 l 395 266 l 399 265 l 444 454 l 484 469 l 488 469 l 490 465 l 491 468 l 495 472 l 479 475 l 458 474 l 456 479 l 452 475 l 448 476 q 537 814 524 745 l 537 814 l 546 812 q 565 189 562 218 l 565 189 l 136 307 l 709 282 q 686 1123 684 1120 l 686 1123 l 425 1131 l 370 729 l 370 711 l 366 712 l 326 582 l 347 799 l 338 613 l 348 1239 l 676 1263 l 705 1261 l 753 1261 l 777 261 q 783 258 766 293 l 783 258 l 809 204 l 800 206 l 802 232 l 781 228 q 793 203 783 205 l 793 203 l 791 199 l 778 196 l 777 210 l 764 212 l 764 209 l 766 204 l 766 198 l 753 197 l 749 197 l 746 202 l 741 199 l 736 210 l 682 210 l 680 202 l 672 203 l 669 208 q 634 200 667 201 l 634 200 l 629 212 l 619 203 q 572 199 574 208 l 572 199 q 545 231 542 213 l 545 231 l 541 231 l 534 214 l 524 227 l 511 219 l 505 220 l 506 224 l 517 232 l 516 244 q 370 255 371 262 l 370 255 l 366 256 l 361 260 l 163 263 z m 570 252 l 574 263 l 581 263 l 581 259 l 574 252 l 570 252 z m 349 457 l 340 465 l 340 469 l 356 475 l 366 465 l 349 465 l 349 460 l 353 457 l 349 457 z m 446 460 l 442 460 l 438 465 l 442 487 l 449 487 l 446 475 l 446 469 l 449 465 l 446 460 z m 605 1264 l 571 789 l 505 -58 l 502 -58 l 521 214 l 601 1265 l 605 1264 z m 587 -270 l 587 1255 l 587 1255 l 587 -270 l 587 -270 z m 564 281 l 564 -262 l 559 -262 l 555 942 l 555 1253 l 559 1253 l 564 281 z m 509 -270 l 509 1255 l 510 1255 l 510 -270 l 509 -270 z m 538 281 l 538 -262 l 534 -262 l 529 942 l 529 1253 l 534 1253 l 538 281 z m 484 -270 l 484 1255 l 484 1255 l 484 -270 l 484 -270 z m 416 281 l 416 -262 l 411 -262 l 406 942 l 406 1253 l 411 1253 l 416 281 z m 361 -270 l 361 1255 l 361 1255 l 361 -270 l 361 -270 z m 390 281 l 390 -262 l 385 -262 l 380 942 l 380 1253 l 385 1253 l 390 281 z m 335 -270 l 335 1255 l 336 1255 l 336 -270 l 335 -270 z m 410 281 l 410 -262 l 404 -262 l 399 942 l 399 1253 l 404 1253 l 410 281 z m 354 -270 l 354 1255 l 355 1255 l 355 -270 l 354 -270 z m 384 281 l 384 -262 l 378 -262 l 374 942 l 374 1253 l 378 1253 l 384 281 z m 328 -270 l 328 1255 l 329 1255 l 329 -270 l 328 -270 z m -66 1247 l -101 772 l -165 -75 l -170 -75 l -151 196 l -71 1247 l -66 1247 z m -207 -74 l -111 1258 l -111 1258 l -206 -74 l -207 -74 z m -87 1249 l -121 774 l -186 -73 l -191 -73 l -172 198 l -92 1249 l -87 1249 z m 570 -66 l 665 1266 l 666 1266 l 570 -65 l 570 -66 z m 164 281 l 164 -262 l 159 -262 l 154 942 l 154 1253 l 159 1253 l 164 281 z m 109 -270 l 109 1255 l 109 1255 l 109 -270 l 109 -270 z m 138 281 l 138 -262 l 133 -262 l 128 942 l 128 1253 l 133 1253 l 138 281 z m 83 -270 l 83 1255 l 83 1255 l 83 -270 l 83 -270 z m 132 281 l 132 -262 l 127 -262 l 121 942 l 121 1253 l 127 1253 l 132 281 z m 77 -270 l 77 1255 l 77 1255 l 77 -270 l 77 -270 z m 106 281 l 106 -262 l 101 -262 l 96 942 l 96 1253 l 100 1253 l 106 281 z m 50 -270 l 51 1255 l 51 1255 l 51 -270 l 50 -270 z "},"N":{"ha":706,"x_min":-96,"x_max":649,"o":"m 73 1178 l 81 1217 l 603 1171 q 649 379 603 793 l 649 379 l 642 372 l 649 372 l 642 363 l 642 349 l 649 349 l 642 233 l 642 -228 l 626 -274 l 549 -266 l 480 -266 l 441 -258 l 441 -266 l 434 -258 l 426 -258 l -19 -243 l -27 -235 l -35 -297 l -42 -297 l -50 -266 l -42 -243 q -73 -212 -50 -212 l -73 -212 l -65 -205 q -88 -120 -75 -120 l -88 -120 l -81 -43 l -81 -28 l -96 95 l -73 156 l -65 156 l -65 133 l -81 102 l -73 102 l -81 95 l -65 26 l -42 49 l -42 72 l -50 110 q -12 233 -32 110 l -12 233 l -12 279 l -19 287 q 3 326 -16 326 l 3 326 l -4 333 l -4 356 l 3 349 l 12 349 l 12 356 l -4 372 l 50 917 l 58 909 l 111 940 l 119 940 l 119 909 l 134 909 l 142 1002 l 142 1109 q 73 1171 142 1171 l 73 1171 l 73 1178 z m 219 1163 l 203 1147 l 203 1140 l 196 909 l 211 909 q 280 1147 211 1147 l 280 1147 l 288 1147 l 319 1140 l 319 1147 l 303 1163 l 288 1163 q 227 1132 260 1163 l 227 1132 l 227 1163 l 219 1163 z m 372 1155 l 357 1140 l 357 1109 l 349 901 l 365 901 l 380 1155 l 372 1155 z m 65 1101 l 73 1155 q 127 1101 127 1155 l 127 1101 l 127 1078 l 111 1063 l 65 1063 l 65 1101 z m 58 1040 l 73 1055 l 81 1055 l 127 1040 q 50 924 127 924 l 50 924 l 58 1002 l 58 1040 z m 157 456 l 88 456 l 65 -90 l 96 -90 l 188 -97 l 395 210 l 403 210 l 395 202 l 395 195 l 388 -104 l 395 -97 l 403 -104 l 488 -104 l 488 -81 l 495 -43 l 488 -43 l 495 -35 l 495 -28 l 511 441 l 465 441 l 426 448 l 180 95 l 173 95 l 180 102 l 180 110 l 188 441 l 196 448 l 157 456 z m -27 233 l -35 241 l -19 241 l -19 233 l -27 195 l -35 195 l -35 210 l -27 233 z m -50 164 l -50 195 l -35 195 l -35 179 l -50 164 z m -50 18 l -58 18 l -58 -12 l -50 -12 l -50 18 z m -58 -35 l -58 -35 l -58 -43 l -50 -43 l -65 -113 l -58 -120 l -42 -120 l -35 -97 q -58 -35 -42 -35 z m -42 -127 l -50 -127 l -58 -174 q -27 -228 -44 -228 l -27 -228 l -27 -212 l -42 -127 z "},"O":{"ha":853,"x_min":5,"x_max":899,"o":"m 89 1239 l 134 1247 l 139 1239 l 199 1247 l 661 1247 l 845 1239 l 854 1190 l 884 1206 l 899 1206 q 820 958 813 1215 l 820 958 l 830 892 l 830 876 q 820 801 820 859 l 820 801 l 815 801 l 820 793 l 805 -66 l 800 -190 l 566 -190 l 562 -181 l 557 -190 l 507 -181 l 15 -181 l 15 -149 l 20 -91 l 15 -41 l 5 686 l 9 694 l 5 694 l 9 718 l 15 1239 l 89 1239 z m 40 591 l 40 591 l 40 518 q 88 347 52 518 l 88 347 q 431 119 200 119 l 431 119 l 439 119 q 799 395 701 119 l 799 395 q 823 526 823 448 l 823 526 l 823 607 q 551 998 823 878 l 551 998 l 471 1006 l 399 1006 q 64 680 164 1006 l 64 680 q 40 591 64 591 z m 444 831 l 444 831 q 613 668 613 812 l 613 668 l 613 512 q 444 271 613 271 l 444 271 l 430 271 q 274 455 274 271 l 274 455 l 274 568 q 308 774 274 718 l 308 774 q 444 831 370 831 z "},"P":{"ha":691,"x_min":-173,"x_max":747,"o":"m 632 -53 q 102 -83 621 -50 l 102 -83 l 102 -92 l 115 -91 l 115 -99 l 96 -100 l 96 -84 l 77 -85 l 71 -94 l 64 -86 l -27 -61 l -15 45 l -16 54 l -22 53 l -26 20 q -47 67 -41 20 l -47 67 l -22 69 l -16 61 l -14 319 l -14 336 l -20 335 l -26 326 l -20 319 q -37 278 -22 278 l -37 278 l -43 277 l -37 286 l -37 294 q -61 260 -62 278 l -61 260 l -74 275 l -74 291 q -63 316 -62 292 l -63 316 q -33 334 -32 319 l -33 334 l -26 342 l -27 351 l -34 359 q -53 373 -52 357 l -53 373 l -53 381 l -9 376 l -20 1000 l -22 1081 l -53 1071 l -91 1069 l -91 1076 l -29 1088 q -21 1194 -20 1089 l -21 1194 l -21 1202 l 28 1205 q 27 1211 -3 1211 l 27 1211 l 75 1221 l 81 1221 l 598 1247 l 667 1244 l 673 1244 q 668 -54 685 925 l 668 -54 q 632 -53 643 -56 z m 703 -63 l 703 -55 l 746 -44 l 747 -60 l 703 -63 z m -168 -79 l -169 -63 l -147 -54 l -132 -69 l -168 -79 z m -172 -15 l -173 17 l -151 18 l -150 10 q -163 -14 -165 9 l -163 -14 l -172 -15 z m 357 47 l 365 47 l 356 79 l 341 78 l 357 47 z m 353 139 l 379 149 l 378 174 l 369 174 l 353 156 l 353 139 z m 109 307 l 115 186 l 277 201 l 263 366 l 254 530 l 429 538 q 673 730 654 549 l 673 730 l 667 842 l 675 851 l 664 893 q 368 1050 616 1063 l 368 1050 l 62 1035 l 64 1010 l 82 993 l 82 985 l 74 975 l 105 376 l 115 368 l 106 359 l 109 307 z m 270 565 l 252 581 l 229 1009 l 308 1013 q 488 919 482 1021 l 488 919 l 500 688 q 305 566 505 576 l 305 566 l 270 565 z "},"Q":{"ha":1036,"x_min":15,"x_max":1052,"o":"m 108 1204 l 163 1213 l 170 1204 l 191 1108 l 231 1222 l 1052 1204 l 1025 1067 l 1019 963 l 1017 1199 q 1025 950 1012 1179 l 1025 950 l 1038 881 l 1038 864 q 1025 787 1025 846 l 1025 787 l 1019 787 l 1025 778 l 1004 -92 l 855 -109 l 749 -52 l 694 33 l 543 -1 l 581 -95 l 650 -140 l 795 -180 l 812 -182 l 880 -182 l 896 -105 l 999 -87 l 988 -241 l 16 -238 l 15 1204 l 108 1204 z m 54 451 l 54 451 l 43 448 q 100 256 58 448 l 100 256 q 503 2 231 2 l 503 2 l 513 2 q 934 311 819 2 l 934 311 q 962 457 962 370 l 962 457 l 962 549 q 644 987 962 852 l 644 987 l 550 996 l 466 996 q 72 631 189 996 l 72 631 q 54 451 46 545 z m 517 800 l 517 800 q 715 616 715 778 l 715 616 l 715 442 q 517 171 715 171 l 517 171 l 501 171 q 318 378 318 171 l 318 378 l 318 505 q 358 736 318 673 l 358 736 q 517 800 431 800 z "},"R":{"ha":856,"x_min":-147,"x_max":766,"o":"m 44 1252 l 44 1252 l 766 1126 l 766 1079 l 761 1073 l 766 1067 l 761 1037 l 761 1031 q 707 798 761 870 l 707 798 q 689 332 689 589 l 689 332 l 683 332 l 689 326 l 683 296 l 683 123 q 564 -169 683 56 l 564 -169 l 564 -175 l 570 -175 l 570 -163 l 593 -175 l 659 -50 l 665 -50 l 665 -151 l 659 -157 l 665 -163 l 665 -271 l 653 -283 l 307 -264 q 295 -247 307 -247 l 295 -247 l 289 -264 q 157 -241 157 -254 l 157 -241 l 151 -247 l 140 -247 q 14 -32 65 -157 l 14 -32 l 2 -32 l -9 345 l 2 345 l 8 338 l 14 338 l 8 345 l 8 500 l 2 631 q 14 1139 14 772 l 14 1139 q 44 1252 14 1198 z m -111 1079 l -111 1079 l -105 1079 l -99 1061 l -93 1067 l -87 1067 l -69 1061 l -57 1073 l -57 1067 l -69 1031 l -75 1031 l -75 1043 l -81 1043 l -81 1031 l -93 1031 l -93 1043 l -105 1043 l -111 1037 l -129 1043 l -147 1037 l -147 1049 q -111 1079 -111 1057 z m 267 557 l 267 557 l 267 550 l 260 431 l 273 431 l 273 418 l 267 418 l 260 425 l 252 425 l 252 418 l 211 -27 l 218 -27 l 211 -34 l 211 -62 l 204 -145 l 239 -145 l 252 42 l 245 42 q 260 112 260 60 l 260 112 l 273 188 l 294 188 l 301 181 l 329 146 l 336 146 l 329 140 l 329 132 l 496 -173 l 531 -173 l 538 -180 l 545 -180 l 350 168 l 350 181 l 406 181 q 454 209 454 181 l 454 209 l 461 209 l 461 195 q 566 369 566 235 l 566 369 l 572 376 q 433 536 526 536 l 433 536 l 427 529 l 427 543 l 399 543 l 392 536 l 385 536 q 267 557 385 557 z m 288 397 l 308 522 q 524 418 477 522 l 524 418 l 531 369 l 524 369 l 531 362 l 531 355 l 524 313 l 531 307 q 468 237 519 307 l 468 237 q 440 216 440 237 l 440 216 l 433 223 l 399 216 l 315 216 l 308 209 l 301 209 q 273 223 301 223 l 273 223 l 273 264 l 280 271 l 280 279 l 267 279 l 267 286 l 280 286 l 280 292 q 294 390 280 352 l 294 390 l 288 397 z m 260 258 l 252 264 l 267 264 l 267 243 l 252 243 l 260 251 l 260 258 z m 197 -187 l 190 -187 l 183 -208 l 190 -208 l 197 -201 l 197 -187 z "},"S":{"ha":376,"x_min":-153,"x_max":764,"o":"m -153 241 l -153 397 l -140 397 l -122 241 l -119 397 l -114 241 l -114 85 l -122 85 l -153 241 z m -11 185 l -11 271 l 354 271 l 354 185 l -11 185 z m 194 820 l 194 820 l 282 820 l 300 670 l 290 670 l 220 647 q 194 716 212 716 l 194 716 l 150 716 l 133 693 l 133 670 q 273 612 133 640 l 273 612 l 317 543 l 317 474 q 123 313 317 330 l 123 313 l 36 313 q 1 463 16 313 l 1 463 l 80 486 q 141 405 80 405 l 141 405 q 185 439 185 419 l 185 439 l 185 463 q 54 520 185 486 l 54 520 l 1 589 l 1 659 q 194 820 1 790 z m 354 154 l 354 -208 l -14 -200 l -16 149 l 354 154 z m 52 -84 l 50 -30 l 71 -28 l 78 -71 l 73 -83 l 52 -84 z m 183 1254 l 178 1254 l 173 1246 l 173 1231 l 178 1231 l 188 1246 l 183 1254 z m 95 1238 l 85 1223 l 90 1216 l 100 1216 l 100 1238 l 95 1238 z m 227 1208 l 217 1193 l 217 1185 l 227 1185 l 227 1208 z m 573 1200 l 564 1185 l 568 1178 l 573 1178 l 578 1185 l 578 1200 l 573 1200 z m 139 1193 l 134 1193 l 130 1185 l 130 1170 l 134 1170 l 144 1185 l 139 1193 z m 359 1170 l 349 1155 l 349 1147 l 359 1162 l 359 1170 z m 266 1162 l 256 1147 l 271 1147 l 271 1162 l 266 1162 z m 183 1147 l 173 1147 l 173 1124 l 183 1140 l 183 1147 z m 617 1147 l 607 1133 l 612 1124 l 617 1124 l 622 1133 l 622 1147 l 617 1147 z m 95 1133 l 85 1133 l 85 1109 l 95 1124 l 95 1133 z m 402 1124 l 397 1124 l 393 1117 l 393 1109 l 397 1102 l 402 1102 l 407 1109 l 407 1117 l 402 1124 z m 310 1117 l 300 1102 l 304 1095 l 310 1095 l 310 1117 z m 500 1117 l 485 1117 l 495 1102 l 500 1109 l 500 1117 z m 222 1109 l 212 1095 l 212 1086 l 222 1102 l 222 1109 z m 578 1109 l 568 1109 l 568 1086 l 578 1086 l 578 1109 z m 134 1095 l 124 1079 l 124 1072 l 134 1086 l 134 1095 z m 666 1079 l 656 1095 l 651 1086 l 651 1072 l 666 1072 l 666 1079 z m 46 1079 l 37 1064 l 37 1057 l 41 1057 l 51 1072 l 51 1079 l 46 1079 z m 353 1072 l 344 1057 l 349 1048 l 353 1048 l 353 1072 z m 451 1072 l 437 1072 l 446 1057 l 451 1064 l 451 1072 z m 539 1072 l 534 1072 l 534 1057 l 549 1057 l 539 1072 z m 261 1064 l 251 1048 l 266 1048 l 266 1064 l 261 1064 z m 85 1041 l 75 1026 l 75 1019 l 85 1034 l 85 1041 z m 709 1034 l 695 1034 l 695 1026 l 705 1010 l 709 1019 l 709 1034 z m 495 1026 l 485 1010 l 500 1010 l 500 1026 l 495 1026 z m 304 1019 l 295 1003 l 300 996 l 304 996 l 310 1003 l 310 1019 l 304 1019 z m 212 1010 l 202 996 l 208 988 l 212 988 l 217 996 l 217 1010 l 212 1010 z m 124 1003 l 119 1003 l 115 996 l 115 981 l 119 981 l 130 996 l 124 1003 z m 41 988 l 27 988 l 27 973 l 41 973 l 41 988 z m 661 973 l 651 988 l 646 981 l 646 965 l 661 965 l 661 973 z m 549 965 l 539 981 l 539 958 l 549 958 l 549 965 z m 353 973 l 344 958 l 344 950 l 353 950 l 353 973 z m 256 965 l 246 950 l 246 943 l 261 943 l 261 965 l 256 965 z m 75 950 l 66 935 l 66 927 l 75 927 l 75 950 z m 304 920 l 300 920 l 295 912 l 295 897 l 300 897 l 310 912 l 304 920 z m 397 920 l 388 905 l 402 905 l 402 920 l 397 920 z m 602 920 l 588 920 l 597 905 l 602 912 l 602 920 z m 208 912 l 197 897 l 202 889 l 212 889 l 212 912 l 208 912 z m 119 905 l 105 905 l 105 889 l 119 889 l 119 905 z m 27 897 l 17 882 l 17 874 l 27 889 l 27 897 z m 553 867 l 544 882 l 539 874 l 539 859 l 553 859 l 553 867 z m 456 874 l 441 874 l 441 852 l 446 852 l 456 867 l 456 874 z m 353 867 l 344 867 l 344 844 l 349 844 l 359 859 l 353 867 z m 66 859 l 61 859 l 56 852 l 56 836 l 61 836 l 71 852 l 66 859 z m 261 859 l 246 859 l 246 844 l 261 844 l 261 859 z m 505 814 l 495 829 l 490 821 l 490 806 l 505 806 l 505 814 z m 607 821 l 593 821 l 593 806 l 607 806 l 607 821 z m 110 814 l 105 814 l 100 806 l 100 791 l 105 791 l 115 806 l 110 814 z m 202 791 l 197 791 l 202 791 z m 304 814 l 295 814 l 295 791 l 300 791 l 310 806 l 304 814 z m 407 814 l 393 814 l 393 791 l 402 791 l 407 814 z m 558 760 l 549 776 l 544 768 l 544 760 l 553 745 l 558 753 l 558 760 z m 154 768 l 149 768 l 144 760 l 144 745 l 149 745 l 159 760 l 154 768 z m 256 753 l 246 768 l 241 760 l 241 753 l 246 745 l 256 745 l 256 753 z m 451 768 l 441 753 l 441 745 l 456 745 l 456 768 l 451 768 z m 56 760 l 46 745 l 46 738 l 51 738 l 61 753 l 61 760 l 56 760 z m 359 760 l 344 760 l 344 745 l 349 745 l 359 760 z m 197 722 l 188 707 l 188 700 l 202 700 l 202 722 l 197 722 z m 304 722 l 290 722 l 290 715 l 300 700 l 304 707 l 304 722 z m 402 722 l 388 715 l 397 700 l 407 715 l 402 722 z m 105 715 l 95 715 l 95 700 l 105 684 l 110 707 l 105 715 z m 509 715 l 495 715 l 495 707 l 505 692 l 509 700 l 509 715 z m 612 715 l 597 715 l 597 692 l 612 692 l 612 715 z m 246 669 l 241 669 l 241 654 l 251 639 l 256 646 l 256 654 l 246 669 z m 353 669 l 339 669 l 339 662 l 349 646 l 353 646 l 353 669 z m 446 669 l 441 669 l 441 646 l 456 646 l 456 654 l 446 669 z m 159 646 l 149 662 l 144 654 l 144 646 l 154 631 l 159 639 l 159 646 z m 553 662 l 544 646 l 544 639 l 558 639 l 558 662 l 553 662 z m 66 639 l 56 654 l 51 646 l 51 624 l 56 624 l 66 639 z m 397 616 l 393 616 l 393 601 l 402 586 l 407 593 l 407 601 l 397 616 z m 202 608 l 193 593 l 202 578 l 208 578 l 212 601 l 208 608 l 202 608 z m 300 608 l 290 593 l 295 586 l 300 586 l 310 601 l 304 608 l 300 608 z m 505 608 l 490 608 l 490 601 l 500 586 l 505 593 l 505 608 z m 110 601 l 100 586 l 100 578 l 115 578 l 115 601 l 110 601 z m 607 601 l 593 601 l 593 578 l 597 578 l 607 593 l 607 601 z m 22 586 l 12 586 l 12 578 l 22 563 l 22 586 z m 251 555 l 246 555 l 241 533 l 246 525 l 261 533 l 261 541 l 251 555 z m 359 555 l 344 555 l 344 533 l 359 533 l 359 555 z m 456 555 l 441 555 l 441 533 l 456 533 l 456 555 z m 544 555 l 539 555 l 539 525 l 544 525 l 553 541 l 544 555 z m 163 548 l 149 548 l 149 525 l 154 525 l 163 541 l 163 548 z m 71 533 l 61 533 l 61 510 l 71 510 l 71 533 z m 304 503 l 290 495 l 295 472 l 300 472 l 310 487 l 304 495 l 304 503 z m 397 503 l 393 503 l 393 487 l 402 472 l 407 479 l 407 487 l 397 503 z m 202 495 l 193 479 l 197 472 l 208 472 l 208 495 l 202 495 z m 505 495 l 490 495 l 490 472 l 495 472 l 505 487 l 505 495 z m 597 479 l 588 495 l 583 487 l 583 465 l 588 465 l 597 479 z m 119 472 l 110 487 l 105 479 l 105 472 l 115 457 l 119 465 l 119 472 z m 37 472 l 22 472 l 22 449 l 27 449 l 37 465 l 37 472 z m 251 441 l 241 427 l 246 419 l 251 419 l 261 434 l 256 441 l 251 441 z m 359 441 l 344 441 l 344 419 l 359 419 l 359 441 z m 456 441 l 441 441 l 441 419 l 456 419 l 456 441 z m 159 434 l 154 434 l 154 419 l 163 404 l 168 412 l 168 419 l 159 434 z m 549 434 l 534 434 l 534 412 l 549 412 l 549 434 z m 81 412 l 71 427 l 66 419 l 66 396 l 71 396 l 81 412 z m 310 374 l 300 389 l 295 381 l 295 358 l 310 358 l 310 374 z m 402 389 l 393 374 l 402 358 l 407 358 l 407 389 l 402 389 z m 208 381 l 197 366 l 202 358 l 212 358 l 212 381 l 208 381 z m 505 381 l 490 381 l 490 374 l 500 358 l 505 358 l 505 381 z m 119 374 l 110 358 l 110 351 l 124 351 l 124 374 l 119 374 z m 583 374 l 578 374 l 578 351 l 593 351 l 593 358 l 583 374 z m 148 310 l 142 328 l 139 319 l 139 310 l 145 292 l 148 292 l 148 310 z m 203 328 l 197 310 l 203 292 l 206 292 l 209 319 l 206 328 l 203 328 z m 260 328 l 255 310 l 258 301 l 267 301 l 267 310 l 260 328 z m 90 319 l 85 301 l 90 283 l 93 292 l 93 319 l 90 319 z m 319 319 l 313 319 l 313 292 l 321 292 l 319 319 z m 368 310 l 362 310 l 362 283 l 368 283 l 368 310 z m 41 301 l 35 301 l 35 292 l 41 274 l 41 301 z m 6 292 l 1 274 l 1 265 l 6 265 l 6 292 z m 119 256 l 113 239 l 113 220 l 119 220 l 119 256 z m 174 256 l 168 239 l 171 229 l 180 229 l 180 239 l 174 256 z m 232 256 l 226 239 l 229 229 l 238 229 l 238 256 l 232 256 z m 295 256 l 287 256 l 287 229 l 295 229 l 295 256 z m 67 229 l 61 248 l 58 239 l 58 229 l 64 211 l 67 220 l 67 229 z m 345 248 l 338 229 l 342 220 l 347 220 l 347 248 l 345 248 z m 26 229 l 21 211 l 21 202 l 26 202 l 26 229 z m 267 175 l 260 193 l 258 184 l 258 157 l 267 157 l 267 175 z m 93 166 l 87 184 l 85 175 l 85 149 l 87 149 l 93 166 z m 145 184 l 139 166 l 142 157 l 145 157 l 151 175 l 148 184 l 145 184 z m 203 184 l 197 166 l 200 157 l 209 157 l 209 166 l 203 184 z m 321 184 l 316 184 l 316 166 l 321 149 l 324 175 l 321 184 z m 374 175 l 368 175 l 368 149 l 374 149 l 374 175 z m 47 166 l 41 166 l 41 139 l 47 139 l 47 166 z m 6 157 l 1 139 l 1 130 l 6 130 l 6 157 z m 238 103 l 232 121 l 229 113 l 229 85 l 232 85 l 238 103 z m 295 103 l 290 121 l 287 113 l 287 103 l 292 85 l 295 85 l 295 103 z m 117 113 l 111 94 l 113 85 l 117 85 l 122 103 l 119 113 l 117 113 z m 180 113 l 168 113 l 168 103 l 174 85 l 180 103 l 180 113 z m 350 94 l 345 113 l 342 103 l 342 94 l 347 76 l 350 85 l 350 94 z m 21 103 l 15 85 l 15 76 l 21 76 l 21 103 z m 64 103 l 58 85 l 61 76 l 64 76 l 67 85 l 67 103 l 64 103 z m 203 50 l 200 50 l 197 22 l 200 14 l 203 14 l 209 31 l 203 50 z m 267 31 l 260 50 l 258 40 l 258 14 l 267 14 l 267 31 z m 93 22 l 87 40 l 85 31 l 85 22 l 90 5 l 93 14 l 93 22 z m 151 40 l 139 40 l 139 31 l 145 14 l 151 31 l 151 40 z m 324 40 l 316 40 l 316 14 l 324 14 l 324 40 z m 376 22 l 370 40 l 370 14 l 376 14 l 376 22 z m 41 31 l 35 31 l 35 5 l 38 5 l 44 22 l 41 31 z m 174 -22 l 171 -22 l 171 -49 l 180 -49 l 180 -40 l 174 -22 z m 295 -40 l 290 -22 l 287 -31 l 287 -40 l 292 -58 l 295 -49 l 295 -40 z m 350 -31 l 342 -31 l 342 -58 l 345 -58 l 350 -40 l 350 -31 z m 750 1067 l 751 1067 l 751 1063 l 749 1066 l 750 1067 z m 751 941 l 753 939 l 751 937 l 748 939 l 751 941 z m 757 930 l 755 936 l 757 936 l 764 933 l 764 931 l 757 930 z m 726 905 l 725 909 l 728 909 l 728 908 l 726 905 z m 743 908 l 743 907 l 740 904 l 739 904 l 739 908 l 743 908 z m 741 866 l 741 870 l 743 867 l 742 866 l 741 866 z m 50 254 l 48 309 l 70 310 l 76 267 l 71 255 l 50 254 z m 302 788 l 288 781 l 292 758 l 297 758 l 307 773 l 302 781 l 302 788 z m 395 788 l 390 788 l 390 773 l 399 758 l 404 765 l 404 773 l 395 788 z m 199 781 l 190 765 l 195 758 l 205 758 l 205 781 l 199 781 z m 502 781 l 488 781 l 488 758 l 492 758 l 502 773 l 502 781 z m 595 765 l 585 781 l 580 773 l 580 750 l 585 750 l 595 765 z m 117 758 l 107 773 l 102 765 l 102 758 l 112 743 l 117 750 l 117 758 z m 34 758 l 19 758 l 19 735 l 24 735 l 34 750 l 34 758 z m 248 727 l 239 712 l 243 705 l 248 705 l 258 720 l 253 727 l 248 727 z m 355 727 l 341 727 l 341 705 l 355 705 l 355 727 z m 453 727 l 439 727 l 439 705 l 453 705 l 453 727 z m 156 720 l 151 720 l 151 705 l 161 689 l 165 697 l 165 705 l 156 720 z m 546 720 l 531 720 l 531 697 l 546 697 l 546 720 z m 78 697 l 68 712 l 63 705 l 63 682 l 68 682 l 78 697 z m 307 659 l 297 674 l 292 667 l 292 644 l 307 644 l 307 659 z m 399 674 l 390 659 l 399 644 l 404 644 l 404 674 l 399 674 z m 205 667 l 195 651 l 199 644 l 210 644 l 210 667 l 205 667 z m 502 667 l 488 667 l 488 659 l 497 644 l 502 644 l 502 667 z m 117 659 l 107 644 l 107 636 l 121 636 l 121 659 l 117 659 z m 580 659 l 575 659 l 575 636 l 590 636 l 590 644 l 580 659 z m 258 598 l 248 614 l 243 606 l 243 598 l 253 583 l 258 583 l 258 598 z m 351 614 l 341 598 l 351 583 l 355 583 l 361 606 l 355 614 l 351 614 z m 448 614 l 439 598 l 444 591 l 458 591 l 458 598 l 448 614 z m 161 606 l 151 591 l 161 576 l 165 583 l 165 606 l 161 606 z m 546 606 l 536 606 l 536 583 l 551 583 l 546 606 z m 78 591 l 68 591 l 68 583 l 78 568 l 78 591 z m 19 583 l 9 568 l 9 560 l 19 560 l 19 583 z m 210 553 l 199 538 l 199 522 l 210 522 l 210 553 z m 302 553 l 292 538 l 297 530 l 312 530 l 312 538 l 302 553 z m 399 553 l 390 538 l 395 530 l 410 530 l 410 553 l 399 553 z m 507 553 l 492 553 l 492 530 l 507 530 l 507 553 z m 121 530 l 112 545 l 107 538 l 107 530 l 117 515 l 121 522 l 121 530 z m 590 545 l 580 530 l 585 522 l 595 522 l 595 545 l 590 545 z m 54 530 l 43 515 l 43 507 l 54 507 l 54 530 z m 458 484 l 448 500 l 444 492 l 444 469 l 458 469 l 458 484 z m 165 477 l 156 492 l 151 484 l 151 462 l 156 462 l 165 477 z m 253 492 l 243 477 l 248 469 l 253 469 l 263 484 l 258 492 l 253 492 z m 351 492 l 341 477 l 346 469 l 361 469 l 361 477 l 351 492 z m 551 492 l 541 492 l 541 477 l 551 462 l 555 484 l 551 492 z m 87 477 l 78 477 l 78 454 l 87 454 l 87 477 z m 19 469 l 9 454 l 9 446 l 19 446 l 19 469 z m 410 424 l 399 439 l 395 431 l 395 408 l 399 408 l 410 424 z m 507 424 l 497 439 l 492 431 l 492 424 l 502 408 l 507 408 l 507 424 z m 205 431 l 195 416 l 199 408 l 205 408 l 214 424 l 210 431 l 205 431 z m 312 431 l 292 431 l 292 424 l 302 408 l 312 424 l 312 431 z m 600 416 l 590 431 l 585 424 l 585 416 l 595 401 l 600 408 l 600 416 z m 43 424 l 34 408 l 34 401 l 43 401 l 43 424 z m 117 424 l 107 408 l 112 401 l 117 401 l 121 408 l 121 424 l 117 424 z m 351 378 l 346 378 l 341 355 l 346 348 l 351 348 l 361 363 l 351 378 z m 458 363 l 448 378 l 444 370 l 444 348 l 458 348 l 458 363 z m 165 355 l 156 370 l 151 363 l 151 355 l 161 340 l 165 348 l 165 355 z m 263 370 l 243 370 l 243 363 l 253 348 l 263 363 l 263 370 z m 555 370 l 541 370 l 541 348 l 555 348 l 555 370 z m 78 363 l 68 363 l 68 340 l 73 340 l 83 355 l 78 363 z m 172 315 l 170 315 l 170 289 l 178 289 l 178 298 l 172 315 z m 294 298 l 288 315 l 285 307 l 285 298 l 291 279 l 294 289 l 294 298 z m 349 307 l 340 307 l 340 279 l 343 279 l 349 298 l 349 307 z m 88 734 l 86 781 l 122 782 l 132 745 l 124 735 l 88 734 z m 295 1257 l 281 1249 l 286 1227 l 290 1227 l 300 1242 l 295 1249 l 295 1257 z m 388 1257 l 383 1257 l 383 1242 l 393 1227 l 397 1234 l 397 1242 l 388 1257 z m 193 1249 l 183 1234 l 188 1227 l 197 1227 l 197 1249 l 193 1249 z m 495 1249 l 480 1249 l 480 1227 l 486 1227 l 495 1242 l 495 1249 z m 588 1234 l 578 1249 l 573 1242 l 573 1219 l 578 1219 l 588 1234 z m 110 1227 l 100 1242 l 95 1234 l 95 1227 l 105 1211 l 110 1219 l 110 1227 z m 27 1227 l 12 1227 l 12 1204 l 17 1204 l 27 1219 l 27 1227 z m 241 1196 l 232 1181 l 237 1174 l 241 1174 l 251 1189 l 246 1196 l 241 1196 z m 349 1196 l 334 1196 l 334 1174 l 349 1174 l 349 1196 z m 446 1196 l 432 1196 l 432 1174 l 446 1174 l 446 1196 z m 149 1189 l 144 1189 l 144 1174 l 154 1158 l 159 1166 l 159 1174 l 149 1189 z m 539 1189 l 524 1189 l 524 1166 l 539 1166 l 539 1189 z m 71 1166 l 61 1181 l 56 1174 l 56 1151 l 61 1151 l 71 1166 z m 300 1128 l 290 1143 l 286 1136 l 286 1113 l 300 1113 l 300 1128 z m 393 1143 l 383 1128 l 393 1113 l 397 1113 l 397 1143 l 393 1143 z m 197 1136 l 188 1120 l 193 1113 l 203 1113 l 203 1136 l 197 1136 z m 495 1136 l 480 1136 l 480 1128 l 490 1113 l 495 1113 l 495 1136 z m 110 1128 l 100 1113 l 100 1105 l 115 1105 l 115 1128 l 110 1128 z m 573 1128 l 568 1128 l 568 1105 l 583 1105 l 583 1113 l 573 1128 z m 251 1067 l 241 1082 l 237 1075 l 237 1067 l 246 1052 l 251 1052 l 251 1067 z m 344 1082 l 334 1067 l 344 1052 l 349 1052 l 353 1075 l 349 1082 l 344 1082 z m 441 1082 l 432 1067 l 437 1060 l 451 1060 l 451 1067 l 441 1082 z m 154 1075 l 144 1060 l 154 1044 l 159 1052 l 159 1075 l 154 1075 z m 539 1075 l 529 1075 l 529 1052 l 544 1052 l 539 1075 z m 71 1060 l 61 1060 l 61 1052 l 71 1037 l 71 1060 z m 12 1052 l 3 1037 l 3 1029 l 12 1029 l 12 1052 z m 203 1022 l 193 1006 l 193 991 l 203 991 l 203 1022 z m 295 1022 l 286 1006 l 290 999 l 305 999 l 305 1006 l 295 1022 z m 393 1022 l 383 1006 l 388 999 l 402 999 l 402 1022 l 393 1022 z m 500 1022 l 486 1022 l 486 999 l 500 999 l 500 1022 z m 115 999 l 105 1015 l 100 1006 l 100 999 l 110 984 l 115 991 l 115 999 z m 583 1015 l 573 999 l 578 991 l 588 991 l 588 1015 l 583 1015 z m 46 999 l 37 984 l 37 977 l 46 977 l 46 999 z m 451 954 l 441 968 l 437 961 l 451 954 z m 246 961 l 237 946 l 241 939 l 246 939 l 256 954 l 251 961 l 246 961 z m 344 961 l 334 946 l 339 939 l 353 939 l 353 946 l 344 961 z m 544 961 l 534 961 l 534 946 l 544 930 l 549 954 l 544 961 z m 81 946 l 71 946 l 71 923 l 81 923 l 81 946 z m 12 939 l 3 923 l 3 916 l 12 916 l 12 939 z m 402 893 l 393 908 l 388 901 l 388 878 l 393 878 l 402 893 z m 500 893 l 490 908 l 486 901 l 486 893 l 495 878 l 500 878 l 500 893 z m 197 901 l 188 885 l 193 878 l 197 878 l 208 893 l 203 901 l 197 901 z m 305 901 l 286 901 l 286 893 l 295 878 l 305 893 l 305 901 z m 593 885 l 583 901 l 578 893 l 578 885 l 588 870 l 593 878 l 593 885 z m 37 893 l 27 878 l 27 870 l 37 870 l 37 893 z m 110 893 l 100 878 l 105 870 l 110 870 l 115 878 l 115 893 l 110 893 z m 344 847 l 339 847 l 334 825 l 339 817 l 344 817 l 353 832 l 344 847 z m 451 832 l 441 847 l 437 840 l 437 817 l 451 817 l 451 832 z m 256 840 l 237 840 l 237 832 l 246 817 l 256 832 l 256 840 z m 549 840 l 534 840 l 534 817 l 549 817 l 549 840 z m 71 832 l 61 832 l 61 809 l 66 809 l 76 825 l 71 832 z m 295 787 l 290 787 l 290 764 l 305 764 l 305 771 l 295 787 z m 500 771 l 490 787 l 486 779 l 486 771 l 495 756 l 500 764 l 500 771 z m 593 779 l 578 779 l 578 756 l 583 756 l 593 771 l 593 779 z "},"T":{"ha":848,"x_min":-20,"x_max":988,"o":"m 96 1238 q 939 1238 860 1238 l 939 1238 l 922 1175 l 988 317 l 955 -136 l 64 -182 l 31 348 l 80 363 l 80 379 l 31 707 l 47 722 l 179 722 l 212 67 l 229 -11 l 427 5 l 444 5 l 410 738 l 543 738 l 543 926 l 526 941 l 526 957 l 14 926 l 14 1004 l -2 1082 l -20 1196 l 80 1206 l 96 1222 l 96 1238 z m 967 161 l 871 155 l 871 111 l 878 105 l 878 100 l 871 100 l 878 77 l 974 77 l 974 122 l 967 161 z "},"U":{"ha":848,"x_min":0,"x_max":796,"o":"m 47 1198 l 462 1214 l 468 1206 l 468 1214 l 475 1206 l 568 1206 l 783 1191 l 789 1072 l 789 488 l 796 480 l 796 473 l 789 473 l 796 465 l 796 -119 l 495 -119 l 448 -111 l 448 -119 l 441 -111 l 435 -111 l 73 -119 l 26 -119 l 26 -111 l 14 543 l 7 551 l 14 551 l 7 559 l 7 820 l 14 827 l 7 836 l 7 914 l 0 970 l 7 970 l 0 977 l 0 1159 l 7 1167 l 7 1175 l 0 1175 l 7 1206 l 47 1198 z m 87 1120 l 80 1120 l 80 386 q 208 125 80 180 l 208 125 q 408 78 317 78 l 408 78 q 709 267 646 78 l 709 267 l 715 370 l 715 1120 l 709 1112 l 609 1112 l 602 1120 l 595 1112 l 582 1112 l 575 1120 l 568 1112 l 549 1112 l 542 1120 l 535 1112 l 515 1112 l 509 1120 l 502 1112 l 455 1112 l 448 1120 l 441 1120 l 441 362 q 415 252 441 252 l 415 252 l 381 252 q 355 386 355 252 l 355 386 l 355 1120 l 348 1112 l 301 1112 l 294 1120 l 288 1112 l 187 1112 l 161 1120 l 134 1112 l 134 1120 l 127 1112 l 94 1112 l 87 1120 z "},"V":{"ha":716,"x_min":-65,"x_max":722,"o":"m 718 -173 l 718 -112 l 722 -112 l 722 -173 l 718 -173 z m 77 1109 l 77 1255 l 112 1255 l 112 1109 l 254 1109 l 254 1230 q 357 1109 357 1230 l 357 1109 l 498 1109 l 516 1182 q 691 1109 691 1168 l 691 1109 l 673 -62 l 655 -231 l 393 -231 l 375 -207 l 357 -231 l 269 -207 l -65 -207 l -12 1109 l 77 1109 z m 431 -241 l 439 -234 l 443 -234 l 450 -241 l 446 -241 l 443 -238 l 439 -238 l 435 -241 l 435 -245 q 454 -257 454 -248 l 454 -257 l 446 -264 l 431 -264 l 431 -257 l 435 -261 l 446 -261 l 446 -253 q 431 -245 431 -253 l 431 -245 l 431 -241 z m 458 -264 l 458 -234 l 462 -234 l 462 -250 l 473 -241 l 477 -241 l 473 -245 l 473 -250 l 477 -261 l 466 -253 l 462 -264 l 458 -264 z m 500 -238 l 500 -234 l 504 -234 q 515 -257 507 -257 l 515 -257 q 527 -238 518 -238 l 527 -238 l 527 -241 q 511 -264 518 -264 l 511 -264 l 507 -264 l 500 -238 z m 562 -250 l 580 -234 l 580 -238 l 573 -257 l 569 -253 l 565 -253 l 562 -264 l 557 -264 l 557 -238 l 562 -238 l 562 -250 z m 614 -245 l 630 -234 l 642 -238 l 642 -245 l 637 -241 l 626 -241 l 618 -250 l 618 -253 l 626 -261 l 633 -261 q 642 -245 642 -261 l 642 -245 l 645 -245 l 645 -261 l 633 -269 l 626 -269 l 614 -257 l 614 -245 z m 275 977 l 119 932 l 133 881 l 132 871 l 298 93 l 134 872 l 309 88 q 471 88 439 90 l 471 88 l 477 88 l 470 81 l 604 943 l 434 977 l 436 977 l 379 500 q 275 977 326 758 l 275 977 z m 489 -264 l 489 -238 l 492 -238 l 492 -264 l 489 -264 z m 530 -245 l 538 -238 l 538 -264 l 530 -264 l 530 -245 z m 546 -264 l 546 -238 l 550 -238 l 550 -264 l 546 -264 z m 584 -264 l 587 -238 l 591 -238 l 591 -250 l 607 -238 l 610 -238 l 603 -257 l 599 -253 l 595 -253 l 591 -264 l 584 -264 z m 664 -245 l 664 -238 l 675 -238 l 683 -245 l 683 -250 l 671 -264 l 683 -264 l 683 -269 l 660 -269 l 680 -245 l 675 -241 l 671 -241 l 668 -245 l 664 -245 z m 691 -269 l 687 -238 l 699 -238 l 699 -261 l 691 -269 z "},"W":{"ha":781,"x_min":-461,"x_max":878,"o":"m 407 -168 l 407 -109 l 410 -109 l 410 -168 l 407 -168 z m 234 -234 l 239 -227 l 241 -227 l 245 -234 l 243 -234 l 241 -231 l 239 -231 l 236 -234 l 236 -238 q 248 -249 248 -241 l 248 -249 l 243 -256 l 234 -256 l 234 -249 l 236 -253 l 243 -253 l 243 -245 q 234 -238 234 -245 l 234 -238 l 234 -234 z m 250 -256 l 250 -227 l 252 -227 l 252 -241 l 259 -234 l 262 -234 l 259 -238 l 259 -241 l 262 -253 l 255 -245 l 252 -256 l 250 -256 z m 276 -231 l 276 -227 l 278 -227 q 285 -249 280 -249 l 285 -249 q 292 -231 286 -231 l 292 -231 l 292 -234 q 283 -256 286 -256 l 283 -256 l 280 -256 l 276 -231 z m 313 -241 l 324 -227 l 324 -231 l 319 -249 l 317 -245 l 315 -245 l 313 -256 l 310 -256 l 310 -231 l 313 -231 l 313 -241 z m 345 -238 l 355 -227 l 361 -231 l 361 -238 l 359 -234 l 352 -234 l 347 -241 l 347 -245 l 352 -253 l 356 -253 q 361 -238 361 -253 l 361 -238 l 363 -238 l 363 -253 l 356 -260 l 352 -260 l 345 -249 l 345 -238 z m 269 -256 l 269 -231 l 271 -231 l 271 -256 l 269 -256 z m 294 -238 l 299 -231 l 299 -256 l 294 -256 l 294 -238 z m 303 -256 l 303 -231 l 306 -231 l 306 -256 l 303 -256 z m 326 -256 l 328 -231 l 331 -231 l 331 -241 l 340 -231 l 342 -231 l 338 -249 l 335 -245 l 333 -245 l 331 -256 l 326 -256 z m 375 -238 l 375 -231 l 382 -231 l 387 -238 l 387 -241 l 380 -256 l 387 -256 l 387 -260 l 372 -260 l 385 -238 l 382 -234 l 380 -234 l 378 -238 l 375 -238 z m 391 -260 l 389 -231 l 395 -231 l 395 -253 l 391 -260 z m -121 275 l -121 -269 l -126 -269 l -132 935 l -132 1246 l -126 1246 l -121 275 z m -176 -277 l -176 1249 l -176 1248 l -176 -277 l -176 -277 z m 24 1257 l 24 1257 l 27 1249 l 30 1249 l 24 1211 l 192 1193 l 196 1198 l 199 1198 q 324 1177 199 1187 l 324 1177 l 327 1193 l 319 1206 l 319 1211 l 324 1211 l 333 1198 l 345 1211 l 347 1187 l 350 1187 q 378 1221 350 1211 l 378 1221 q 417 1206 378 1211 l 417 1206 l 423 1193 l 430 1206 q 458 1187 458 1198 l 458 1187 l 460 1193 l 469 1193 l 469 1183 l 471 1141 l 489 1141 l 513 1136 l 513 1170 l 520 1183 l 523 1177 l 526 1183 l 530 1183 l 540 1177 l 540 1170 l 537 1164 l 537 1160 l 548 1160 l 551 1177 l 562 1170 l 562 1164 q 548 1136 554 1164 l 548 1136 l 534 1149 l 530 1141 l 530 1136 l 565 1126 l 568 1160 l 576 1160 l 484 1116 l 422 730 q 406 269 406 335 l 406 269 q 372 -180 381 -180 l 372 -180 l 358 -180 q 285 -170 304 -180 l 285 -170 l 271 -176 l 268 -176 l 264 -170 l 262 -176 l 245 -176 l 240 -170 l 231 -176 q 151 -165 151 -176 l 151 -165 l 149 -170 l -59 -170 l -68 -157 l -24 821 l -24 905 q -12 951 -24 951 l -12 951 q 20 928 1 951 l 20 928 l 20 934 q 64 924 35 924 l 64 924 l 81 924 l 86 918 l 89 924 l 92 924 l 98 913 l 96 913 l 134 610 l 137 610 l 134 587 l 196 68 l 245 68 l 248 63 l 251 68 l 254 68 l 257 63 l 262 68 l 279 68 l 336 63 l 425 736 l 492 1157 l 347 1145 l 341 980 l 345 975 q 324 877 335 975 l 324 877 l 327 872 l 327 867 q 279 389 293 587 l 279 389 l 271 389 q 231 895 271 479 l 231 895 l 234 895 l 237 890 l 240 895 l 257 890 l 271 890 l 268 895 l 268 900 l 264 895 l 262 895 l 231 924 l 223 1175 l 220 1175 l 98 1196 l 89 1190 l 86 1196 l 86 1175 q 96 1162 96 1175 l 96 1162 l 89 1147 l 92 1147 l 89 1139 l 89 1134 l 92 1128 l 89 1105 q 98 1026 94 1026 l 98 1026 l 96 998 l 98 964 l 89 957 l 58 975 l 55 970 q 20 985 55 985 l 20 985 q -12 1021 12 1021 l -12 1021 l -15 1016 l -18 1031 q 7 1247 -3 1247 l 7 1247 l 2 1255 l 2 1260 q 24 1257 16 1257 z m 310 1183 l 307 1198 l 310 1198 l 316 1187 l 316 1183 l 310 1183 z m 447 1187 l 447 1187 l 447 1183 l 458 1160 l 452 1149 l 465 1149 q 447 1187 456 1187 z m 420 1170 l 417 1170 l 413 1154 l 430 1154 l 420 1170 z m 113 918 l 120 928 l 123 928 l 120 924 l 120 918 l 134 918 l 127 905 l 113 913 l 113 918 z m 199 924 l 203 924 l 205 918 l 203 913 l 203 905 l 205 890 l 199 890 l 196 918 l 199 924 z m 288 890 l 276 895 l 276 890 l 279 882 l 279 877 l 288 882 l 288 890 z m 408 1100 l 341 1169 l 503 1127 l 507 1132 l 511 1132 q 632 1112 511 1122 l 632 1112 l 635 1127 l 627 1140 l 627 1145 l 632 1145 l 641 1132 l 652 1145 l 655 1122 l 658 1122 q 685 1155 658 1145 l 685 1155 q 723 1140 685 1145 l 723 1140 l 730 1127 l 735 1140 q 762 1122 762 1132 l 762 1122 l 766 1127 l 773 1127 l 773 1117 l 777 1077 l 793 1077 l 817 1072 l 817 1105 l 823 1117 l 827 1112 l 830 1117 l 834 1117 l 844 1112 l 844 1105 l 840 1099 l 840 1095 l 851 1095 l 854 1112 l 865 1105 l 865 1099 q 851 1072 857 1099 l 851 1072 l 838 1084 l 834 1077 l 834 1072 l 867 1062 l 871 1095 l 878 1095 l 848 1034 q 780 720 830 994 l 780 720 q 713 224 713 290 l 713 224 q 680 -216 688 -216 l 680 -216 l 666 -216 q 594 -205 612 -216 l 594 -205 l 581 -211 l 577 -211 l 574 -205 l 571 -211 l 555 -211 l 550 -205 l 541 -211 q 463 -201 463 -211 l 463 -201 l 460 -205 l 340 -175 l 430 692 l 410 458 l 425 734 l 447 559 l 450 559 l 447 536 l 507 28 l 555 28 l 557 23 l 561 28 l 564 28 l 566 23 l 571 28 l 588 28 l 644 23 q 766 934 746 836 l 766 934 l 793 1055 l 685 1077 q 669 1040 685 1040 l 669 1040 l 675 1022 q 666 999 666 1022 l 666 999 l 669 994 q 648 921 656 994 l 648 921 l 652 916 q 632 821 643 916 l 632 821 l 635 816 l 635 810 q 588 342 602 536 l 588 342 l 581 342 q 541 838 581 431 l 541 838 l 544 838 l 547 833 l 550 838 l 566 833 l 581 833 l 577 838 l 577 843 l 574 838 l 571 838 l 541 866 l 534 1112 l 530 1112 l 412 1133 l 403 1128 l 399 1133 l 399 1112 q 408 1100 408 1112 l 408 1100 z m 618 1117 l 616 1132 l 618 1132 l 625 1122 l 625 1117 l 618 1117 z m 752 1122 l 752 1122 l 752 1117 l 762 1095 l 757 1084 l 770 1084 q 752 1122 762 1122 z m 726 1105 l 723 1105 l 719 1089 l 735 1089 l 726 1105 z m 425 861 l 433 871 l 436 871 l 433 866 l 433 861 l 447 861 l 439 848 l 425 856 l 425 861 z m 511 866 l 513 866 l 517 861 l 513 856 l 513 848 l 517 833 l 511 833 l 507 861 l 511 866 z m 597 833 l 585 838 l 585 833 l 588 825 l 588 821 l 597 825 l 597 833 z m -147 275 l -147 -269 l -152 -269 l -157 935 l -157 1246 l -153 1246 l -147 275 z m -203 -277 l -203 1249 l -202 1248 l -202 -277 l -203 -277 z m -225 275 l -225 -269 l -230 -269 l -235 935 l -235 1246 l -230 1246 l -225 275 z m -280 -277 l -280 1249 l -279 1248 l -279 -277 l -280 -277 z m -251 275 l -251 -269 l -256 -269 l -260 935 l -260 1246 l -256 1246 l -251 275 z m -306 -277 l -306 1249 l -305 1248 l -305 -277 l -306 -277 z m -429 -277 l -429 1249 l -428 1248 l -428 -277 l -429 -277 z m -399 275 l -399 -269 l -404 -269 l -409 935 l -409 1246 l -404 1246 l -399 275 z m -454 -277 l -454 1249 l -454 1248 l -454 -277 l -454 -277 z m -435 -277 l -435 1249 l -435 1248 l -435 -277 l -435 -277 z m -406 275 l -406 -269 l -411 -269 l -416 935 l -416 1246 l -411 1246 l -406 275 z m -461 -277 l -461 1249 l -460 1248 l -460 -277 l -461 -277 z m -22 275 l -22 -269 l -25 -269 l -28 935 l -28 1246 l -25 1246 l -22 275 z m -57 -277 l -57 1249 l -56 1248 l -56 -277 l -57 -277 z m -39 275 l -39 -269 l -41 -269 l -45 935 l -45 1246 l -41 1246 l -39 275 z m -73 -277 l -73 1249 l -73 1248 l -73 -277 l -73 -277 z "},"X":{"ha":589,"x_min":-16,"x_max":603,"o":"m 591 -24 l 596 -229 l -3 -229 l -15 -210 l 1 985 l -15 1153 l -16 1171 l 535 1149 l 583 256 l 590 14 l 603 -3 l 591 -24 z m 395 13 l 547 23 l 546 59 l 378 540 q 536 948 436 686 l 536 948 l 389 954 l 277 684 q 175 972 219 886 l 175 972 l 15 962 l 14 958 l 181 526 l -7 55 l -5 27 l 132 23 l 283 342 l 395 13 z "},"Y":{"ha":620,"x_min":7,"x_max":1002,"o":"m 60 1192 l 614 1119 l 621 1128 l 631 564 l 633 503 l 633 287 l 640 278 l 633 278 l 633 269 l 641 260 l 642 217 l 635 208 l 642 209 l 642 -8 l 650 -285 l 636 -286 l 636 -269 l 622 -286 l 615 -278 l 608 -278 l 601 -287 l 558 -288 l 551 -280 l 544 -289 l 530 -290 l 523 -281 l 523 -290 l 516 -290 l 509 -282 l 501 -282 l 466 -292 l 459 -284 l 459 -292 l 452 -292 l 445 -285 l 416 -294 l 389 -287 l 317 -290 l 311 -298 l 303 -290 l 197 -294 l 190 -286 l 183 -295 l 169 -295 l 161 -287 l 155 -296 l 91 -298 l 84 -290 l 84 -298 l 49 -291 l 41 -292 l 47 -264 l 47 -256 l 40 -248 l 47 -248 l 54 -239 q 31 -197 43 -196 l 31 -197 l 36 -127 l 26 -32 l 33 -32 l 40 -23 l 33 -14 l 44 81 l 37 81 l 42 142 l 42 151 l 35 159 l 48 185 l 41 194 l 39 246 l 44 307 l 37 315 l 37 323 l 43 333 l 36 332 l 49 376 l 33 446 l 39 480 l 38 507 l 52 507 l 52 524 l 38 524 l 50 576 l 43 585 l 42 593 l 49 628 l 40 663 l 40 680 l 47 689 l 16 758 l 28 818 l 22 818 l 7 835 l 20 869 l 60 1175 l 53 1183 l 60 1192 z m 978 920 l 961 903 l 969 895 l 1002 895 l 1002 920 l 978 920 z m 821 845 l 879 854 l 887 854 q 846 821 883 837 l 846 821 l 846 829 l 838 821 l 821 821 l 821 845 z m 681 804 l 681 845 l 714 845 l 722 812 l 714 804 l 681 804 z m 315 211 l 392 211 l 410 211 l 410 481 q 562 828 466 606 l 562 828 l 421 833 l 313 604 q 216 848 258 774 l 216 848 l 63 840 l 62 836 l 222 469 l 222 220 l 224 214 l 321 215 l 319 314 l 315 211 z "},"Z":{"ha":940,"x_min":0,"x_max":1011,"o":"m 18 1139 l 827 1181 l 601 1107 q 690 1118 818 1225 l 690 1118 l 694 1105 l 770 1107 l 788 1102 l 787 1090 l 780 1081 l 779 1069 l 791 1065 l 798 1076 l 789 1113 l 825 1103 q 875 1171 827 1123 l 875 1171 l 900 -119 l 801 -115 l 803 -93 q 726 -117 773 -131 l 726 -117 l 720 -116 l 714 -103 l 713 -115 q 345 -106 623 -136 l 345 -106 l 316 -87 l 315 -98 q 233 -98 313 -115 l 233 -98 l 235 -76 l 229 -74 q 35 -79 227 -102 l 35 -79 l 37 1 l 37 13 l 56 8 l 56 20 l 39 24 l 19 377 l 26 386 l 27 397 q 20 538 9 403 l 20 538 l 22 549 l 41 555 l 42 566 l 37 579 q 22 549 24 583 l 22 549 l 16 551 l 18 1139 z m 0 1041 l 0 1019 l 25 1025 l 25 1037 l 0 1041 z m 10 880 l 10 857 l 28 854 l 29 877 l 10 880 z m 14 709 l 14 686 l 19 674 l 38 682 l 26 706 l 14 709 z m 56 964 l 55 941 l 67 939 l 80 960 l 56 964 z m 64 791 l 64 769 l 83 765 l 83 788 l 64 791 z m 68 621 l 68 597 l 74 585 l 92 593 l 81 617 l 68 621 z m 72 437 l 71 414 l 83 412 l 96 433 l 72 437 z m 69 267 l 81 242 l 94 239 l 94 262 l 69 267 z m 73 118 l 72 96 l 91 93 l 91 115 l 73 118 z m 106 1046 l 106 1023 l 124 1021 l 125 1043 l 106 1046 z m 110 874 l 121 850 l 134 871 l 134 882 l 116 885 l 110 874 z m 119 702 l 119 680 l 132 677 l 144 699 l 119 702 z m 123 520 l 134 495 l 140 494 l 147 505 l 135 529 l 129 530 l 123 520 z m 126 349 l 125 326 l 144 322 l 144 345 l 126 349 z m 136 188 l 123 167 l 136 165 l 148 185 l 136 188 z m 127 52 l 127 30 l 134 28 l 146 49 l 127 52 z m 125 -73 l 125 -95 l 144 -87 l 144 -75 l 125 -73 z m 151 1118 l 151 1095 l 169 1093 l 170 1116 l 151 1118 z m 161 957 l 161 946 l 167 934 l 185 942 l 185 954 l 161 957 z m 164 786 l 176 761 l 189 760 l 189 793 l 171 796 l 164 786 z m 174 614 l 174 591 l 192 588 l 193 611 l 174 614 z m 190 440 l 177 419 l 177 408 l 195 406 l 196 439 l 190 440 z m 174 261 l 186 235 l 193 235 l 199 245 l 199 256 l 193 269 l 174 261 z m 172 125 l 172 113 l 191 110 l 191 132 l 172 125 z m 183 9 l 170 -12 l 176 -12 l 189 8 l 183 9 z m 218 1039 l 205 1018 l 230 1015 l 218 1039 z m 227 878 l 214 857 l 239 854 l 227 878 z m 237 706 l 224 685 l 224 673 l 243 671 l 243 694 l 237 706 z m 235 524 l 222 503 l 246 499 l 247 522 l 235 524 z m 225 343 l 224 332 l 231 319 l 250 328 l 250 339 l 243 351 l 225 343 z m 233 69 l 220 48 l 227 47 l 239 67 l 233 69 z m 229 184 l 229 161 l 235 159 l 248 180 l 229 184 z m 262 1100 l 250 1079 l 274 1076 l 262 1100 z m 260 952 l 272 928 l 284 926 l 284 949 l 260 952 z m 269 780 l 281 755 l 288 755 l 294 765 l 282 789 l 276 791 l 269 780 z m 286 607 l 273 586 l 298 583 l 298 605 l 286 607 z m 276 426 l 288 401 l 301 422 l 301 433 l 283 436 l 276 426 z m 280 266 l 280 243 l 298 240 l 298 263 l 280 266 z m 317 1023 l 304 1002 l 329 998 l 317 1023 z m 333 872 l 321 851 l 320 840 l 338 838 l 339 860 l 333 872 z m 324 691 l 336 667 l 349 688 l 324 691 z m 340 518 l 327 497 l 352 494 l 352 516 l 340 518 z m 343 347 l 331 326 l 349 323 l 350 346 l 343 347 z m 328 178 l 328 167 l 334 155 l 347 175 l 347 186 l 334 189 l 328 178 z m 361 1107 l 349 1086 l 374 1082 l 374 1105 l 361 1107 z m 372 945 l 359 924 l 384 921 l 384 944 l 372 945 z m 375 785 l 375 751 l 393 748 l 393 759 l 382 785 l 375 785 z m 378 603 l 378 580 l 391 578 l 404 598 l 378 603 z m 382 420 l 394 395 l 400 395 l 407 405 l 394 429 l 388 431 l 382 420 z m 379 261 l 379 238 l 397 235 l 398 258 l 379 261 z m 376 102 l 376 79 l 395 76 l 395 99 l 376 102 z m 410 1030 l 410 1008 l 416 995 l 429 1016 l 429 1027 l 410 1030 z m 433 867 l 420 846 l 420 835 l 438 831 l 439 854 l 433 867 z m 423 686 l 435 662 l 448 659 l 448 682 l 423 686 z m 433 514 l 433 492 l 451 488 l 452 511 l 433 514 z m 430 332 l 442 308 l 448 307 l 455 317 l 455 329 l 449 341 l 430 332 z m 427 173 l 427 151 l 446 148 l 446 170 l 427 173 z m 425 25 l 425 3 l 444 0 l 444 22 l 425 25 z m 468 1124 l 455 1103 l 455 1091 l 467 1089 l 473 1099 l 474 1110 l 468 1124 z m 477 951 l 465 930 l 490 926 l 477 951 z m 474 769 l 487 744 l 493 743 l 493 777 l 481 780 l 474 769 z m 478 598 l 477 575 l 490 573 l 503 593 l 478 598 z m 481 427 l 481 404 l 499 401 l 500 422 l 481 427 z m 478 245 l 490 220 l 496 219 l 503 229 l 503 241 l 497 253 l 478 245 z m 476 85 l 475 74 l 481 62 l 494 83 l 476 85 z m 503 1038 l 515 1013 l 522 1012 l 528 1022 l 516 1047 l 510 1048 l 503 1038 z m 519 865 l 519 842 l 538 838 l 538 861 l 519 865 z m 522 682 l 535 657 l 541 655 l 547 666 l 547 677 l 541 689 l 522 682 z m 538 509 l 526 488 l 551 483 l 551 505 l 538 509 z m 530 328 l 530 316 l 535 304 l 548 325 l 549 336 l 536 338 l 530 328 z m 527 157 l 538 132 l 545 132 l 551 142 l 540 166 l 533 168 l 527 157 z m 570 958 l 558 938 l 583 933 l 570 958 z m 581 774 l 568 754 l 592 749 l 592 772 l 581 774 z m 577 593 l 577 570 l 602 566 l 602 589 l 577 593 z m 593 418 l 581 399 l 581 387 l 599 384 l 600 406 l 593 418 z m 578 239 l 578 217 l 596 214 l 597 237 l 578 239 z m 575 69 l 574 46 l 587 45 l 600 66 l 575 69 z m 604 1055 l 603 1033 l 627 1028 l 628 1051 l 604 1055 z m 612 861 l 612 849 l 618 837 l 631 857 l 631 868 l 618 871 l 612 861 z m 622 677 l 622 665 l 628 653 l 634 651 l 640 662 l 640 673 l 635 685 l 629 686 l 622 677 z m 631 505 l 631 481 l 650 478 l 637 503 l 631 505 z m 629 322 l 629 300 l 647 296 l 648 319 l 629 322 z m 626 152 l 626 129 l 638 127 l 651 147 l 626 152 z m 623 -18 l 623 -41 l 642 -44 l 642 -21 l 623 -18 z m 658 956 l 657 932 l 675 929 l 676 951 l 658 956 z m 661 772 l 661 750 l 667 749 l 680 769 l 661 772 z m 677 600 l 664 578 l 664 567 l 676 566 l 677 600 z m 674 64 l 674 41 l 680 41 l 693 62 l 674 64 z m 703 1050 l 703 1027 l 709 1015 l 715 1014 l 721 1024 l 709 1048 l 703 1050 z m 706 857 l 718 831 l 724 830 l 730 840 l 718 865 l 712 867 l 706 857 z m 715 684 l 703 663 l 728 659 l 715 684 z m 719 513 l 706 492 l 706 480 l 718 479 l 725 489 l 725 500 l 719 513 z m 722 330 l 709 309 l 728 306 l 728 329 l 722 330 z m 726 158 l 713 138 l 731 135 l 732 157 l 726 158 z m 763 949 l 751 928 l 769 925 l 770 948 l 763 949 z m 754 768 l 754 746 l 772 742 l 773 765 l 754 768 z m 764 596 l 751 575 l 770 572 l 770 595 l 764 596 z m 767 425 l 754 404 l 754 393 l 767 391 l 773 401 l 773 412 l 767 425 z m 758 244 l 758 221 l 764 220 l 777 241 l 758 244 z m 799 852 l 799 841 l 805 829 l 817 848 l 799 852 z m 812 509 l 800 488 l 818 485 l 818 496 l 812 509 z m 810 338 l 797 317 l 815 315 l 815 337 l 810 338 z m 801 168 l 800 146 l 806 144 l 819 165 l 801 168 z m 853 1139 l 840 1119 l 859 1115 l 859 1126 l 853 1139 z m 854 422 l 842 401 l 860 398 l 861 421 l 854 422 z m 849 92 l 836 72 l 854 68 l 855 91 l 849 92 z m 899 505 l 886 484 l 892 484 l 905 505 l 899 505 z m 891 28 l 878 8 l 878 -3 l 891 16 l 891 28 z m 930 113 l 918 93 l 936 89 l 937 112 l 930 113 z m 932 591 l 931 580 l 937 568 l 950 588 l 932 591 z m 941 430 l 928 409 l 947 406 l 947 429 l 941 430 z m 954 41 l 954 18 l 960 17 l 972 38 l 954 41 z m 975 196 l 962 176 l 968 176 l 981 195 l 975 196 z m 1002 -24 l 989 -45 l 1008 -47 l 1008 -25 l 1002 -24 z m 1011 123 l 998 102 l 1004 101 l 1011 123 z m 1007 260 l 1007 260 z m 626 62 l 627 62 l 628 263 l 631 252 l 345 267 l 338 267 l 331 248 l 332 269 l 636 861 l 631 962 l 633 991 l 240 1010 l 234 1011 l 227 992 l 227 1013 l 195 997 l 176 1000 l 172 870 l 178 850 l 172 831 l 422 813 l 429 812 l 436 830 l 436 811 l 171 313 l 170 150 l 168 70 l 626 62 z m 731 -107 l 722 -92 l 694 -108 l 676 -108 l 675 -93 l 721 -76 l 730 -76 l 731 -107 z m 677 -140 l 640 -140 l 658 -108 l 676 -108 l 677 -140 z m 466 -158 l 465 -142 l 429 -142 l 429 -158 l 466 -158 z m 401 -159 q 326 -111 400 -126 l 326 -111 l 299 -127 l 300 -159 l 310 -175 l 391 -142 l 392 -159 l 401 -159 z m 290 -143 l 290 -127 l 187 -96 l 170 -97 q 236 -159 170 -132 l 236 -159 l 290 -143 z "},"[":{"ha":66,"x_min":-882,"x_max":2549,"o":"m 562 -277 l 562 1249 l 563 1248 l 563 -277 l 562 -277 z m 536 -277 l 536 1249 l 537 1248 l 537 -277 l 536 -277 z m 459 -277 l 459 1249 l 460 1248 l 460 -277 l 459 -277 z m 433 -277 l 433 1249 l 433 1248 l 433 -277 l 433 -277 z m 310 -277 l 310 1249 l 311 1248 l 311 -277 l 310 -277 z m 284 -277 l 284 1249 l 285 1248 l 285 -277 l 284 -277 z m 304 -277 l 304 1249 l 304 1248 l 304 -277 l 304 -277 z m 278 -277 l 278 1249 l 279 1248 l 279 -277 l 278 -277 z m 692 -277 l 692 1249 l 692 1248 l 692 -277 l 692 -277 z m 666 -277 l 666 1249 l 667 1248 l 667 -277 l 666 -277 z m 58 -277 l 58 1249 l 59 1248 l 59 -277 l 58 -277 z m 33 -277 l 33 1249 l 33 1248 l 33 -277 l 33 -277 z m 26 -277 l 26 1249 l 26 1248 l 26 -277 l 26 -277 z m 0 -277 l 0 1249 l 1 1248 l 1 -277 l 0 -277 z m 1444 -277 l 1444 1249 l 1444 1248 l 1444 -277 l 1444 -277 z m 1418 -277 l 1418 1249 l 1419 1248 l 1419 -277 l 1418 -277 z m 1341 -277 l 1341 1249 l 1341 1248 l 1341 -277 l 1341 -277 z m 1314 -277 l 1314 1249 l 1315 1248 l 1315 -277 l 1314 -277 z m 1192 -277 l 1192 1249 l 1192 1248 l 1192 -277 l 1192 -277 z m 1166 -277 l 1166 1249 l 1166 1248 l 1166 -277 l 1166 -277 z m 1185 -277 l 1185 1249 l 1186 1248 l 1186 -277 l 1185 -277 z m 1160 -277 l 1160 1249 l 1160 1248 l 1160 -277 l 1160 -277 z m 1573 -277 l 1573 1249 l 1574 1248 l 1574 -277 l 1573 -277 z m 1548 -277 l 1548 1249 l 1548 1248 l 1548 -277 l 1548 -277 z m 940 -277 l 940 1249 l 941 1248 l 941 -277 l 940 -277 z m 914 -277 l 914 1249 l 915 1248 l 915 -277 l 914 -277 z m 907 -277 l 907 1249 l 908 1248 l 908 -277 l 907 -277 z m 882 -277 l 882 1249 l 882 1248 l 882 -277 l 882 -277 z m 1768 -277 l 1768 1249 l 1769 1248 l 1769 -277 l 1768 -277 z m 1742 -277 l 1742 1249 l 1742 1248 l 1742 -277 l 1742 -277 z m 1619 -277 l 1619 1249 l 1619 1248 l 1619 -277 l 1619 -277 z m 1593 -277 l 1593 1249 l 1594 1248 l 1594 -277 l 1593 -277 z m 1613 -277 l 1613 1249 l 1613 1248 l 1613 -277 l 1613 -277 z m 1587 -277 l 1587 1249 l 1588 1248 l 1588 -277 l 1587 -277 z m 1876 -277 l 1876 1249 l 1877 1248 l 1877 -277 l 1876 -277 z m 1850 -277 l 1850 1249 l 1851 1248 l 1851 -277 l 1850 -277 z m 1727 -277 l 1727 1249 l 1728 1248 l 1728 -277 l 1727 -277 z m 1702 -277 l 1702 1249 l 1702 1248 l 1702 -277 l 1702 -277 z m 1721 -277 l 1721 1249 l 1722 1248 l 1722 -277 l 1721 -277 z m 1695 -277 l 1695 1249 l 1696 1248 l 1696 -277 l 1695 -277 z m 386 -277 l 386 1249 l 387 1248 l 387 -277 l 386 -277 z m 360 -277 l 360 1249 l 361 1248 l 361 -277 l 360 -277 z m 283 -277 l 283 1249 l 283 1248 l 283 -277 l 283 -277 z m 256 -277 l 256 1249 l 257 1248 l 257 -277 l 256 -277 z m 134 -277 l 134 1249 l 134 1248 l 134 -277 l 134 -277 z m 108 -277 l 108 1249 l 109 1248 l 109 -277 l 108 -277 z m 127 -277 l 127 1249 l 128 1248 l 128 -277 l 127 -277 z m 102 -277 l 102 1249 l 102 1248 l 102 -277 l 102 -277 z m 515 -277 l 515 1249 l 516 1248 l 516 -277 l 515 -277 z m 490 -277 l 490 1249 l 490 1248 l 490 -277 l 490 -277 z m -118 -277 l -118 1249 l -117 1248 l -117 -277 l -118 -277 z m -144 -277 l -144 1249 l -143 1248 l -143 -277 l -144 -277 z m -151 -277 l -151 1249 l -150 1248 l -150 -277 l -151 -277 z m -176 -277 l -176 1249 l -176 1248 l -176 -277 l -176 -277 z m 1267 -277 l 1267 1249 l 1268 1248 l 1268 -277 l 1267 -277 z m 1242 -277 l 1242 1249 l 1242 1248 l 1242 -277 l 1242 -277 z m 1164 -277 l 1164 1249 l 1165 1248 l 1165 -277 l 1164 -277 z m 1138 -277 l 1138 1249 l 1139 1248 l 1139 -277 l 1138 -277 z m 1015 -277 l 1015 1249 l 1016 1248 l 1016 -277 l 1015 -277 z m 989 -277 l 989 1249 l 990 1248 l 990 -277 l 989 -277 z m 1009 -277 l 1009 1249 l 1010 1248 l 1010 -277 l 1009 -277 z m 983 -277 l 983 1249 l 984 1248 l 984 -277 l 983 -277 z m 1397 -277 l 1397 1249 l 1398 1248 l 1398 -277 l 1397 -277 z m 1371 -277 l 1371 1249 l 1372 1248 l 1372 -277 l 1371 -277 z m 764 -277 l 764 1249 l 764 1248 l 764 -277 l 764 -277 z m 738 -277 l 738 1249 l 739 1248 l 739 -277 l 738 -277 z m 731 -277 l 731 1249 l 732 1248 l 732 -277 l 731 -277 z m 705 -277 l 705 1249 l 706 1248 l 706 -277 l 705 -277 z m 1592 -277 l 1592 1249 l 1592 1248 l 1592 -277 l 1592 -277 z m 1565 -277 l 1565 1249 l 1566 1248 l 1566 -277 l 1565 -277 z m 1442 -277 l 1442 1249 l 1443 1248 l 1443 -277 l 1442 -277 z m 1417 -277 l 1417 1249 l 1417 1248 l 1417 -277 l 1417 -277 z m 1436 -277 l 1436 1249 l 1437 1248 l 1437 -277 l 1436 -277 z m 1411 -277 l 1411 1249 l 1411 1248 l 1411 -277 l 1411 -277 z m 1700 -277 l 1700 1249 l 1701 1248 l 1701 -277 l 1700 -277 z m 1674 -277 l 1674 1249 l 1674 1248 l 1674 -277 l 1674 -277 z m 1551 -277 l 1551 1249 l 1552 1248 l 1552 -277 l 1551 -277 z m 1525 -277 l 1525 1249 l 1526 1248 l 1526 -277 l 1525 -277 z m 1545 -277 l 1545 1249 l 1546 1248 l 1546 -277 l 1545 -277 z m 1519 -277 l 1519 1249 l 1520 1248 l 1520 -277 l 1519 -277 z m -319 -277 l -319 1249 l -319 1248 l -319 -277 l -319 -277 z m -345 -277 l -345 1249 l -345 1248 l -345 -277 l -345 -277 z m -422 -277 l -422 1249 l -422 1248 l -422 -277 l -422 -277 z m -449 -277 l -449 1249 l -448 1248 l -448 -277 l -449 -277 z m -572 -277 l -572 1249 l -571 1248 l -571 -277 l -572 -277 z m -597 -277 l -597 1249 l -597 1248 l -597 -277 l -597 -277 z m -578 -277 l -578 1249 l -577 1248 l -577 -277 l -578 -277 z m -604 -277 l -604 1249 l -603 1248 l -603 -277 l -604 -277 z m -190 -277 l -190 1249 l -189 1248 l -189 -277 l -190 -277 z m -216 -277 l -216 1249 l -215 1248 l -215 -277 l -216 -277 z m -823 -277 l -823 1249 l -823 1248 l -823 -277 l -823 -277 z m -849 -277 l -849 1249 l -848 1248 l -848 -277 l -849 -277 z m -856 -277 l -856 1249 l -855 1248 l -855 -277 l -856 -277 z m -882 -277 l -882 1249 l -881 1248 l -881 -277 l -882 -277 z m 562 -277 l 562 1249 l 563 1248 l 563 -277 l 562 -277 z m 536 -277 l 536 1249 l 537 1248 l 537 -277 l 536 -277 z m 459 -277 l 459 1249 l 460 1248 l 460 -277 l 459 -277 z m 433 -277 l 433 1249 l 433 1248 l 433 -277 l 433 -277 z m 310 -277 l 310 1249 l 311 1248 l 311 -277 l 310 -277 z m 284 -277 l 284 1249 l 285 1248 l 285 -277 l 284 -277 z m 304 -277 l 304 1249 l 304 1248 l 304 -277 l 304 -277 z m 278 -277 l 278 1249 l 279 1248 l 279 -277 l 278 -277 z m 692 -277 l 692 1249 l 692 1248 l 692 -277 l 692 -277 z m 666 -277 l 666 1249 l 667 1248 l 667 -277 l 666 -277 z m 58 -277 l 58 1249 l 59 1248 l 59 -277 l 58 -277 z m 33 -277 l 33 1249 l 33 1248 l 33 -277 l 33 -277 z m 26 -277 l 26 1249 l 26 1248 l 26 -277 l 26 -277 z m 0 -277 l 0 1249 l 1 1248 l 1 -277 l 0 -277 z m 886 -277 l 886 1249 l 887 1248 l 887 -277 l 886 -277 z m 860 -277 l 860 1249 l 861 1248 l 861 -277 l 860 -277 z m 737 -277 l 737 1249 l 738 1248 l 738 -277 l 737 -277 z m 711 -277 l 711 1249 l 712 1248 l 712 -277 l 711 -277 z m 731 -277 l 731 1249 l 732 1248 l 732 -277 l 731 -277 z m 705 -277 l 705 1249 l 706 1248 l 706 -277 l 705 -277 z m 995 -277 l 995 1249 l 996 1248 l 996 -277 l 995 -277 z m 968 -277 l 968 1249 l 969 1248 l 969 -277 l 968 -277 z m 846 -277 l 846 1249 l 846 1248 l 846 -277 l 846 -277 z m 820 -277 l 820 1249 l 821 1248 l 821 -277 l 820 -277 z m 840 -277 l 840 1249 l 840 1248 l 840 -277 l 840 -277 z m 814 -277 l 814 1249 l 814 1248 l 814 -277 l 814 -277 z m 250 -277 l 250 1249 l 251 1248 l 251 -277 l 250 -277 z m 224 -277 l 224 1249 l 225 1248 l 225 -277 l 224 -277 z m 147 -277 l 147 1249 l 148 1248 l 148 -277 l 147 -277 z m 121 -277 l 121 1249 l 121 1248 l 121 -277 l 121 -277 z m -2 -277 l -2 1249 l -1 1248 l -1 -277 l -2 -277 z m -28 -277 l -28 1249 l -27 1248 l -27 -277 l -28 -277 z m -8 -277 l -8 1249 l -7 1248 l -7 -277 l -8 -277 z m -34 -277 l -34 1249 l -33 1248 l -33 -277 l -34 -277 z m 380 -277 l 380 1249 l 380 1248 l 380 -277 l 380 -277 z m 354 -277 l 354 1249 l 355 1248 l 355 -277 l 354 -277 z m -254 -277 l -254 1249 l -253 1248 l -253 -277 l -254 -277 z m -279 -277 l -279 1249 l -279 1248 l -279 -277 l -279 -277 z m -286 -277 l -286 1249 l -286 1248 l -286 -277 l -286 -277 z m -312 -277 l -312 1249 l -311 1248 l -311 -277 l -312 -277 z m 1132 -277 l 1132 1249 l 1133 1248 l 1133 -277 l 1132 -277 z m 1106 -277 l 1106 1249 l 1107 1248 l 1107 -277 l 1106 -277 z m 1029 -277 l 1029 1249 l 1029 1248 l 1029 -277 l 1029 -277 z m 1002 -277 l 1002 1249 l 1003 1248 l 1003 -277 l 1002 -277 z m 880 -277 l 880 1249 l 880 1248 l 880 -277 l 880 -277 z m 854 -277 l 854 1249 l 854 1248 l 854 -277 l 854 -277 z m 873 -277 l 873 1249 l 874 1248 l 874 -277 l 873 -277 z m 848 -277 l 848 1249 l 848 1248 l 848 -277 l 848 -277 z m 1261 -277 l 1261 1249 l 1262 1248 l 1262 -277 l 1261 -277 z m 1236 -277 l 1236 1249 l 1236 1248 l 1236 -277 l 1236 -277 z m 628 -277 l 628 1249 l 629 1248 l 629 -277 l 628 -277 z m 602 -277 l 602 1249 l 603 1248 l 603 -277 l 602 -277 z m 595 -277 l 595 1249 l 596 1248 l 596 -277 l 595 -277 z m 570 -277 l 570 1249 l 570 1248 l 570 -277 l 570 -277 z m 1456 -277 l 1456 1249 l 1457 1248 l 1457 -277 l 1456 -277 z m 1430 -277 l 1430 1249 l 1430 1248 l 1430 -277 l 1430 -277 z m 1307 -277 l 1307 1249 l 1308 1248 l 1308 -277 l 1307 -277 z m 1281 -277 l 1281 1249 l 1282 1248 l 1282 -277 l 1281 -277 z m 1301 -277 l 1301 1249 l 1301 1248 l 1301 -277 l 1301 -277 z m 1275 -277 l 1275 1249 l 1276 1248 l 1276 -277 l 1275 -277 z m 1565 -277 l 1565 1249 l 1565 1248 l 1565 -277 l 1565 -277 z m 1538 -277 l 1538 1249 l 1539 1248 l 1539 -277 l 1538 -277 z m 1415 -277 l 1415 1249 l 1416 1248 l 1416 -277 l 1415 -277 z m 1390 -277 l 1390 1249 l 1390 1248 l 1390 -277 l 1390 -277 z m 1409 -277 l 1409 1249 l 1410 1248 l 1410 -277 l 1409 -277 z m 1383 -277 l 1383 1249 l 1384 1248 l 1384 -277 l 1383 -277 z m 922 -277 l 922 1249 l 922 1248 l 922 -277 l 922 -277 z m 896 -277 l 896 1249 l 897 1248 l 897 -277 l 896 -277 z m 819 -277 l 819 1249 l 819 1248 l 819 -277 l 819 -277 z m 792 -277 l 792 1249 l 793 1248 l 793 -277 l 792 -277 z m 669 -277 l 669 1249 l 670 1248 l 670 -277 l 669 -277 z m 644 -277 l 644 1249 l 644 1248 l 644 -277 l 644 -277 z m 663 -277 l 663 1249 l 664 1248 l 664 -277 l 663 -277 z m 637 -277 l 637 1249 l 638 1248 l 638 -277 l 637 -277 z m 1051 -277 l 1051 1249 l 1052 1248 l 1052 -277 l 1051 -277 z m 1025 -277 l 1025 1249 l 1026 1248 l 1026 -277 l 1025 -277 z m 418 -277 l 418 1249 l 418 1248 l 418 -277 l 418 -277 z m 392 -277 l 392 1249 l 393 1248 l 393 -277 l 392 -277 z m 385 -277 l 385 1249 l 386 1248 l 386 -277 l 385 -277 z m 359 -277 l 359 1249 l 360 1248 l 360 -277 l 359 -277 z m 1803 -277 l 1803 1249 l 1804 1248 l 1804 -277 l 1803 -277 z m 1777 -277 l 1777 1249 l 1778 1248 l 1778 -277 l 1777 -277 z m 1700 -277 l 1700 1249 l 1701 1248 l 1701 -277 l 1700 -277 z m 1674 -277 l 1674 1249 l 1674 1248 l 1674 -277 l 1674 -277 z m 1551 -277 l 1551 1249 l 1552 1248 l 1552 -277 l 1551 -277 z m 1525 -277 l 1525 1249 l 1526 1248 l 1526 -277 l 1525 -277 z m 1545 -277 l 1545 1249 l 1546 1248 l 1546 -277 l 1545 -277 z m 1519 -277 l 1519 1249 l 1520 1248 l 1520 -277 l 1519 -277 z m 1933 -277 l 1933 1249 l 1933 1248 l 1933 -277 l 1933 -277 z m 1907 -277 l 1907 1249 l 1908 1248 l 1908 -277 l 1907 -277 z m 1299 -277 l 1299 1249 l 1300 1248 l 1300 -277 l 1299 -277 z m 1274 -277 l 1274 1249 l 1274 1248 l 1274 -277 l 1274 -277 z m 1267 -277 l 1267 1249 l 1267 1248 l 1267 -277 l 1267 -277 z m 1241 -277 l 1241 1249 l 1242 1248 l 1242 -277 l 1241 -277 z m 2127 -277 l 2127 1249 l 2128 1248 l 2128 -277 l 2127 -277 z m 2101 -277 l 2101 1249 l 2102 1248 l 2102 -277 l 2101 -277 z m 1978 -277 l 1978 1249 l 1979 1248 l 1979 -277 l 1978 -277 z m 1952 -277 l 1952 1249 l 1953 1248 l 1953 -277 l 1952 -277 z m 1972 -277 l 1972 1249 l 1973 1248 l 1973 -277 l 1972 -277 z m 1946 -277 l 1946 1249 l 1947 1248 l 1947 -277 l 1946 -277 z m 1673 -277 l 1673 1249 l 1674 1248 l 1674 -277 l 1673 -277 z m 1647 -277 l 1647 1249 l 1647 1248 l 1647 -277 l 1647 -277 z m 2087 -277 l 2087 1249 l 2087 1248 l 2087 -277 l 2087 -277 z m 2061 -277 l 2061 1249 l 2062 1248 l 2062 -277 l 2061 -277 z m 2081 -277 l 2081 1249 l 2081 1248 l 2081 -277 l 2081 -277 z m 2055 -277 l 2055 1249 l 2056 1248 l 2056 -277 l 2055 -277 z m 1796 -277 l 1796 1249 l 1797 1248 l 1797 -277 l 1796 -277 z m 1771 -277 l 1771 1249 l 1771 1248 l 1771 -277 l 1771 -277 z m 1693 -277 l 1693 1249 l 1694 1248 l 1694 -277 l 1693 -277 z m 1667 -277 l 1667 1249 l 1668 1248 l 1668 -277 l 1667 -277 z m 1544 -277 l 1544 1249 l 1545 1248 l 1545 -277 l 1544 -277 z m 1518 -277 l 1518 1249 l 1519 1248 l 1519 -277 l 1518 -277 z m 1538 -277 l 1538 1249 l 1539 1248 l 1539 -277 l 1538 -277 z m 1512 -277 l 1512 1249 l 1513 1248 l 1513 -277 l 1512 -277 z m 1926 -277 l 1926 1249 l 1927 1248 l 1927 -277 l 1926 -277 z m 1900 -277 l 1900 1249 l 1901 1248 l 1901 -277 l 1900 -277 z m 1293 -277 l 1293 1249 l 1293 1248 l 1293 -277 l 1293 -277 z m 1267 -277 l 1267 1249 l 1267 1248 l 1267 -277 l 1267 -277 z m 1260 -277 l 1260 1249 l 1261 1248 l 1261 -277 l 1260 -277 z m 1234 -277 l 1234 1249 l 1235 1248 l 1235 -277 l 1234 -277 z m 2115 -277 l 2115 1249 l 2116 1248 l 2116 -277 l 2115 -277 z m 2089 -277 l 2089 1249 l 2090 1248 l 2090 -277 l 2089 -277 z m 2012 -277 l 2012 1249 l 2013 1248 l 2013 -277 l 2012 -277 z m 1986 -277 l 1986 1249 l 1986 1248 l 1986 -277 l 1986 -277 z m 1863 -277 l 1863 1249 l 1864 1248 l 1864 -277 l 1863 -277 z m 1837 -277 l 1837 1249 l 1838 1248 l 1838 -277 l 1837 -277 z m 1857 -277 l 1857 1249 l 1858 1248 l 1858 -277 l 1857 -277 z m 1831 -277 l 1831 1249 l 1832 1248 l 1832 -277 l 1831 -277 z m 2245 -277 l 2245 1249 l 2245 1248 l 2245 -277 l 2245 -277 z m 2219 -277 l 2219 1249 l 2220 1248 l 2220 -277 l 2219 -277 z m 2174 -277 l 2174 1249 l 2175 1248 l 2175 -277 l 2174 -277 z m 2148 -277 l 2148 1249 l 2149 1248 l 2149 -277 l 2148 -277 z m 2142 -277 l 2142 1249 l 2142 1248 l 2142 -277 l 2142 -277 z m 2116 -277 l 2116 1249 l 2117 1248 l 2117 -277 l 2116 -277 z m 2439 -277 l 2439 1249 l 2440 1248 l 2440 -277 l 2439 -277 z m 2413 -277 l 2413 1249 l 2414 1248 l 2414 -277 l 2413 -277 z m 2290 -277 l 2290 1249 l 2291 1248 l 2291 -277 l 2290 -277 z m 2264 -277 l 2264 1249 l 2265 1248 l 2265 -277 l 2264 -277 z m 2284 -277 l 2284 1249 l 2285 1248 l 2285 -277 l 2284 -277 z m 2258 -277 l 2258 1249 l 2259 1248 l 2259 -277 l 2258 -277 z m 2548 -277 l 2548 1249 l 2549 1248 l 2549 -277 l 2548 -277 z m 2521 -277 l 2521 1249 l 2522 1248 l 2522 -277 l 2521 -277 z m 2399 -277 l 2399 1249 l 2399 1248 l 2399 -277 l 2399 -277 z m 2373 -277 l 2373 1249 l 2374 1248 l 2374 -277 l 2373 -277 z m 2393 -277 l 2393 1249 l 2393 1248 l 2393 -277 l 2393 -277 z m 2367 -277 l 2367 1249 l 2367 1248 l 2367 -277 l 2367 -277 z "},"\\":{"ha":604,"x_min":-58,"x_max":654,"o":"m -58 1229 l -57 1249 l 654 1215 l 653 1196 l 528 1201 l 528 1173 q 553 690 555 853 l 553 690 l 545 690 l 513 652 l 512 644 l 560 640 l 559 583 l 567 534 l 536 439 q 574 455 534 399 l 574 455 l 554 -277 l 556 -292 l 70 -262 l 25 -267 l 24 -11 l 16 -1 l 23 27 l 31 752 l 29 1225 l -58 1229 z m 211 1173 l 169 1171 l 156 1187 l 159 1169 l 151 1168 l 137 1185 l 89 1176 l 77 1136 l 111 963 l 123 946 l 115 944 l 118 926 l 132 907 l 340 -165 l 465 -144 l 475 -144 l 211 1173 z "},"]":{"ha":61,"x_min":-2462,"x_max":806,"o":"m -184 -277 l -184 1249 l -183 1248 l -183 -277 l -184 -277 z m -210 -277 l -210 1249 l -209 1248 l -209 -277 l -210 -277 z m -287 -277 l -287 1249 l -286 1248 l -286 -277 l -287 -277 z m -313 -277 l -313 1249 l -313 1248 l -313 -277 l -313 -277 z m -436 -277 l -436 1249 l -435 1248 l -435 -277 l -436 -277 z m -462 -277 l -462 1249 l -461 1248 l -461 -277 l -462 -277 z m -442 -277 l -442 1249 l -441 1248 l -441 -277 l -442 -277 z m -468 -277 l -468 1249 l -467 1248 l -467 -277 l -468 -277 z m -54 -277 l -54 1249 l -54 1248 l -54 -277 l -54 -277 z m -80 -277 l -80 1249 l -79 1248 l -79 -277 l -80 -277 z m -688 -277 l -688 1249 l -687 1248 l -687 -277 l -688 -277 z m 33 -277 l 33 1249 l 33 1248 l 33 -277 l 33 -277 z m 26 -277 l 26 1249 l 26 1248 l 26 -277 l 26 -277 z m 0 -277 l 0 1249 l 1 1248 l 1 -277 l 0 -277 z m -930 -277 l -930 1249 l -929 1248 l -929 -277 l -930 -277 z m -956 -277 l -956 1249 l -955 1248 l -955 -277 l -956 -277 z m -1033 -277 l -1033 1249 l -1032 1248 l -1032 -277 l -1033 -277 z m -1059 -277 l -1059 1249 l -1059 1248 l -1059 -277 l -1059 -277 z m -1182 -277 l -1182 1249 l -1181 1248 l -1181 -277 l -1182 -277 z m -1208 -277 l -1208 1249 l -1207 1248 l -1207 -277 l -1208 -277 z m -1188 -277 l -1188 1249 l -1187 1248 l -1187 -277 l -1188 -277 z m -1214 -277 l -1214 1249 l -1213 1248 l -1213 -277 l -1214 -277 z m -800 -277 l -800 1249 l -800 1248 l -800 -277 l -800 -277 z m -826 -277 l -826 1249 l -825 1248 l -825 -277 l -826 -277 z m 194 -277 l 194 1249 l 195 1248 l 195 -277 l 194 -277 z m 168 -277 l 168 1249 l 169 1248 l 169 -277 l 168 -277 z m 161 -277 l 161 1249 l 162 1248 l 162 -277 l 161 -277 z m 136 -277 l 136 1249 l 136 1248 l 136 -277 l 136 -277 z m -606 -277 l -606 1249 l -605 1248 l -605 -277 l -606 -277 z m -632 -277 l -632 1249 l -631 1248 l -631 -277 l -632 -277 z m -755 -277 l -755 1249 l -754 1248 l -754 -277 l -755 -277 z m -781 -277 l -781 1249 l -780 1248 l -780 -277 l -781 -277 z m -761 -277 l -761 1249 l -760 1248 l -760 -277 l -761 -277 z m -787 -277 l -787 1249 l -786 1248 l -786 -277 l -787 -277 z m -497 -277 l -497 1249 l -496 1248 l -496 -277 l -497 -277 z m -524 -277 l -524 1249 l -523 1248 l -523 -277 l -524 -277 z m -646 -277 l -646 1249 l -646 1248 l -646 -277 l -646 -277 z m -672 -277 l -672 1249 l -671 1248 l -671 -277 l -672 -277 z m -652 -277 l -652 1249 l -652 1248 l -652 -277 l -652 -277 z m -678 -277 l -678 1249 l -677 1248 l -677 -277 l -678 -277 z m -1900 -277 l -1900 1249 l -1899 1248 l -1899 -277 l -1900 -277 z m -1925 -277 l -1925 1249 l -1925 1248 l -1925 -277 l -1925 -277 z m -2003 -277 l -2003 1249 l -2002 1248 l -2002 -277 l -2003 -277 z m -2029 -277 l -2029 1249 l -2028 1248 l -2028 -277 l -2029 -277 z m -2152 -277 l -2152 1249 l -2151 1248 l -2151 -277 l -2152 -277 z m -2178 -277 l -2178 1249 l -2177 1248 l -2177 -277 l -2178 -277 z m -2158 -277 l -2158 1249 l -2157 1248 l -2157 -277 l -2158 -277 z m -2184 -277 l -2184 1249 l -2183 1248 l -2183 -277 l -2184 -277 z m -1770 -277 l -1770 1249 l -1769 1248 l -1769 -277 l -1770 -277 z m -1796 -277 l -1796 1249 l -1795 1248 l -1795 -277 l -1796 -277 z m -2403 -277 l -2403 1249 l -2403 1248 l -2403 -277 l -2403 -277 z m -2429 -277 l -2429 1249 l -2429 1248 l -2429 -277 l -2429 -277 z m -2436 -277 l -2436 1249 l -2435 1248 l -2435 -277 l -2436 -277 z m -2462 -277 l -2462 1249 l -2461 1248 l -2461 -277 l -2462 -277 z m -1018 -277 l -1018 1249 l -1017 1248 l -1017 -277 l -1018 -277 z m -1044 -277 l -1044 1249 l -1043 1248 l -1043 -277 l -1044 -277 z m -1121 -277 l -1121 1249 l -1120 1248 l -1120 -277 l -1121 -277 z m -1147 -277 l -1147 1249 l -1147 1248 l -1147 -277 l -1147 -277 z m -1270 -277 l -1270 1249 l -1270 1248 l -1270 -277 l -1270 -277 z m -1296 -277 l -1296 1249 l -1295 1248 l -1295 -277 l -1296 -277 z m -1276 -277 l -1276 1249 l -1276 1248 l -1276 -277 l -1276 -277 z m -1302 -277 l -1302 1249 l -1301 1248 l -1301 -277 l -1302 -277 z m -888 -277 l -888 1249 l -888 1248 l -888 -277 l -888 -277 z m -914 -277 l -914 1249 l -913 1248 l -913 -277 l -914 -277 z m -1522 -277 l -1522 1249 l -1521 1248 l -1521 -277 l -1522 -277 z m -1548 -277 l -1548 1249 l -1547 1248 l -1547 -277 l -1548 -277 z m -1554 -277 l -1554 1249 l -1554 1248 l -1554 -277 l -1554 -277 z m -1580 -277 l -1580 1249 l -1579 1248 l -1579 -277 l -1580 -277 z m -694 -277 l -694 1249 l -693 1248 l -693 -277 l -694 -277 z m -720 -277 l -720 1249 l -720 1248 l -720 -277 l -720 -277 z m -843 -277 l -843 1249 l -842 1248 l -842 -277 l -843 -277 z m -869 -277 l -869 1249 l -868 1248 l -868 -277 l -869 -277 z m -849 -277 l -849 1249 l -848 1248 l -848 -277 l -849 -277 z m -875 -277 l -875 1249 l -874 1248 l -874 -277 l -875 -277 z m -585 -277 l -585 1249 l -585 1248 l -585 -277 l -585 -277 z m -612 -277 l -612 1249 l -611 1248 l -611 -277 l -612 -277 z m -734 -277 l -734 1249 l -734 1248 l -734 -277 l -734 -277 z m -760 -277 l -760 1249 l -760 1248 l -760 -277 l -760 -277 z m -741 -277 l -741 1249 l -740 1248 l -740 -277 l -741 -277 z m -766 -277 l -766 1249 l -766 1248 l -766 -277 l -766 -277 z m -509 -277 l -509 1249 l -509 1248 l -509 -277 l -509 -277 z m -535 -277 l -535 1249 l -534 1248 l -534 -277 l -535 -277 z m -612 -277 l -612 1249 l -612 1248 l -612 -277 l -612 -277 z m -639 -277 l -639 1249 l -638 1248 l -638 -277 l -639 -277 z m -762 -277 l -762 1249 l -761 1248 l -761 -277 l -762 -277 z m -787 -277 l -787 1249 l -787 1248 l -787 -277 l -787 -277 z m -768 -277 l -768 1249 l -767 1248 l -767 -277 l -768 -277 z m -793 -277 l -793 1249 l -793 1248 l -793 -277 l -793 -277 z m -380 -277 l -380 1249 l -379 1248 l -379 -277 l -380 -277 z m -406 -277 l -406 1249 l -405 1248 l -405 -277 l -406 -277 z m -1013 -277 l -1013 1249 l -1013 1248 l -1013 -277 l -1013 -277 z m -1039 -277 l -1039 1249 l -1038 1248 l -1038 -277 l -1039 -277 z m -1046 -277 l -1046 1249 l -1045 1248 l -1045 -277 l -1046 -277 z m -1072 -277 l -1072 1249 l -1071 1248 l -1071 -277 l -1072 -277 z m 372 -277 l 372 1249 l 373 1248 l 373 -277 l 372 -277 z m 347 -277 l 347 1249 l 347 1248 l 347 -277 l 347 -277 z m 269 -277 l 269 1249 l 270 1248 l 270 -277 l 269 -277 z m 243 -277 l 243 1249 l 243 1248 l 243 -277 l 243 -277 z m 120 -277 l 120 1249 l 121 1248 l 121 -277 l 120 -277 z m 94 -277 l 94 1249 l 95 1248 l 95 -277 l 94 -277 z m 114 -277 l 114 1249 l 115 1248 l 115 -277 l 114 -277 z m 88 -277 l 88 1249 l 89 1248 l 89 -277 l 88 -277 z m 502 -277 l 502 1249 l 503 1248 l 503 -277 l 502 -277 z m 476 -277 l 476 1249 l 477 1248 l 477 -277 l 476 -277 z m -132 -277 l -132 1249 l -131 1248 l -131 -277 l -132 -277 z m -157 -277 l -157 1249 l -157 1248 l -157 -277 l -157 -277 z m -164 -277 l -164 1249 l -163 1248 l -163 -277 l -164 -277 z m -190 -277 l -190 1249 l -189 1248 l -189 -277 l -190 -277 z m 696 -277 l 696 1249 l 697 1248 l 697 -277 l 696 -277 z m 670 -277 l 670 1249 l 671 1248 l 671 -277 l 670 -277 z m 547 -277 l 547 1249 l 548 1248 l 548 -277 l 547 -277 z m 522 -277 l 522 1249 l 522 1248 l 522 -277 l 522 -277 z m 541 -277 l 541 1249 l 542 1248 l 542 -277 l 541 -277 z m 515 -277 l 515 1249 l 516 1248 l 516 -277 l 515 -277 z m 805 -277 l 805 1249 l 806 1248 l 806 -277 l 805 -277 z m 779 -277 l 779 1249 l 779 1248 l 779 -277 l 779 -277 z m 656 -277 l 656 1249 l 656 1248 l 656 -277 l 656 -277 z m 630 -277 l 630 1249 l 631 1248 l 631 -277 l 630 -277 z m 650 -277 l 650 1249 l 650 1248 l 650 -277 l 650 -277 z m 624 -277 l 624 1249 l 625 1248 l 625 -277 l 624 -277 z "},"^":{"ha":673,"x_min":-104,"x_max":747,"o":"m 746 -235 l 747 -254 l -96 -242 l -96 -224 l 52 -226 l 51 -199 q 0 261 5 104 l 0 261 l 9 261 l 45 297 l 45 306 l -12 307 l -12 361 l -24 408 l -14 665 q -63 794 -14 704 l -63 794 l -104 1153 l -94 1153 l 527 1181 l 553 1118 l 594 943 l 604 933 l 595 906 l 619 216 l 643 -234 l 746 -235 z m 383 972 l 445 852 l 355 1014 l 342 1019 l 210 809 l 343 1017 l 256 892 l 94 618 l 103 647 l 241 593 q 342 768 283 644 l 342 768 l 438 584 l 554 631 q 439 850 489 751 l 439 850 l 440 860 l 383 972 z "},"_":{"ha":772,"x_min":-122,"x_max":812,"o":"m 732 1218 l -122 1238 l 715 1222 l 281 1211 l 735 1199 l 734 1170 q 760 682 766 847 l 760 682 l 748 682 l 699 644 l 699 634 l 769 633 l 766 574 l 777 525 l 742 252 q 793 115 740 211 l 793 115 l 812 -267 l 802 -267 l 2 -262 l -8 -252 l 2 1 l -8 12 l 3 40 l -3 737 l 5 1216 l 732 1218 z m 696 9 l 45 6 l 35 -54 l 77 -60 l 34 -66 l 33 -73 l 75 -80 l 75 -86 l 32 -86 l 70 -106 l 765 -111 l 777 -18 l 736 -12 l 737 -5 l 783 1 l 739 8 l 696 9 z "},"`":{"ha":463,"x_min":-56,"x_max":493,"o":"m 493 -259 l 493 -279 l -56 -270 l -54 -251 l 42 -252 l 42 -224 q -26 -249 10 -231 l -26 -249 l 26 249 l 52 286 l 52 296 l 15 296 l 16 353 l 9 400 l 23 665 q -5 798 24 705 l -5 798 l -3 1239 l -6 1249 l 435 1237 l 441 1227 l 439 981 l 446 971 l 439 943 l 422 205 l 426 -258 l 493 -259 z m 102 1108 l 26 1053 l 50 1036 l 270 762 l 394 852 l 227 1110 l 234 1122 l 231 1126 l 221 1120 l 228 1131 l 201 1172 l 176 1168 l 127 1133 l 121 1122 l 112 1115 l 109 1119 l 102 1108 z "}}}
